<?xml version="1.0" encoding="UTF-8" standalone="no"?>
<!-- Created with Inkscape (http://www.inkscape.org/) -->

<svg
   xmlns:dc="http://purl.org/dc/elements/1.1/"
   xmlns:cc="http://creativecommons.org/ns#"
   xmlns:rdf="http://www.w3.org/1999/02/22-rdf-syntax-ns#"
   xmlns:svg="http://www.w3.org/2000/svg"
   xmlns="http://www.w3.org/2000/svg"
   xmlns:sodipodi="http://sodipodi.sourceforge.net/DTD/sodipodi-0.dtd"
   xmlns:inkscape="http://www.inkscape.org/namespaces/inkscape"
   version="1.1"
   id="svg4539"
   width="248.24097"
   height="140.24605"
   viewBox="0 0 248.24097 140.24604"
   sodipodi:docname="160818_lekhac_logo_bw_master.svg"
   inkscape:version="0.92.1 r">
  <metadata
     id="metadata4545">
    <rdf:RDF>
      <cc:Work
         rdf:about="">
        <dc:format>image/svg+xml</dc:format>
        <dc:type
           rdf:resource="http://purl.org/dc/dcmitype/StillImage" />
        <dc:title></dc:title>
      </cc:Work>
    </rdf:RDF>
  </metadata>
  <defs
     id="defs4543" />
  <sodipodi:namedview
     pagecolor="#ffffff"
     bordercolor="#666666"
     borderopacity="1"
     objecttolerance="10"
     gridtolerance="10"
     guidetolerance="10"
     inkscape:pageopacity="0"
     inkscape:pageshadow="2"
     inkscape:window-width="1280"
     inkscape:window-height="1024"
     id="namedview4541"
     showgrid="false"
     inkscape:zoom="1.4142136"
     inkscape:cx="97.23034"
     inkscape:cy="104.75701"
     inkscape:window-x="0"
     inkscape:window-y="0"
     inkscape:window-maximized="0"
     inkscape:current-layer="svg4539" />
  <path
     style="fill:#00006e;stroke-width:0.18897638;stroke:none;fill-opacity:1"
     d="m 84.37242,139.49207 c -1.643906,-0.66625 -3.335651,-1.55247 -3.429262,-1.79641 -0.04967,-0.12944 0.04339,-0.55532 0.206793,-0.9464 0.273435,-0.65443 0.323293,-0.68804 0.625926,-0.42203 0.644692,0.56667 1.93603,1.09033 3.24027,1.31398 1.149234,0.19707 1.460284,0.18421 2.353224,-0.0973 1.35452,-0.42697 2.078635,-1.24725 3.298095,-3.73601 6.022318,-11.05562 8.853021,-22.17099 13.017994,-34.20462 0.0987,-1.00208 0.0759,-1.07677 -0.43909,-1.43826 -0.29878,-0.20972 -0.9897,-0.48665 -1.53537,-0.61542 -1.05237,-0.24835 -1.11508,-0.35425 -0.77961,-1.31659 0.21137,-0.60632 0.21777,-0.60892 1.1811,-0.48043 0.53273,0.0711 1.43631,0.2407 2.00796,0.37697 1.09457,0.26091 5.37972,0.76125 8.17323,0.9543 1.79029,0.12372 1.85042,0.17685 1.53443,1.35593 -0.10404,0.38823 -0.22597,0.4252 -1.40244,0.4252 -2.11551,0 -2.29301,0.591663 -3.11044,2.30387 -2.03975,9.24688 -8.34044,30.31468 -10.901644,33.88522 -0.510548,0.67526 -2.050193,2.67357 -4.226844,3.79156 -2.176651,1.11798 -4.990306,1.35564 -6.125779,1.39423 -1.955653,0.0665 -2.873689,-0.41755 -3.688543,-0.74783 z m 38.17323,-6.05052 c -1.55906,-0.0737 -4.64174,-0.14502 -6.8504,-0.15844 -4.36131,-0.0265 -4.20839,0.0177 -3.81757,-1.10341 0.18935,-0.54317 0.25795,-0.5735 1.53968,-0.68096 2.17564,-0.1824 2.61279,-0.838 3.36279,-5.04317 1.52047,-8.70938 3.16927,-16.17246 4.5507,-24.4489 0.34398,-2.21639 -0.0716,-2.64615 -2.80095,-2.89621 -1.17351,-0.10752 -1.18108,-0.11199 -1.17821,-0.69651 0.006,-1.12231 0.0284,-1.12887 3.4074,-0.97748 9.00238,0.11593 12.03617,-0.652098 20.87317,-0.74466 -0.0528,2.729665 -0.18859,5.50078 -0.56231,8.18131 -0.0288,0.0304 -0.35468,0.1044 -0.7243,0.16438 -0.64527,0.10471 -0.67599,0.0837 -0.77199,-0.52777 -0.055,-0.35025 -0.15288,-1.37435 -0.21754,-2.27578 -0.0647,-0.90143 -0.21677,-1.76957 -0.33803,-1.92919 -0.14177,-0.18661 -0.79214,-0.36048 -1.82182,-0.48702 -2.08812,-0.25662 -7.2084,-0.22104 -8.4144,0.0585 -0.93269,0.21617 -0.94644,0.22995 -1.06508,1.06847 -0.5472,4.03868 -1.28098,8.52344 -1.73175,12.31933 4.25491,0.0529 7.68345,-0.63938 11.64843,-0.42621 0.2136,0.21359 -0.21103,2.20996 -0.54003,2.53896 -4.13132,0.72214 -6.72475,-8.7e-4 -11.5288,0.8481 l -2.29634,14.08614 c 0,0 4.4544,0.5219 10.52144,-0.0776 3.81237,-0.37671 4.40501,-0.81605 5.09623,-3.77792 0.59553,-2.55183 0.61513,-2.58762 1.49842,-2.73686 0.77901,-0.13161 1.23837,-0.0102 1.0591,0.27985 -0.56122,3.07749 -0.81497,5.55601 -1.13406,8.58315 -5.87281,0.70983 -11.88272,1.10262 -17.76378,0.85985 z m 21.38977,-0.90394 c -0.0363,-0.0711 -0.0293,-0.53322 0.0156,-1.02692 0.0696,-0.76632 0.14096,-0.89794 0.48771,-0.89969 0.6588,-0.003 2.23882,-0.54047 2.63743,-0.89664 5.49945,-13.05304 10.35368,-23.7892 15.47207,-35.85093 1.67903,-0.580323 2.97018,-0.710879 4.66347,-0.90246 2.82996,7.45572 7.32615,28.51875 10.7201,31.72 0.74049,0.70641 1.45372,0.87359 3.03555,0.71153 1.16583,-0.11944 1.19428,-0.11146 1.38431,0.38837 0.10671,0.28068 0.19402,0.70941 0.19402,0.95273 0,0.39261 -0.11168,0.4558 -0.99212,0.56136 -3.93409,0.55141 -7.98174,1.25304 -11.76378,2.00185 -3.2018,0.63761 -3.10604,0.62726 -3.19432,0.34524 -0.0443,-0.14154 -0.12234,-0.56003 -0.17342,-0.92999 -0.10191,-0.73811 -0.18474,-0.69018 2.25645,-1.30561 1.08227,-0.27285 1.7727,-0.85695 1.7727,-1.4997 -0.56838,-3.43907 -2.05693,-6.95262 -2.83465,-10.15542 0,-0.25958 -0.14366,-0.28978 -0.89763,-0.18872 -3.40467,0.40844 -7.10297,1.05972 -11.00788,2.21404 -1.05163,3.16582 -2.72806,6.11036 -3.6848,9.30659 -0.25726,0.88895 -0.27568,1.20319 -0.0959,1.6371 0.2818,0.68034 0.76793,0.80209 2.92592,0.73277 l 1.70522,-0.0548 0.0563,0.96216 0.0563,0.96216 -1.85159,0.12586 c -2.42445,0.1648 -7.05653,0.64211 -8.37128,0.8626 -1.79674,0.30134 -2.44765,0.35994 -2.51574,0.2265 z m 22.81905,-19.85792 c -1.38083,-4.34793 -2.59567,-8.8134 -4.01589,-13.15326 -1.91331,5.04808 -4.03168,10.21477 -5.70465,14.78741 3.04431,-0.23139 6.57605,-0.72285 9.72054,-1.63415 z m 18.36842,13.68116 c -0.0663,-0.17278 -0.12055,-0.60665 -0.12055,-0.96416 0,-0.7242 0.10466,-0.79461 1.92461,-1.29487 1.84594,-0.5074 1.85492,-0.53465 1.85492,-5.63716 -0.13552,-8.91829 -0.42492,-15.88572 -0.61081,-24.3522 l -0.59359,-0.77826 c -0.994,-1.30322 -3.04315,-1.91026 -4.93733,-1.46264 -0.87009,0.20561 -1.22835,-0.0739 -1.22835,-0.95822 0,-0.40565 0.10581,-0.52955 0.51968,-0.60851 3.34054,-0.649898 6.52972,-1.401022 9.77953,-2.18918 8.42779,8.658188 15.22773,16.28541 22.64291,23.03283 -0.74212,-7.98335 -1.89363,-17.245627 -2.82894,-24.34168 -0.23805,-0.82891 -0.3998,-1.05637 -0.93141,-1.30988 -0.56776,-0.27075 -0.81936,-0.2782 -2.1421,-0.0634 -0.82432,0.13387 -1.59035,0.1868 -1.70226,0.11763 -0.11193,-0.0692 -0.20351,-0.41511 -0.20351,-0.76875 0,-0.59921 0.0547,-0.65655 0.80315,-0.84227 1.23309,-0.30597 2.40665,-0.65677 6,-1.79352 4.21748,-1.33419 4.23556,-1.33611 4.30909,-0.45667 0.0539,0.64431 0.008,0.70617 -0.80109,1.08661 -0.47202,0.22188 -0.93518,0.40342 -1.02926,0.40342 -0.0941,0 -0.43517,0.24671 -0.75796,0.54826 -0.53838,0.5029 -0.58664,0.64752 -0.58356,1.74803 0.76795,11.229939 2.21046,23.18754 3.12359,33.23127 -0.1535,0 -0.64348,0.11829 -1.08886,0.26288 -0.44536,0.14458 -1.30972,0.4148 -1.9208,0.60048 l -1.11106,0.33761 -1.05098,-1.12017 c -7.0869,-7.41944 -13.79671,-14.31426 -20.20308,-21.05672 -0.739,-0.77928 -1.38273,-1.37455 -1.43048,-1.32284 -0.0478,0.0517 -0.0138,1.5397 0.0754,3.30663 0.22592,5.63155 0.51437,21.36078 2.13812,22.55821 0.44721,0.21434 0.82786,0.22327 2.07702,0.0487 2.12861,-0.29743 2.0019,-0.34351 2.0019,0.72805 0,0.82461 -0.0527,0.95197 -0.4252,1.02752 -0.23386,0.0474 -0.68031,0.14135 -0.99212,0.20872 -0.31181,0.0674 -1.28977,0.2412 -2.17323,0.38627 -1.99372,0.32738 -5.04061,1.0578 -7.86371,1.88513 -0.27375,0.0802 -0.437,0.0183 -0.51968,-0.19718 z m 45.32827,-12.61512 c -0.62362,-0.10389 -1.16254,-0.2138 -1.19762,-0.24424 -0.12673,-0.10999 -0.41435,-1.42947 -1.31624,-6.03805 -0.20339,-1.03937 -0.42699,-2.02643 -0.49689,-2.19346 -0.0919,-0.21954 0.0296,-0.3686 0.43831,-0.53789 0.70547,-0.29221 0.88297,-0.18431 1.15568,0.70249 0.11942,0.38831 0.26691,0.83359 0.32777,0.98949 0.0609,0.15591 0.24572,0.66355 0.41083,1.1281 0.39439,1.10963 1.37983,1.78158 3.22934,2.20204 3.06788,0.69743 7.40653,-0.52201 9.576,-2.69147 1.23734,-1.23734 1.82162,-2.67652 1.71698,-4.22922 -0.17839,-2.64713 -1.52349,-4.73735 -3.4988,-5.43701 -0.92453,-0.32748 -1.71613,-0.39971 -5.33749,-0.48705 -5.56354,-0.13419 -7.05286,-0.5218 -8.76198,-2.28035 -2.71264,-2.7911 -3.47751,-8.34348 -1.70734,-12.39401 1.70141,-3.89322 4.3847,-6.42364 8.34627,-7.87078 1.42205,-0.51947 4.42925,-0.77417 5.89648,-0.49942 0.79092,0.1481 0.85459,0.20562 1.00696,0.90982 0.47698,2.20442 0.97508,4.11362 1.39559,5.34933 0.25922,0.76176 0.4426,1.40773 0.40751,1.43548 -0.0351,0.0278 -0.34341,0.18621 -0.68517,0.35213 l -0.62138,0.30165 -0.46524,-1.05199 c -0.25587,-0.5786 -0.46524,-1.11564 -0.46524,-1.19343 0,-0.29272 -0.77541,-1.88002 -0.98024,-2.00662 -0.11747,-0.0726 -0.73158,-0.24321 -1.36469,-0.37914 -3.18191,-0.68315 -6.22498,0.1485 -8.36166,2.28519 -1.27676,1.27676 -1.76585,2.40482 -1.76585,4.07283 0,1.80949 0.96618,3.8068 2.22193,4.59318 1.53583,0.96179 2.3204,1.10076 7.15343,1.26714 5.94252,0.20457 7.43953,0.59648 9.1606,2.39821 1.083,1.13375 1.37238,1.605 1.90546,3.10304 0.58279,1.6377 0.62913,5.70211 0.0848,7.43731 -1.86684,5.9509 -6.45122,9.60903 -13.62854,10.87495 -2.28616,0.40323 -2.17348,0.3993 -3.77953,0.13175 z M 122.82911,87.80246 c -2.90013,-0.50098 -6.18237,-1.84384 -8.69291,-3.55654 -1.4273,-0.9737 -4.09692,-3.67912 -5.0363,-5.10385 -0.48881,-0.74135 -1.02955,-1.56052 -1.20165,-1.82036 -0.55249,-0.83421 -1.83878,-4.2048 -2.19957,-5.76378 -0.48282,-2.08621 -0.5782,-6.93748 0.01,-9.25984 0.5882,-2.32236 2.33918,-6.38284 3.41759,-7.58315 0.10529,-0.11718 0.31899,-0.39952 0.47489,-0.6274 1.11578,-1.63095 4.01789,-4.20619 6.06908,-5.38553 1.32003,-0.75895 3.52742,-1.67487 5.08053,-2.10808 6.18909,-1.7263 12.98014,-0.48954 18.08161,3.29297 4.41091,3.27049 7.00372,7.31999 8.30962,12.97811 0.46214,2.00233 0.45938,6.16415 -0.006,8.31497 -0.71911,3.32698 -2.37457,6.80609 -4.36075,9.16454 -1.05699,1.25509 -3.45526,3.49798 -4.2443,3.96932 -0.83381,0.523243 -1.69446,1.057727 -2.52971,1.48783 -0.0218,-0.0388 -0.21669,-0.32563 -0.43306,-0.63744 -0.41018,-0.894988 -0.72878,-1.77966 -0.26673,-2.52671 0.14423,-0.205789 0.64774,-0.772711 1.50335,-1.45341 0.8105,-0.500879 1.43818,-1.304577 1.89822,-1.97264 0.61395,-0.78488 0.50396,-1.93639 -0.28346,-2.96764 -1.01388,-0.995829 -1.82158,-0.878974 -2.97127,-0.43388 -1.80105,0.982544 -3.05367,2.586042 -4.74811,3.59055 -1.06729,0.516737 -2.04743,0.180214 -2.77495,-0.38942 -0.18141,-0.225091 -0.35699,-0.36827 -0.62083,-0.33071 -0.33581,0.0478 -0.35291,0.367919 -0.35095,0.6234 0.16244,0.563658 0.37985,0.729558 1.22771,1.40225 0.65009,0.33435 0.99648,0.39696 1.65619,0.29933 0.63973,-0.11712 1.21173,-0.409621 1.74056,-0.72936 1.71604,-0.947177 2.94513,-2.422688 4.67411,-3.39352 1.63439,-0.38964 2.08446,1.33094 0.60924,2.32905 -1.01603,0.861311 -2.19206,1.871965 -2.90636,2.87405 -0.23534,0.362926 -0.29007,1.609489 -0.1157,2.20202 0.16611,0.474034 0.35273,0.988402 0.51911,1.40335 0.34749,0.71978 0.10593,0.9144 -1.89151,1.52396 -2.89325,0.88293 -6.61468,1.10983 -9.6378,0.58761 z m 1.89632,-3.96897 c 0.57093,-0.535267 -0.32751,-1.464862 -0.898,-2.140231 -0.28847,-0.364331 -2.10677,-2.978069 -4.0499,-5.437719 -0.50431,-0.63836 -0.91692,-1.23705 -0.91692,-1.33044 0,-0.0934 1.01699,-0.93172 2.25998,-1.86297 1.24299,-0.93124 2.30331,-1.79948 2.35627,-1.9294 0.16643,-0.40828 -0.10415,-0.80315 -0.55034,-0.80315 -1.95404,0.811531 -3.37075,2.10867 -5.12189,3.20857 -0.54807,-0.442731 -0.82146,-0.921355 -1.2466,-1.52217 0.82161,-0.962126 1.58,-2.179009 1.74757,-3.18139 -0.0414,-2.381324 -1.38928,-4.366957 -2.93119,-5.79218 -0.48657,-0.366863 -1.12008,-0.56894 -1.20019,0.11958 -0.0439,0.37728 0.18105,0.72165 1.00606,1.54011 1.25866,1.134654 1.83385,2.81223 1.69311,4.33248 -0.15255,0.50123 -0.98562,1.6737 -1.18768,1.67155 -0.0727,-7.6e-4 -1.23693,-1.44644 -2.58724,-3.2126 -2.36877,-3.09823 -2.8241,-3.51264 -3.26877,-2.97497 -0.38824,0.46944 0.0252,1.23074 2.2307,4.10714 2.091,2.72712 2.22298,2.94873 1.94143,3.25984 -0.91852,0.688879 -2.16038,0.567346 -3.13804,0.4359 -1.04505,-0.598084 -1.80851,-1.487687 -2.47306,-2.32258 -0.9443,-1.28513 -1.51484,-1.52448 -1.67216,-0.70148 -0.0712,0.3724 0.15874,0.80539 1.02863,1.937 1.24983,1.62587 1.61047,1.96052 2.70403,2.5092 1.68471,0.689216 3.09246,-0.04887 4.47642,-0.67592 0.89957,0.112999 1.0323,0.66119 1.60822,1.414022 0,0 -2.52473,2.277311 -3.94875,3.507688 -0.69777,0.50877 -0.89192,0.857806 -0.46151,1.336635 0.4304,0.47883 0.83731,0.353465 1.42231,-0.279355 1.20235,-1.181972 2.39556,-2.049259 3.73526,-3.08106 0.19876,-0.1564 2.69607,2.90022 5.23604,6.40873 0.78605,1.103229 1.63528,1.994437 2.20621,1.45917 z m 7.73243,-6.912427 c 1.75027,-1.30712 2.89484,-2.546895 1.9187,-4.055061 -0.97614,-1.508165 -2.458,-1.406723 -4.53832,0.296807 -2.08031,1.70353 -2.35833,3.193967 -1.5804,4.311992 0.77792,1.118025 2.44975,0.753383 4.20002,-0.553738 z m -3.37018,-0.323873 c -0.8511,-0.864295 0.25549,-1.688663 1.36229,-2.547574 1.1068,-0.858912 2.29654,-1.597684 2.96635,-0.790436 0.66982,0.807249 0.23786,1.180541 -1.57098,2.577607 -1.80883,1.397067 -1.90656,1.624698 -2.75766,0.760403 z m -3.99085,0.0044 c 3.24729,-2.924217 4.9781,-6.036667 8.31819,-7.05629 0.0838,0.119569 0.0868,0.116593 0.28684,0.34542 0.24199,0.242 0.57089,0.184394 0.80796,0.02793 0.17083,-0.11274 -0.0597,-0.688276 -0.0597,-0.688276 0,0 0.21632,-0.04393 0.38322,-0.228398 0.2826,-0.31227 0.47236,-1.191041 -0.5377,-1.043075 -0.12884,0.03846 -0.2133,0.05372 -0.2133,0.05372 -1.51371,-3.029208 -3.45762,-6.317547 -5.31065,-8.832674 -2.66055,-3.48493 -2.56596,-3.32174 -1.97414,-3.40599 0.9119,-0.12983 1.14008,0.049 2.82042,2.21079 3.67617,4.070393 5.46024,9.120778 9.46304,11.94483 0.39095,0.249974 0.9295,0.36275 1.14969,0.0975 0.15688,-0.18904 0.0576,-0.45798 -0.40879,-1.10743 -2.62925,-2.858304 -5.37459,-5.778848 -7.54692,-9.27476 -0.26673,-0.70154 -3.56656,-4.92515 -4.05014,-5.18395 -0.59204,-0.31686 -2.47072,-0.14577 -2.92625,0.26648 -1.04072,0.51748 -1.53964,-0.189003 -2.42231,-0.50963 -0.75497,0.25676 0.36437,1.82678 1.54858,2.17208 0.74586,0.21748 1.01227,0.48362 2.7334,2.73058 2.05311,3.259268 4.28466,6.284556 5.60835,9.277224 -1.2047,0.510405 -2.50928,1.266099 -3.54675,1.943676 -0.94864,0.68126 -0.84955,0.58893 -1.82668,-0.73061 -0.2081,-0.28101 -0.43272,-0.39311 -0.63341,-0.31609 -0.53841,0.2066 -0.55964,0.68723 -0.0621,1.40523 0.26278,0.37919 0.47778,0.75224 0.47778,0.82899 -1.01409,1.264589 -2.05133,2.719602 -2.90636,4.0732 -0.28985,0.336705 -0.55201,1.28594 -0.38873,1.55012 0.71806,0.196826 0.79726,-0.158474 1.21639,-0.5506 z m 0.83039,-6.02307 c -0.72024,-3.196437 -1.87571,-6.290441 -3.67578,-8.61057 -1.20267,-1.54237 -1.38234,-1.677319 -0.85287,-2.382809 0.27753,-0.508935 0.85617,-1.00664 1.13727,-1.448864 2.51292,2.638514 3.67603,5.265431 5.47127,8.184483 0.47001,0.4859 1.29791,-0.29359 0.86537,-0.81477 -2.27631,-4.502196 -4.98294,-7.94891 -8.18919,-11.254 -0.6111,-0.86357 -1.3041,-0.97181 -1.4108,-0.22036 0.23098,1.084393 1.50528,1.921471 2.12992,2.555651 0.57118,1.017298 -0.31327,1.359176 -0.86698,2.28363 -0.32563,0.323253 -0.53597,0.129829 -1.58033,-1.253451 -1.74788,-2.040627 -3.21061,-2.399195 -5.14555,-1.05577 -2.28265,1.847001 -3.26143,-0.79259 -0.97554,-2.1227 1.13629,-1.18725 3.92766,-3.30139 4.56202,-3.45519 0.58457,-0.14174 0.7,-0.67879 0.22978,-1.06903 -0.21611,-0.17936 -0.3965,-0.18877 -0.70866,-0.037 -2.26224,1.630248 -5.54122,3.557535 -6.36903,5.89133 -0.18685,0.69394 -0.16522,0.90952 0.16092,1.60334 1.42922,2.028931 2.70819,0.01407 5.21278,-0.581228 1.74229,0.581155 2.3118,1.855995 3.31673,3.063618 -0.48162,0.490014 -1.38413,0.732572 -1.98425,1.02587 -0.45033,0.207616 -0.39883,0.20016 -1.22835,-0.94488 -0.48698,-0.67222 -0.96196,-1.13386 -1.16661,-1.13386 -0.58771,0 -0.39703,0.69693 0.50508,1.84604 2.39386,3.314124 3.21397,7.136492 4.7934,10.43743 0.0445,0.08393 0.35286,-0.14882 0.57303,-0.33071 0.37358,-0.30862 0.38129,-0.36686 0.11543,-0.872 -0.9207,-2.712401 -1.83717,-5.107425 -2.80938,-7.53039 0.40736,-1.218457 1.64312,-1.085539 2.03675,-1.17519 2.38501,2.953272 3.50061,6.064467 4.64522,9.26464 0,0.47005 0.60377,1.23134 0.92499,1.16634 0.23434,-0.0474 0.2988,-0.28167 0.28335,-1.02967 z m 17.68929,-2.91844 c -0.73934,-3.67758 -2.90394,-6.857518 -4.43246,-9.67752 -0.23203,-0.3062 -0.19692,-0.45064 0.29862,-1.22835 0.67401,-1.0578 0.68357,-1.95514 0.0348,-3.26673 -0.66674,-1.34792 -2.20956,-2.3249 -2.62075,-1.65959 -0.17923,0.29 0.23742,0.99963 0.71467,1.21721 1.18453,0.946985 1.06092,2.095838 0.52345,3.275463 -0.75608,-0.362895 -1.21433,-0.998705 -2.12279,-2.001575 0,0 -0.41665,-0.491368 -0.81441,-1.392256 0.73145,-0.776406 0.85765,-1.46325 0.85982,-2.197672 0,-0.85054 -0.10295,-1.22065 -0.49814,-1.79092 -1.16794,-1.196264 -2.06408,-1.037292 -3.33061,-0.71882 -1.11775,0.622454 -2.14481,1.734348 -2.81221,2.6861 -0.22151,0.436459 -0.3563,1.43482 -0.10143,2.03206 0.42836,1.0038 0.91634,1.51255 1.66634,1.73725 0.91181,0.272189 1.5458,-0.149851 2.32193,-0.51543 0.42232,-0.133356 0.37441,-0.23265 1.14735,0.40072 0.93378,0.761569 1.65589,1.869003 2.27393,2.72114 -0.0562,0.091 -0.42097,0.21923 -0.81057,0.28505 -0.90383,0.15271 -1.69187,-0.23289 -2.2904,-1.12072 -0.57523,-0.85327 -1.15674,-0.89951 -1.15674,-0.092 0,0.72491 0.98116,2.05903 1.83916,2.50077 1.31732,0.451566 2.26676,0.256438 3.26823,-0.241 2.35365,2.927904 3.89216,5.879522 4.71954,9.41995 0,0.088 0.19134,0.24966 0.4252,0.35913 0.47455,0.22214 0.89764,-0.12289 0.89764,-0.73202 z M 130.6793,51.56315 c 0.58861,-1.039887 1.70164,-1.787331 2.60351,-2.2931 0.46684,-0.21211 1.08514,0.09677 1.29223,0.72926 0.19518,0.809508 0.23336,1.190169 -0.16969,1.564948 -0.77539,0.765891 -1.85693,1.563604 -2.86726,1.946422 -1.0595,-0.0812 -1.28362,-1.270709 -0.85879,-1.94753 z M 29.294218,69.81726 c -0.359153,-0.24598 -0.684249,-0.47847 -0.722438,-0.51666 -0.03819,-0.0382 0.01695,-0.38228 0.122529,-0.76466 0.243108,-0.88047 0.0589,-1.37412 -0.901614,-2.41615 -0.411215,-0.44611 -2.581072,-3.14677 -4.821904,-6.00145 -2.240835,-2.85468 -4.654302,-5.91317 -5.363264,-6.79663 -3.0882,-3.84834 -7.208972,-9.27032 -7.9711442,-10.48819 -1.039293,-1.66068 -2.044755,-2.74123 -2.546412,-2.73657 -0.736395,0.007 -2.095415,1.08128 -3.882907,3.06984 -0.987401,1.09847 -1.860253,2.00436 -1.939671,2.01308 C 1.0642688,45.20217 0.00671384,44.01241 4.8393877e-6,43.75404 -0.00719516,43.47852 8.2870018,35.88502 9.8974258,34.53832 12.034305,32.75139 18.897025,26.9963 19.528616,26.75394 c 0.160951,-0.0618 0.361553,0.19581 0.562707,0.72253 0.171925,0.45018 0.312592,0.87365 0.312592,0.94105 0,0.0674 -0.709431,0.63468 -1.576513,1.26064 -2.186394,1.57838 -2.95892,2.46659 -2.95892,3.40203 5.465084,9.841318 10.58697,19.139608 16.216802,29.5508 2.623394,-1.645231 3.917836,-2.778897 6.996013,-5.00228 1.755364,-1.26635 2.64651,-2.13567 2.794749,-2.72631 0.06409,-0.25536 0.06859,-0.90682 0.01,-1.44769 -0.112636,-1.03975 -0.743494,-3.97616 -0.969976,-4.51487 -0.102335,-0.24341 0.04675,-0.41111 0.629994,-0.70866 1.159174,-0.59136 0.955563,-0.88646 1.947682,2.82281 0.208499,0.77953 0.71118,2.45971 1.117069,3.73374 0.405889,1.27402 0.737981,2.43504 0.737981,2.58005 0,0.145 -0.446456,0.5565 -0.992126,0.91444 -5.286116,3.261152 -11.213325,6.818582 -14.053336,11.40065 L 29.947221,70.2645 Z M 49.198556,55.16423 c -0.08358,-0.44174 -0.154838,-0.8663 -0.158343,-0.94347 -0.0035,-0.0772 0.417995,-0.418 0.936669,-0.75739 1.339976,-0.87679 1.533836,-1.37471 1.26792,-3.25657 -1.5029,-8.633845 -3.457972,-17.865661 -5.247837,-27.31029 -1.015504,-5.37114 -1.144864,-5.52647 -3.955255,-4.74932 -2.712746,0.75015 -3.116367,0.84555 -3.204464,0.75746 -0.0478,-0.0478 -0.111706,-0.44843 -0.142011,-0.89028 l -0.0551,-0.80337 c 9.107518,-3.251024 18.149588,-6.332775 27.401575,-8.39437 0.831496,-0.17792 1.978652,-0.43387 2.549236,-0.56878 1.636934,-0.38703 1.70051,-0.30084 1.714685,2.3246 -0.0041,2.184172 0.25142,4.37887 0.175444,6.52773 -0.07765,0.086 -0.44318,0.22453 -0.812283,0.30778 -0.613038,0.13826 -0.687581,0.10838 -0.861681,-0.3454 -0.415899,-1.578368 -0.832744,-3.218054 -1.532107,-4.64976 -0.417636,-0.37795 -1.239606,-0.30956 -5.579753,0.46427 -3.835894,0.68392 -7.820149,1.79983 -8.338318,2.33541 -0.148832,0.15383 -0.163287,0.61508 -0.04833,1.5423 0.273541,2.20632 0.707756,6.05093 1.083987,9.59783 0.196118,1.84888 0.392693,3.39772 0.436833,3.44186 3.130815,-0.769337 7.351666,-1.975201 10.942142,-3.105 2.171235,-0.68439 2.326874,-0.57591 2.13504,1.48813 l -0.119163,1.28216 c -4.260646,1.25477 -8.841541,2.339195 -12.465598,3.76308 0.808705,5.045487 1.489952,9.555982 2.407682,14.85477 0.175839,1.14495 0.330894,1.11734 7.917082,-1.40985 2.173247,-0.72398 4.275821,-1.52114 4.672386,-1.77149 1.218329,-0.76909 1.349987,-1.12831 1.494371,-4.0773 0.07106,-1.45149 0.215626,-2.72549 0.321248,-2.83111 0.105621,-0.10563 0.529448,-0.2373 0.941838,-0.29261 l 0.749798,-0.10057 0.121638,2.14698 c 0.0669,1.18084 0.177695,3.39734 0.246212,4.92556 l 0.124575,2.77858 -0.453443,0.18607 c -7.511617,2.177642 -15.421071,4.625607 -22.48863,7.40927 -1.03604,0.50943 -1.915744,0.92624 -1.954896,0.92624 -0.03915,0 -0.139571,-0.36142 -0.223151,-0.80315 z M 216.70313,48.7728 c -14.07907,-2.504227 -17.05248,-14.444523 -11.64567,-25.68827 3.91752,-7.84699 12.02547,-12.95728 21.0939,-13.29506 6.44504,-0.24007 11.87477,1.53671 17.33208,5.6716 1.44184,1.09245 1.69635,1.50301 1.23285,1.98887 -1.98093,2.395669 -3.59375,5.112211 -5.20641,7.71429 -0.22235,0 -1.65901,-0.45614 -1.79154,-0.56881 0.61578,-1.602047 1.2008,-3.396976 1.7531,-5.2609 0.0183,-1.70331 -3.75515,-4.35193 -8.69016,-6.09954 -7.2256,-2.10012 -15.33804,4.266252 -18.33071,11.17811 -0.82341,2.525799 -1.71514,5.254157 -2.07651,7.93224 -0.9822,7.75361 1.58931,11.75403 8.56069,13.31758 2.41947,0.54264 6.2869,0.30555 9.29535,-0.56985 0.51969,-0.15122 1.34882,-0.3291 1.84252,-0.39529 0.84027,-0.11266 0.89764,-0.0932 0.89764,0.30431 0,0.23356 -0.33511,0.82491 -0.7447,1.31412 -0.58307,0.6964 -0.94197,0.93991 -1.65354,1.12188 -0.49986,0.12783 -1.41908,0.36216 -2.04271,0.52073 -3.22881,0.82101 -7.31079,1.15914 -9.82677,0.81399 z M 79.090541,46.55951 c -0.05717,-0.0572 -0.103948,-0.55421 -0.103948,-1.10453 v -1.00059 l 0.803149,-0.20669 c 1.903616,-0.48988 2.623174,-0.80381 2.936285,-1.28105 0.42902,-0.65391 0.476376,-4.32042 0.27021,-20.92053 C 82.872682,12.0977 82.784721,9.27452 82.585735,8.87048 82.193751,8.07458 81.361691,7.89047 79.270976,8.13704 76.697987,8.44049 76.879107,8.50153 76.945221,7.35321 l 0.05712,-0.99213 0.755905,-0.11763 c 5.467908,-0.7304416 12.350953,-1.8447934 17.52755,-2.90849 0.29285,-0.11727 0.33071,-0.003 0.33071,0.9973 v 1.12973 l -0.99212,0.12952 c -1.50097,0.19595 -3.02669,0.67147 -3.44472,1.07363 -0.32367,0.31138 -0.39164,0.72094 -0.50636,3.05142 -0.26705,5.4249 -0.41091,14.50279 -0.22982,14.50279 3.515351,-3.402631 6.239624,-6.997834 9.14153,-10.45493 4.017094,-4.7852919 5.505284,-6.66964 6.808934,-8.62144 0.46963,-0.70313 0.56115,-1.02885 0.56115,-1.99716 V 1.9888 l 3.16535,-0.22498 c 1.74095,-0.12374 3.87681,-0.31356 4.74637,-0.42182 0.86956,-0.10826 1.60234,-0.17129 1.6284,-0.14006 0.0261,0.0312 0.0908,0.46071 0.1438,0.95442 l 0.0964,0.89763 h -0.89791 c -1.04672,0 -2.18775,0.36554 -3.06303,0.98126 -5.59681,5.283417 -10.56633,11.212393 -15.428914,16.82394 -0.29537,0.37798 -0.22047,0.49121 1.84045,2.78236 5.555754,6.17639 10.841594,12.10161 11.454104,12.8396 1.13022,1.36178 2.22274,2.28165 2.8136,2.36899 0.32338,0.0478 1.05569,0.15575 1.62734,0.23987 l 1.03937,0.15296 v 0.94488 0.94488 l -2.59449,0.12942 c -1.42698,0.0712 -3.67322,0.3093 -4.99165,0.52917 -1.96035,0.3269 -2.43755,0.35497 -2.61886,0.15404 -0.12194,-0.13513 -0.7659,-0.92602 -1.43103,-1.75751 -1.69578,-2.11996 -9.744134,-11.16156 -11.258324,-12.64772 -1.7452,-1.7129 -2.73513,-2.60469 -2.80916,-2.53066 -0.043,0.043 -0.0901,3.48393 -0.10475,7.64657 -0.0232,6.59848 0.0121,7.64329 0.2753,8.15232 0.16606,0.32113 0.40883,0.65064 0.53949,0.73224 0.13066,0.0816 1.15174,0.12558 2.26906,0.0977 l 2.0315,-0.0507 v 1.03311 c 0,1.1921 0.0854,1.1467 -2.55118,1.35535 -0.8315,0.0658 -2.70237,0.33046 -4.157475,0.58814 -3.813387,0.67528 -4.594584,0.84535 -8.82519,1.92136 -0.38456,0.0978 -0.745977,0.13106 -0.80315,0.0739 z m 118.667709,-3.3571 c -5.3175,-0.982811 -9.53394,-1.29596 -14.26772,-1.63117 v -0.91676 c 0,-0.50422 0.0825,-0.96778 0.18344,-1.03013 0.10087,-0.0624 1.00121,-0.13116 2.00073,-0.15289 1.73469,-0.0377 1.83804,-0.0636 2.27325,-0.56974 1.13274,-3.59925 0.59263,-7.751248 0.21587,-12.72895 -4.26778,-0.520417 -8.88175,-0.822255 -12.41497,-1.01486 -2.64041,4.124018 -6.44229,10.069998 -6.57067,11.41143 -0.0843,0.74813 -0.0409,0.87554 0.39666,1.1622 0.27025,0.17708 1.25924,0.42754 2.19775,0.55658 0.9385,0.12904 1.75219,0.28044 1.8082,0.33645 0.056,0.056 0.0426,0.54863 -0.0299,1.09472 l -0.13171,0.99288 c -4.40324,-0.46415 -9.07712,-0.619843 -12.79482,-0.61881 v -0.44424 c 0,-0.24433 0.0908,-0.70487 0.2019,-1.02342 0.18082,-0.51871 0.30412,-0.59206 1.1811,-0.70269 2.02922,-0.25597 2.67301,-0.72206 4.28629,-3.10313 7.67432,-10.847591 14.8513,-21.558202 21.54331,-31.00576 1.04677,-1.5403 1.38886,-1.90908 1.67057,-1.80098 1.68764,0.2825665 3.10507,0.3648115 4.87942,0.58037 0.32414,7.693043 1.66219,33.781987 1.98399,37.43734 0.3888,0.41386 1.02287,0.69143 2.75736,1.20707 0.85073,0.25292 0.88363,0.32762 0.68186,1.54835 -0.13245,0.80124 -0.0991,0.79448 -2.05194,0.41614 z M 187.55352,8.33498 c -4.00568,5.383612 -7.17107,9.832109 -10.11023,14.27596 4.07291,0.558429 7.2933,0.938382 10.81974,1.04145 -0.16899,-5.658418 -0.36619,-9.980652 -0.70951,-15.31741 z M 118.55188,40.7571 c -0.0613,-0.15974 -0.0542,-0.67206 0.0157,-1.1385 0.12399,-0.82687 0.14461,-0.84824 0.82426,-0.85481 0.38339,-0.004 1.20731,-0.12795 1.83094,-0.27612 1.47639,-0.35077 1.89519,-0.86051 2.16555,-2.63573 1.7621,-10.613166 2.7314,-21.122581 3.14142,-32.52561 -0.23592,-0.32311 -0.55229,-0.37431 -2.655,-0.42968 l -2.38717,-0.0628 0.0566,-0.97652 0.0566,-0.97651 1.60629,-0.13109 c 0.88347,-0.0721 4.49764,-0.23389 8.0315,-0.35953 3.53386,-0.12565 7.09573,-0.26483 7.91527,-0.3093 L 140.64391,0 l -0.0926,0.96423 c -0.051,0.53032 -0.12744,0.99901 -0.16996,1.04153 -0.0425,0.0425 -0.95603,0.15688 -2.03002,0.25413 -5.03307,1.8836778 -4.14976,0.739675 -5.29366,15.05411 5.95269,0.04209 10.48731,-0.07784 16.8836,-0.18125 l 0.14427,-0.7559 c 0.33751,-4.532124 2.4834,-9.0072792 1.59918,-13.65062 -0.36245,-0.36245 -1.67254,-0.5909 -3.47434,-0.60583 -0.7474,-0.006 -1.39921,-0.0764 -1.44844,-0.15612 -0.0492,-0.0797 0.003,-0.54738 0.11517,-1.03937 l 0.20469,-0.89452 2.09415,-0.002 c 2.15754,-0.002 16.61127,0.39826 16.68875,0.46253 0.0239,0.0198 -0.0208,0.41333 -0.0992,0.87449 l -0.14259,0.83847 -2.0145,0.18898 c -1.56823,0.14711 -2.13576,0.2792 -2.5619,0.59629 -0.60748,0.45202 -1.19988,1.898 -1.53639,3.75016 -1.65634,9.224578 -3.71748,18.151129 -5.3206,27.17259 -0.38682,2.18374 -0.38764,2.23968 -0.0414,2.83464 0.39391,0.67696 0.72873,0.78527 3.16923,1.02523 l 1.51181,0.14864 -0.0326,0.92077 c -0.0179,0.50642 -0.10295,0.98693 -0.18897,1.0678 -0.086,0.0809 -1.38947,0.0639 -2.89656,-0.0377 -3.76122,-0.25357 -6.84718,-0.27885 -10.91338,-0.0894 l -3.44882,0.16069 0.003,-0.63313 c 0.002,-0.34822 0.11002,-0.84572 0.2411,-1.10557 0.21816,-0.43248 0.37378,-0.48177 1.83973,-0.58277 0.88078,-0.0607 1.78918,-0.22772 2.01866,-0.3712 2.2933,-6.836919 2.65883,-10.067344 3.67412,-15.92816 0.10538,-0.60644 0.15866,-1.13556 0.1184,-1.17582 -5.88079,-0.01577 -10.36048,0.09578 -16.68219,0.19966 -0.6989,6.376605 -1.33952,9.531024 -1.51186,16.89859 0.39601,0.39151 2.17003,0.76666 3.6378,0.76927 0.87861,0.002 0.90099,0.046 0.68421,1.35697 l -0.11477,0.69413 -4.56031,0.0802 c -3.96247,0.0697 -10.30324,0.5098 -11.60383,0.80544 -0.27976,0.0636 -0.46818,-0.004 -0.5408,-0.19283 z"
     id="path4549"
     inkscape:connector-curvature="0"
     sodipodi:nodetypes="ccccsccccccccscsccsccccssccccccccccccccccccccssccccccccccccscscccscccccccccccsccccccccscccccscccccccscsccsccccccccccccsccccccccccsccccccccccccccccccscccscscccsccccccccccccssccccccccccccccccccccccccczccsccccccccccccccccccccccczccczzzzzzzzzzzcccccccccccccccccccccccccccccccccccccccccccccccccccscccccccccccccsccccccccccccccccsccccccccccccccccscscscccccscsccccccccscccccccccccsccccccccccssccccccccccccsscccccccccsccccccccscsccccccccccsccccccccscssccscsscccsccccccccccccccsccsccsccccccccccccccccsccccccsccccccccccccccccccccccsccccsccccccccccccccccccccccccccccccccccccccccc" />
</svg>
