<svg width="248.24" height="140.25" version="1.1" viewBox="0 0 248.24 140.25" xmlns="http://www.w3.org/2000/svg">
 <path d="m84.372 139.49c-1.6439-0.66625-3.3357-1.5525-3.4293-1.7964-0.04967-0.12944 0.04339-0.55532 0.20679-0.9464 0.27344-0.65443 0.32329-0.68804 0.62593-0.42203 0.64469 0.56667 1.936 1.0903 3.2403 1.314 1.1492 0.19707 1.4603 0.18421 2.3532-0.0973 1.3545-0.42697 2.0786-1.2472 3.2981-3.736 6.0223-11.056 8.853-22.171 13.018-34.205 0.0987-1.0021 0.0759-1.0768-0.43909-1.4383-0.29878-0.20972-0.9897-0.48665-1.5354-0.61542-1.0524-0.24835-1.1151-0.35425-0.77961-1.3166 0.21137-0.60632 0.21777-0.60892 1.1811-0.48043 0.53273 0.0711 1.4363 0.2407 2.008 0.37697 1.0946 0.26091 5.3797 0.76125 8.1732 0.9543 1.7903 0.12372 1.8504 0.17685 1.5344 1.3559-0.10404 0.38823-0.22597 0.4252-1.4024 0.4252-2.1155 0-2.293 0.59166-3.1104 2.3039-2.0398 9.2469-8.3404 30.315-10.902 33.885-0.51055 0.67526-2.0502 2.6736-4.2268 3.7916-2.1767 1.118-4.9903 1.3556-6.1258 1.3942-1.9557 0.0665-2.8737-0.41755-3.6885-0.74783zm38.173-6.0505c-1.5591-0.0737-4.6417-0.14502-6.8504-0.15844-4.3613-0.0265-4.2084 0.0177-3.8176-1.1034 0.18935-0.54317 0.25795-0.5735 1.5397-0.68096 2.1756-0.1824 2.6128-0.838 3.3628-5.0432 1.5205-8.7094 3.1693-16.172 4.5507-24.449 0.34398-2.2164-0.0716-2.6462-2.801-2.8962-1.1735-0.10752-1.1811-0.11199-1.1782-0.69651 6e-3 -1.1223 0.0284-1.1289 3.4074-0.97748 9.0024 0.11593 12.036-0.6521 20.873-0.74466-0.0528 2.7297-0.18859 5.5008-0.56231 8.1813-0.0288 0.0304-0.35468 0.1044-0.7243 0.16438-0.64527 0.10471-0.67599 0.0837-0.77199-0.52777-0.055-0.35025-0.15288-1.3744-0.21754-2.2758-0.0647-0.90143-0.21677-1.7696-0.33803-1.9292-0.14177-0.18661-0.79214-0.36048-1.8218-0.48702-2.0881-0.25662-7.2084-0.22104-8.4144 0.0585-0.93269 0.21617-0.94644 0.22995-1.0651 1.0685-0.5472 4.0387-1.281 8.5234-1.7318 12.319 4.2549 0.0529 7.6834-0.63938 11.648-0.42621 0.2136 0.21359-0.21103 2.21-0.54003 2.539-4.1313 0.72214-6.7248-8.7e-4 -11.529 0.8481l-2.2963 14.086s4.4544 0.5219 10.521-0.0776c3.8124-0.37671 4.405-0.81605 5.0962-3.7779 0.59553-2.5518 0.61513-2.5876 1.4984-2.7369 0.77901-0.13161 1.2384-0.0102 1.0591 0.27985-0.56122 3.0775-0.81497 5.556-1.1341 8.5832-5.8728 0.70983-11.883 1.1026-17.764 0.85985zm21.39-0.90394c-0.0363-0.0711-0.0293-0.53322 0.0156-1.0269 0.0696-0.76632 0.14096-0.89794 0.48771-0.89969 0.6588-3e-3 2.2388-0.54047 2.6374-0.89664 5.4994-13.053 10.354-23.789 15.472-35.851 1.679-0.58032 2.9702-0.71088 4.6635-0.90246 2.83 7.4557 7.3262 28.519 10.72 31.72 0.74049 0.70641 1.4537 0.87359 3.0356 0.71153 1.1658-0.11944 1.1943-0.11146 1.3843 0.38837 0.10671 0.28068 0.19402 0.70941 0.19402 0.95273 0 0.39261-0.11168 0.4558-0.99212 0.56136-3.9341 0.55141-7.9817 1.253-11.764 2.0018-3.2018 0.63761-3.106 0.62726-3.1943 0.34524-0.0443-0.14154-0.12234-0.56003-0.17342-0.92999-0.10191-0.73811-0.18474-0.69018 2.2564-1.3056 1.0823-0.27285 1.7727-0.85695 1.7727-1.4997-0.56838-3.4391-2.0569-6.9526-2.8346-10.155 0-0.25958-0.14366-0.28978-0.89763-0.18872-3.4047 0.40844-7.103 1.0597-11.008 2.214-1.0516 3.1658-2.7281 6.1104-3.6848 9.3066-0.25726 0.88895-0.27568 1.2032-0.0959 1.6371 0.2818 0.68034 0.76793 0.80209 2.9259 0.73277l1.7052-0.0548 0.1126 1.9243-1.8516 0.12586c-2.4244 0.1648-7.0565 0.64211-8.3713 0.8626-1.7967 0.30134-2.4476 0.35994-2.5157 0.2265zm22.819-19.858c-1.3808-4.3479-2.5957-8.8134-4.0159-13.153-1.9133 5.0481-4.0317 10.215-5.7046 14.787 3.0443-0.23139 6.576-0.72285 9.7205-1.6342zm18.368 13.681c-0.0663-0.17278-0.12055-0.60665-0.12055-0.96416 0-0.7242 0.10466-0.79461 1.9246-1.2949 1.8459-0.5074 1.8549-0.53465 1.8549-5.6372-0.13552-8.9183-0.42492-15.886-0.61081-24.352l-0.59359-0.77826c-0.994-1.3032-3.0432-1.9103-4.9373-1.4626-0.87009 0.20561-1.2284-0.0739-1.2284-0.95822 0-0.40565 0.10581-0.52955 0.51968-0.60851 3.3405-0.6499 6.5297-1.401 9.7795-2.1892 8.4278 8.6582 15.228 16.285 22.643 23.033-0.74212-7.9834-1.8936-17.246-2.8289-24.342-0.23805-0.82891-0.3998-1.0564-0.93141-1.3099-0.56776-0.27075-0.81936-0.2782-2.1421-0.0634-0.82432 0.13387-1.5904 0.1868-1.7023 0.11763-0.11193-0.0692-0.20351-0.41511-0.20351-0.76875 0-0.59921 0.0547-0.65655 0.80315-0.84227 1.2331-0.30597 2.4066-0.65677 6-1.7935 4.2175-1.3342 4.2356-1.3361 4.3091-0.45667 0.0539 0.64431 8e-3 0.70617-0.80109 1.0866-0.47202 0.22188-0.93518 0.40342-1.0293 0.40342-0.0941 0-0.43517 0.24671-0.75796 0.54826-0.53838 0.5029-0.58664 0.64752-0.58356 1.748 0.76795 11.23 2.2105 23.188 3.1236 33.231-0.1535 0-0.64348 0.11829-1.0889 0.26288-0.44536 0.14458-1.3097 0.4148-1.9208 0.60048l-1.1111 0.33761-1.051-1.1202c-7.0869-7.4194-13.797-14.314-20.203-21.057-0.739-0.77928-1.3827-1.3746-1.4305-1.3228-0.0478 0.0517-0.0138 1.5397 0.0754 3.3066 0.22592 5.6316 0.51437 21.361 2.1381 22.558 0.44721 0.21434 0.82786 0.22327 2.077 0.0487 2.1286-0.29743 2.0019-0.34351 2.0019 0.72805 0 0.82461-0.0527 0.95197-0.4252 1.0275-0.23386 0.0474-0.68031 0.14135-0.99212 0.20872-0.31181 0.0674-1.2898 0.2412-2.1732 0.38627-1.9937 0.32738-5.0406 1.0578-7.8637 1.8851-0.27375 0.0802-0.437 0.0183-0.51968-0.19718zm45.328-12.615c-0.62362-0.10389-1.1625-0.2138-1.1976-0.24424-0.12673-0.10999-0.41435-1.4295-1.3162-6.038-0.20339-1.0394-0.42699-2.0264-0.49689-2.1935-0.0919-0.21954 0.0296-0.3686 0.43831-0.53789 0.70547-0.29221 0.88297-0.18431 1.1557 0.70249 0.11942 0.38831 0.26691 0.83359 0.32777 0.98949 0.0609 0.15591 0.24572 0.66355 0.41083 1.1281 0.39439 1.1096 1.3798 1.7816 3.2293 2.202 3.0679 0.69743 7.4065-0.52201 9.576-2.6915 1.2373-1.2373 1.8216-2.6765 1.717-4.2292-0.17839-2.6471-1.5235-4.7374-3.4988-5.437-0.92453-0.32748-1.7161-0.39971-5.3375-0.48705-5.5635-0.13419-7.0529-0.5218-8.762-2.2804-2.7126-2.7911-3.4775-8.3435-1.7073-12.394 1.7014-3.8932 4.3847-6.4236 8.3463-7.8708 1.422-0.51947 4.4292-0.77417 5.8965-0.49942 0.79092 0.1481 0.85459 0.20562 1.007 0.90982 0.47698 2.2044 0.97508 4.1136 1.3956 5.3493 0.25922 0.76176 0.4426 1.4077 0.40751 1.4355-0.0351 0.0278-0.34341 0.18621-0.68517 0.35213l-0.62138 0.30165-0.46524-1.052c-0.25587-0.5786-0.46524-1.1156-0.46524-1.1934 0-0.29272-0.77541-1.88-0.98024-2.0066-0.11747-0.0726-0.73158-0.24321-1.3647-0.37914-3.1819-0.68315-6.225 0.1485-8.3617 2.2852-1.2768 1.2768-1.7658 2.4048-1.7658 4.0728 0 1.8095 0.96618 3.8068 2.2219 4.5932 1.5358 0.96179 2.3204 1.1008 7.1534 1.2671 5.9425 0.20457 7.4395 0.59648 9.1606 2.3982 1.083 1.1338 1.3724 1.605 1.9055 3.103 0.58279 1.6377 0.62913 5.7021 0.0848 7.4373-1.8668 5.9509-6.4512 9.609-13.629 10.875-2.2862 0.40323-2.1735 0.3993-3.7795 0.13175zm-107.62-25.943c-2.9001-0.50098-6.1824-1.8438-8.6929-3.5565-1.4273-0.9737-4.0969-3.6791-5.0363-5.1038-0.48881-0.74135-1.0296-1.5605-1.2016-1.8204-0.55249-0.83421-1.8388-4.2048-2.1996-5.7638-0.48282-2.0862-0.5782-6.9375 0.01-9.2598s2.3392-6.3828 3.4176-7.5832c0.10529-0.11718 0.31899-0.39952 0.47489-0.6274 1.1158-1.631 4.0179-4.2062 6.0691-5.3855 1.32-0.75895 3.5274-1.6749 5.0805-2.1081 6.1891-1.7263 12.98-0.48954 18.082 3.293 4.4109 3.2705 7.0037 7.32 8.3096 12.978 0.46214 2.0023 0.45938 6.1642-6e-3 8.315-0.71911 3.327-2.3746 6.8061-4.3608 9.1645-1.057 1.2551-3.4553 3.498-4.2443 3.9693-0.83381 0.52324-1.6945 1.0577-2.5297 1.4878-0.0218-0.0388-0.21669-0.32563-0.43306-0.63744-0.41018-0.89499-0.72878-1.7797-0.26673-2.5267 0.14423-0.20579 0.64774-0.77271 1.5034-1.4534 0.8105-0.50088 1.4382-1.3046 1.8982-1.9726 0.61395-0.78488 0.50396-1.9364-0.28346-2.9676-1.0139-0.99583-1.8216-0.87897-2.9713-0.43388-1.801 0.98254-3.0537 2.586-4.7481 3.5906-1.0673 0.51674-2.0474 0.18021-2.775-0.38942-0.18141-0.22509-0.35699-0.36827-0.62083-0.33071-0.33581 0.0478-0.35291 0.36792-0.35095 0.6234 0.16244 0.56366 0.37985 0.72956 1.2277 1.4022 0.65009 0.33435 0.99648 0.39696 1.6562 0.29933 0.63973-0.11712 1.2117-0.40962 1.7406-0.72936 1.716-0.94718 2.9451-2.4227 4.6741-3.3935 1.6344-0.38964 2.0845 1.3309 0.60924 2.329-1.016 0.86131-2.1921 1.872-2.9064 2.874-0.23534 0.36293-0.29007 1.6095-0.1157 2.202 0.16611 0.47403 0.35273 0.9884 0.51911 1.4034 0.34749 0.71978 0.10593 0.9144-1.8915 1.524-2.8932 0.88293-6.6147 1.1098-9.6378 0.58761zm1.8963-3.969c0.57093-0.53527-0.32751-1.4649-0.898-2.1402-0.28847-0.36433-2.1068-2.9781-4.0499-5.4377-0.50431-0.63836-0.91692-1.237-0.91692-1.3304 0-0.0934 1.017-0.93172 2.26-1.863 1.243-0.93124 2.3033-1.7995 2.3563-1.9294 0.16643-0.40828-0.10415-0.80315-0.55034-0.80315-1.954 0.81153-3.3708 2.1087-5.1219 3.2086-0.54807-0.44273-0.82146-0.92136-1.2466-1.5222 0.82161-0.96213 1.58-2.179 1.7476-3.1814-0.0414-2.3813-1.3893-4.367-2.9312-5.7922-0.48657-0.36686-1.1201-0.56894-1.2002 0.11958-0.0439 0.37728 0.18105 0.72165 1.0061 1.5401 1.2587 1.1347 1.8338 2.8122 1.6931 4.3325-0.15255 0.50123-0.98562 1.6737-1.1877 1.6716-0.0727-7.6e-4 -1.2369-1.4464-2.5872-3.2126-2.3688-3.0982-2.8241-3.5126-3.2688-2.975-0.38824 0.46944 0.0252 1.2307 2.2307 4.1071 2.091 2.7271 2.223 2.9487 1.9414 3.2598-0.91852 0.68888-2.1604 0.56735-3.138 0.4359-1.045-0.59808-1.8085-1.4877-2.4731-2.3226-0.9443-1.2851-1.5148-1.5245-1.6722-0.70148-0.0712 0.3724 0.15874 0.80539 1.0286 1.937 1.2498 1.6259 1.6105 1.9605 2.704 2.5092 1.6847 0.68922 3.0925-0.04887 4.4764-0.67592 0.89957 0.113 1.0323 0.66119 1.6082 1.414 0 0-2.5247 2.2773-3.9488 3.5077-0.69777 0.50877-0.89192 0.85781-0.46151 1.3366 0.4304 0.47883 0.83731 0.35346 1.4223-0.27936 1.2024-1.182 2.3956-2.0493 3.7353-3.0811 0.19876-0.1564 2.6961 2.9002 5.236 6.4087 0.78605 1.1032 1.6353 1.9944 2.2062 1.4592zm7.7324-6.9124c1.7503-1.3071 2.8948-2.5469 1.9187-4.0551-0.97614-1.5082-2.458-1.4067-4.5383 0.29681-2.0803 1.7035-2.3583 3.194-1.5804 4.312 0.77792 1.118 2.4498 0.75338 4.2-0.55374zm-3.3702-0.32387c-0.8511-0.8643 0.25549-1.6887 1.3623-2.5476 1.1068-0.85891 2.2965-1.5977 2.9664-0.79044 0.66982 0.80725 0.23786 1.1805-1.571 2.5776-1.8088 1.3971-1.9066 1.6247-2.7577 0.7604zm-3.9908 0.0044c3.2473-2.9242 4.9781-6.0367 8.3182-7.0563 0.0838 0.11957 0.0868 0.11659 0.28684 0.34542 0.24199 0.242 0.57089 0.18439 0.80796 0.02793 0.17083-0.11274-0.0597-0.68828-0.0597-0.68828s0.21632-0.04393 0.38322-0.2284c0.2826-0.31227 0.47236-1.191-0.5377-1.0431-0.12884 0.03846-0.2133 0.05372-0.2133 0.05372-1.5137-3.0292-3.4576-6.3175-5.3106-8.8327-2.6606-3.4849-2.566-3.3217-1.9741-3.406 0.9119-0.12983 1.1401 0.049 2.8204 2.2108 3.6762 4.0704 5.4602 9.1208 9.463 11.945 0.39095 0.24997 0.9295 0.36275 1.1497 0.0975 0.15688-0.18904 0.0576-0.45798-0.40879-1.1074-2.6292-2.8583-5.3746-5.7788-7.5469-9.2748-0.26673-0.70154-3.5666-4.9252-4.0501-5.184-0.59204-0.31686-2.4707-0.14577-2.9262 0.26648-1.0407 0.51748-1.5396-0.189-2.4223-0.50963-0.75497 0.25676 0.36437 1.8268 1.5486 2.1721 0.74586 0.21748 1.0123 0.48362 2.7334 2.7306 2.0531 3.2593 4.2847 6.2846 5.6084 9.2772-1.2047 0.5104-2.5093 1.2661-3.5468 1.9437-0.94864 0.68126-0.84955 0.58893-1.8267-0.73061-0.2081-0.28101-0.43272-0.39311-0.63341-0.31609-0.53841 0.2066-0.55964 0.68723-0.0621 1.4052 0.26278 0.37919 0.47778 0.75224 0.47778 0.82899-1.0141 1.2646-2.0513 2.7196-2.9064 4.0732-0.28985 0.3367-0.55201 1.2859-0.38873 1.5501 0.71806 0.19683 0.79726-0.15847 1.2164-0.5506zm0.83039-6.0231c-0.72024-3.1964-1.8757-6.2904-3.6758-8.6106-1.2027-1.5424-1.3823-1.6773-0.85287-2.3828 0.27753-0.50894 0.85617-1.0066 1.1373-1.4489 2.5129 2.6385 3.676 5.2654 5.4713 8.1845 0.47001 0.4859 1.2979-0.29359 0.86537-0.81477-2.2763-4.5022-4.9829-7.9489-8.1892-11.254-0.6111-0.86357-1.3041-0.97181-1.4108-0.22036 0.23098 1.0844 1.5053 1.9215 2.1299 2.5557 0.57118 1.0173-0.31327 1.3592-0.86698 2.2836-0.32563 0.32325-0.53597 0.12983-1.5803-1.2535-1.7479-2.0406-3.2106-2.3992-5.1456-1.0558-2.2826 1.847-3.2614-0.79259-0.97554-2.1227 1.1363-1.1872 3.9277-3.3014 4.562-3.4552 0.58457-0.14174 0.7-0.67879 0.22978-1.069-0.21611-0.17936-0.3965-0.18877-0.70866-0.037-2.2622 1.6302-5.5412 3.5575-6.369 5.8913-0.18685 0.69394-0.16522 0.90952 0.16092 1.6033 1.4292 2.0289 2.7082 0.01407 5.2128-0.58123 1.7423 0.58116 2.3118 1.856 3.3167 3.0636-0.48162 0.49001-1.3841 0.73257-1.9842 1.0259-0.45033 0.20762-0.39883 0.20016-1.2284-0.94488-0.48698-0.67222-0.96196-1.1339-1.1666-1.1339-0.58771 0-0.39703 0.69693 0.50508 1.846 2.3939 3.3141 3.214 7.1365 4.7934 10.437 0.0445 0.08393 0.35286-0.14882 0.57303-0.33071 0.37358-0.30862 0.38129-0.36686 0.11543-0.872-0.9207-2.7124-1.8372-5.1074-2.8094-7.5304 0.40736-1.2185 1.6431-1.0855 2.0368-1.1752 2.385 2.9533 3.5006 6.0645 4.6452 9.2646 0 0.47005 0.60377 1.2313 0.92499 1.1663 0.23434-0.0474 0.2988-0.28167 0.28335-1.0297zm17.689-2.9184c-0.73934-3.6776-2.9039-6.8575-4.4325-9.6775-0.23203-0.3062-0.19692-0.45064 0.29862-1.2284 0.67401-1.0578 0.68357-1.9551 0.0348-3.2667-0.66674-1.3479-2.2096-2.3249-2.6208-1.6596-0.17923 0.29 0.23742 0.99963 0.71467 1.2172 1.1845 0.94698 1.0609 2.0958 0.52345 3.2755-0.75608-0.3629-1.2143-0.9987-2.1228-2.0016 0 0-0.41665-0.49137-0.81441-1.3923 0.73145-0.77641 0.85765-1.4632 0.85982-2.1977 0-0.85054-0.10295-1.2206-0.49814-1.7909-1.1679-1.1963-2.0641-1.0373-3.3306-0.71882-1.1178 0.62245-2.1448 1.7343-2.8122 2.6861-0.22151 0.43646-0.3563 1.4348-0.10143 2.0321 0.42836 1.0038 0.91634 1.5126 1.6663 1.7372 0.91181 0.27219 1.5458-0.14985 2.3219-0.51543 0.42232-0.13336 0.37441-0.23265 1.1474 0.40072 0.93378 0.76157 1.6559 1.869 2.2739 2.7211-0.0562 0.091-0.42097 0.21923-0.81057 0.28505-0.90383 0.15271-1.6919-0.23289-2.2904-1.1207-0.57523-0.85327-1.1567-0.89951-1.1567-0.092 0 0.72491 0.98116 2.059 1.8392 2.5008 1.3173 0.45157 2.2668 0.25644 3.2682-0.241 2.3536 2.9279 3.8922 5.8795 4.7195 9.42 0 0.088 0.19134 0.24966 0.4252 0.35913 0.47455 0.22214 0.89764-0.12289 0.89764-0.73202zm-12.937-16.097c0.58861-1.0399 1.7016-1.7873 2.6035-2.2931 0.46684-0.21211 1.0851 0.09677 1.2922 0.72926 0.19518 0.80951 0.23336 1.1902-0.16969 1.5649-0.77539 0.76589-1.8569 1.5636-2.8673 1.9464-1.0595-0.0812-1.2836-1.2707-0.85879-1.9475zm-101.39 18.254c-0.35915-0.24598-0.68425-0.47847-0.72244-0.51666-0.03819-0.0382 0.01695-0.38228 0.12253-0.76466 0.24311-0.88047 0.0589-1.3741-0.90161-2.4162-0.41122-0.44611-2.5811-3.1468-4.8219-6.0014-2.2408-2.8547-4.6543-5.9132-5.3633-6.7966-3.0882-3.8483-7.209-9.2703-7.9711-10.488-1.0393-1.6607-2.0448-2.7412-2.5464-2.7366-0.7364 7e-3 -2.0954 1.0813-3.8829 3.0698-0.9874 1.0985-1.8603 2.0044-1.9397 2.0131-0.20312 0.0223-1.2607-1.1675-1.2674-1.4258-0.0072-0.27552 8.287-7.869 9.8974-9.2157 2.1369-1.7869 8.9996-7.542 9.6312-7.7844 0.16095-0.0618 0.36155 0.19581 0.56271 0.72253 0.17192 0.45018 0.31259 0.87365 0.31259 0.94105s-0.70943 0.63468-1.5765 1.2606c-2.1864 1.5784-2.9589 2.4666-2.9589 3.402 5.4651 9.8413 10.587 19.14 16.217 29.551 2.6234-1.6452 3.9178-2.7789 6.996-5.0023 1.7554-1.2664 2.6465-2.1357 2.7947-2.7263 0.06409-0.25536 0.06859-0.90682 0.01-1.4477-0.11264-1.0398-0.74349-3.9762-0.96998-4.5149-0.10234-0.24341 0.04675-0.41111 0.62999-0.70866 1.1592-0.59136 0.95556-0.88646 1.9477 2.8228 0.2085 0.77953 0.71118 2.4597 1.1171 3.7337 0.40589 1.274 0.73798 2.435 0.73798 2.58 0 0.145-0.44646 0.5565-0.99213 0.91444-5.2861 3.2612-11.213 6.8186-14.053 11.401l-0.35611 0.58163zm19.904-14.653c-0.08358-0.44174-0.15484-0.8663-0.15834-0.94347-0.0035-0.0772 0.418-0.418 0.93667-0.75739 1.34-0.87679 1.5338-1.3747 1.2679-3.2566-1.5029-8.6338-3.458-17.866-5.2478-27.31-1.0155-5.3711-1.1449-5.5265-3.9553-4.7493-2.7127 0.75015-3.1164 0.84555-3.2045 0.75746-0.0478-0.0478-0.11171-0.44843-0.14201-0.89028l-0.0551-0.80337c9.1075-3.251 18.15-6.3328 27.402-8.3944 0.8315-0.17792 1.9787-0.43387 2.5492-0.56878 1.6369-0.38703 1.7005-0.30084 1.7147 2.3246-0.0041 2.1842 0.25142 4.3789 0.17544 6.5277-0.07765 0.086-0.44318 0.22453-0.81228 0.30778-0.61304 0.13826-0.68758 0.10838-0.86168-0.3454-0.4159-1.5784-0.83274-3.2181-1.5321-4.6498-0.41764-0.37795-1.2396-0.30956-5.5798 0.46427-3.8359 0.68392-7.8201 1.7998-8.3383 2.3354-0.14883 0.15383-0.16329 0.61508-0.04833 1.5423 0.27354 2.2063 0.70776 6.0509 1.084 9.5978 0.19612 1.8489 0.39269 3.3977 0.43683 3.4419 3.1308-0.76934 7.3517-1.9752 10.942-3.105 2.1712-0.68439 2.3269-0.57591 2.135 1.4881l-0.11916 1.2822c-4.2606 1.2548-8.8415 2.3392-12.466 3.7631 0.8087 5.0455 1.49 9.556 2.4077 14.855 0.17584 1.145 0.33089 1.1173 7.9171-1.4098 2.1732-0.72398 4.2758-1.5211 4.6724-1.7715 1.2183-0.76909 1.35-1.1283 1.4944-4.0773 0.07106-1.4515 0.21563-2.7255 0.32125-2.8311 0.10562-0.10563 0.52945-0.2373 0.94184-0.29261l0.7498-0.10057 0.12164 2.147c0.0669 1.1808 0.1777 3.3973 0.24621 4.9256l0.12458 2.7786-0.45344 0.18607c-7.5116 2.1776-15.421 4.6256-22.489 7.4093-1.036 0.50943-1.9157 0.92624-1.9549 0.92624-0.03915 0-0.13957-0.36142-0.22315-0.80315zm167.5-6.3914c-14.079-2.5042-17.052-14.445-11.646-25.688 3.9175-7.847 12.025-12.957 21.094-13.295 6.445-0.24007 11.875 1.5367 17.332 5.6716 1.4418 1.0924 1.6964 1.503 1.2328 1.9889-1.9809 2.3957-3.5938 5.1122-5.2064 7.7143-0.22235 0-1.659-0.45614-1.7915-0.56881 0.61578-1.602 1.2008-3.397 1.7531-5.2609 0.0183-1.7033-3.7552-4.3519-8.6902-6.0995-7.2256-2.1001-15.338 4.2663-18.331 11.178-0.82341 2.5258-1.7151 5.2542-2.0765 7.9322-0.9822 7.7536 1.5893 11.754 8.5607 13.318 2.4195 0.54264 6.2869 0.30555 9.2954-0.56985 0.51969-0.15122 1.3488-0.3291 1.8425-0.39529 0.84027-0.11266 0.89764-0.0932 0.89764 0.30431 0 0.23356-0.33511 0.82491-0.7447 1.3141-0.58307 0.6964-0.94197 0.93991-1.6535 1.1219-0.49986 0.12783-1.4191 0.36216-2.0427 0.52073-3.2288 0.82101-7.3108 1.1591-9.8268 0.81399zm-137.61-2.2133c-0.05717-0.0572-0.10395-0.55421-0.10395-1.1045v-1.0006l0.80315-0.20669c1.9036-0.48988 2.6232-0.80381 2.9363-1.281 0.42902-0.65391 0.47638-4.3204 0.27021-20.921-0.12356-9.9484-0.21152-12.772-0.4105-13.176-0.39198-0.7959-1.224-0.98001-3.3148-0.73344-2.573 0.30345-2.3919 0.36449-2.3258-0.78383l0.05712-0.99213 0.7559-0.11763c5.4679-0.73044 12.351-1.8448 17.528-2.9085 0.29285-0.11727 0.33071-3e-3 0.33071 0.9973v1.1297l-0.99212 0.12952c-1.501 0.19595-3.0267 0.67147-3.4447 1.0736-0.32367 0.31138-0.39164 0.72094-0.50636 3.0514-0.26705 5.4249-0.41091 14.503-0.22982 14.503 3.5154-3.4026 6.2396-6.9978 9.1415-10.455 4.0171-4.7853 5.5053-6.6696 6.8089-8.6214 0.46963-0.70313 0.56115-1.0288 0.56115-1.9972v-1.157l3.1654-0.22498c1.741-0.12374 3.8768-0.31356 4.7464-0.42182s1.6023-0.17129 1.6284-0.14006c0.0261 0.0312 0.0908 0.46071 0.1438 0.95442l0.0964 0.89763h-0.89791c-1.0467 0-2.1878 0.36554-3.063 0.98126-5.5968 5.2834-10.566 11.212-15.429 16.824-0.29537 0.37798-0.22047 0.49121 1.8404 2.7824 5.5558 6.1764 10.842 12.102 11.454 12.84 1.1302 1.3618 2.2227 2.2816 2.8136 2.369 0.32338 0.0478 1.0557 0.15575 1.6273 0.23987l1.0394 0.15296v1.8898l-2.5945 0.12942c-1.427 0.0712-3.6732 0.3093-4.9916 0.52917-1.9604 0.3269-2.4376 0.35497-2.6189 0.15404-0.12194-0.13513-0.7659-0.92602-1.431-1.7575-1.6958-2.12-9.7441-11.162-11.258-12.648-1.7452-1.7129-2.7351-2.6047-2.8092-2.5307-0.043 0.043-0.0901 3.4839-0.10475 7.6466-0.0232 6.5985 0.0121 7.6433 0.2753 8.1523 0.16606 0.32113 0.40883 0.65064 0.53949 0.73224s1.1517 0.12558 2.2691 0.0977l2.0315-0.0507v1.0331c0 1.1921 0.0854 1.1467-2.5512 1.3554-0.8315 0.0658-2.7024 0.33046-4.1575 0.58814-3.8134 0.67528-4.5946 0.84535-8.8252 1.9214-0.38456 0.0978-0.74598 0.13106-0.80315 0.0739zm118.67-3.3571c-5.3175-0.98281-9.5339-1.296-14.268-1.6312v-0.91676c0-0.50422 0.0825-0.96778 0.18344-1.0301 0.10087-0.0624 1.0012-0.13116 2.0007-0.15289 1.7347-0.0377 1.838-0.0636 2.2732-0.56974 1.1327-3.5992 0.59263-7.7512 0.21587-12.729-4.2678-0.52042-8.8818-0.82226-12.415-1.0149-2.6404 4.124-6.4423 10.07-6.5707 11.411-0.0843 0.74813-0.0409 0.87554 0.39666 1.1622 0.27025 0.17708 1.2592 0.42754 2.1978 0.55658 0.9385 0.12904 1.7522 0.28044 1.8082 0.33645 0.056 0.056 0.0426 0.54863-0.0299 1.0947l-0.13171 0.99288c-4.4032-0.46415-9.0771-0.61984-12.795-0.61881v-0.44424c0-0.24433 0.0908-0.70487 0.2019-1.0234 0.18082-0.51871 0.30412-0.59206 1.1811-0.70269 2.0292-0.25597 2.673-0.72206 4.2863-3.1031 7.6743-10.848 14.851-21.558 21.543-31.006 1.0468-1.5403 1.3889-1.9091 1.6706-1.801 1.6876 0.28257 3.1051 0.36481 4.8794 0.58037 0.32414 7.693 1.6622 33.782 1.984 37.437 0.3888 0.41386 1.0229 0.69143 2.7574 1.2071 0.85073 0.25292 0.88363 0.32762 0.68186 1.5484-0.13245 0.80124-0.0991 0.79448-2.0519 0.41614zm-10.205-34.867c-4.0057 5.3836-7.1711 9.8321-10.11 14.276 4.0729 0.55843 7.2933 0.93838 10.82 1.0414-0.16899-5.6584-0.36619-9.9807-0.70951-15.317zm-69.002 32.422c-0.0613-0.15974-0.0542-0.67206 0.0157-1.1385 0.12399-0.82687 0.14461-0.84824 0.82426-0.85481 0.38339-4e-3 1.2073-0.12795 1.8309-0.27612 1.4764-0.35077 1.8952-0.86051 2.1656-2.6357 1.7621-10.613 2.7314-21.123 3.1414-32.526-0.23592-0.32311-0.55229-0.37431-2.655-0.42968l-2.3872-0.0628 0.0566-0.97652 0.0566-0.97651 1.6063-0.13109c0.88347-0.0721 4.4976-0.23389 8.0315-0.35953 3.5339-0.12565 7.0957-0.26483 7.9153-0.3093l1.4901-0.0809-0.0926 0.96423c-0.051 0.53032-0.12744 0.99901-0.16996 1.0415-0.0425 0.0425-0.95603 0.15688-2.03 0.25413-5.0331 1.8837-4.1498 0.73968-5.2937 15.054 5.9527 0.04209 10.487-0.07784 16.884-0.18125l0.14427-0.7559c0.33751-4.5321 2.4834-9.0073 1.5992-13.651-0.36245-0.36245-1.6725-0.5909-3.4743-0.60583-0.7474-6e-3 -1.3992-0.0764-1.4484-0.15612-0.0492-0.0797 3e-3 -0.54738 0.11517-1.0394l0.20469-0.89452 2.0942-2e-3c2.1575-2e-3 16.611 0.39826 16.689 0.46253 0.0239 0.0198-0.0208 0.41333-0.0992 0.87449l-0.14259 0.83847-2.0145 0.18898c-1.5682 0.14711-2.1358 0.2792-2.5619 0.59629-0.60748 0.45202-1.1999 1.898-1.5364 3.7502-1.6563 9.2246-3.7175 18.151-5.3206 27.173-0.38682 2.1837-0.38764 2.2397-0.0414 2.8346 0.39391 0.67696 0.72873 0.78527 3.1692 1.0252l1.5118 0.14864-0.0326 0.92077c-0.0179 0.50642-0.10295 0.98693-0.18897 1.0678-0.086 0.0809-1.3895 0.0639-2.8966-0.0377-3.7612-0.25357-6.8472-0.27885-10.913-0.0894l-3.4488 0.16069 3e-3 -0.63313c2e-3 -0.34822 0.11002-0.84572 0.2411-1.1056 0.21816-0.43248 0.37378-0.48177 1.8397-0.58277 0.88078-0.0607 1.7892-0.22772 2.0187-0.3712 2.2933-6.8369 2.6588-10.067 3.6741-15.928 0.10538-0.60644 0.15866-1.1356 0.1184-1.1758-5.8808-0.01577-10.36 0.09578-16.682 0.19966-0.6989 6.3766-1.3395 9.531-1.5119 16.899 0.39601 0.39151 2.17 0.76666 3.6378 0.76927 0.87861 2e-3 0.90099 0.046 0.68421 1.357l-0.11477 0.69413-4.5603 0.0802c-3.9625 0.0697-10.303 0.5098-11.604 0.80544-0.27976 0.0636-0.46818-4e-3 -0.5408-0.19283z" fill="#00006e"/>
</svg>
