<?xml version="1.0" encoding="UTF-8" standalone="no"?>
<!-- Created with Inkscape (http://www.inkscape.org/) -->

<svg
   xmlns:dc="http://purl.org/dc/elements/1.1/"
   xmlns:cc="http://creativecommons.org/ns#"
   xmlns:rdf="http://www.w3.org/1999/02/22-rdf-syntax-ns#"
   xmlns:svg="http://www.w3.org/2000/svg"
   xmlns="http://www.w3.org/2000/svg"
   xmlns:sodipodi="http://sodipodi.sourceforge.net/DTD/sodipodi-0.dtd"
   xmlns:inkscape="http://www.inkscape.org/namespaces/inkscape"
   version="1.1"
   id="svg6198"
   width="63.686474"
   height="46.222656"
   viewBox="0 0 63.686474 46.222656"
   sodipodi:docname="bonprix_logo-master.svg"
   inkscape:version="0.92.1 r">
  <metadata
     id="metadata6204">
    <rdf:RDF>
      <cc:Work
         rdf:about="">
        <dc:format>image/svg+xml</dc:format>
        <dc:type
           rdf:resource="http://purl.org/dc/dcmitype/StillImage" />
        <dc:title></dc:title>
      </cc:Work>
    </rdf:RDF>
  </metadata>
  <defs
     id="defs6202" />
  <sodipodi:namedview
     pagecolor="#ffffff"
     bordercolor="#666666"
     borderopacity="1"
     objecttolerance="10"
     gridtolerance="10"
     guidetolerance="10"
     inkscape:pageopacity="0"
     inkscape:pageshadow="2"
     inkscape:window-width="1280"
     inkscape:window-height="1024"
     id="namedview6200"
     showgrid="false"
     inkscape:zoom="4.76792"
     inkscape:cx="41.039097"
     inkscape:cy="30.402141"
     inkscape:window-x="0"
     inkscape:window-y="0"
     inkscape:window-maximized="0"
     inkscape:current-layer="svg6198" />
  <g
     id="g10212"
     style="fill:#d21929;fill-opacity:1"
     transform="translate(-0.03588851,-1.9375)">
    <path
       style="fill:#d21929;fill-opacity:1"
       d="M 11.478516,1.9375 4,2 4.0111587,23.263322 c 1.1879842,1.018411 2.4361069,1.529647 2.4361069,1.529647 C 26.555978,30.580927 28.683978,3.9498952 11.394531,6.8652344 Z m 1.058593,10.634766 c 5.25334,0.224736 5.30127,7.823315 -1.205078,7.496093 l 0.08594,-7.439453 c 0.396093,-0.05511 0.768918,-0.07162 1.11914,-0.05664 z"
       id="path10184"
       inkscape:connector-curvature="0"
       sodipodi:nodetypes="cccccccccc" />
    <path
       id="path10182"
       d="m 19.962051,26.236938 5.239491,-0.0354 c 7.908605,-0.431209 10.34945,2.480088 9.641157,9.839042 l -6.488725,0.01185 c 0,0 0.612532,-4.049238 -1.946273,-4.557086 l -0.065,13.742479 -6.331426,0.05244 c 0,0 -0.08806,-13.789713 -0.04922,-19.053327 z"
       style="fill:#d21929;fill-opacity:1"
       inkscape:connector-curvature="0" />
    <path
       style="fill:#d21929;fill-opacity:1"
       d="m 0.10546875,26.576172 c 0,0 -0.11083473,14.163741 -0.05273438,21.533203 L 6.8554688,48.160156 6.9375,43.90625 c 17.617755,2.062876 13.969033,-17.055543 3.339844,-17.195312 z m 8.06054685,5.71289 c 2.3746864,-0.02703 4.0009874,0.414158 4.0078124,3.548829 0.0095,4.367521 -5.1035155,3.300781 -5.1035155,3.300781 l 0.035156,-6.816406 c 0.3672433,-0.01649 0.7213059,-0.02934 1.0605468,-0.0332 z"
       id="path10180"
       inkscape:connector-curvature="0" />
    <path
       id="path10178"
       d="M 36.203448,29.47046 C 39.192173,32.144582 42.08241,29.421 42.08241,29.421 l -0.204521,15.851657 -5.843597,-0.0347 z"
       style="fill:#d21929;fill-opacity:1"
       inkscape:connector-curvature="0" />
    <path
       style="fill:#d21929;fill-opacity:1"
       d="m 27.650105,8.24053 c -8.584109,7.210956 -0.874769,18.352604 7.029583,17.275095 0.781682,-5.830507 6.717103,-4.303035 7.009765,-2.978516 C 50.545859,12.234275 36.234214,1.0295743 27.650105,8.24053 Z m 6.281866,4.478418 c 3.379427,0.100339 4.305515,3.309334 2.876954,5.337891 -1.428561,2.028557 -4.176604,1.452054 -5.396485,0.150391 -1.219882,-1.301664 -1.009551,-5.593064 2.519531,-5.488282 z"
       id="path10176"
       inkscape:connector-curvature="0"
       sodipodi:nodetypes="zcczssss" />
    <path
       id="path10174"
       d="m 56.998028,6.8000447 c 8.501319,2.197815 7.543398,12.0818743 4.698553,18.3383853 L 55.838257,25 C 56.990549,22.079763 57.17208,15.686396 56.354669,13.655394 55.209237,12.01862 53.832942,11.66483 51.947566,12.288478 l 0.07445,12.840229 -7.280494,-0.03708 0.08399,-18.2810798 z"
       style="fill:#d21929;fill-opacity:1"
       inkscape:connector-curvature="0" />
    <path
       id="path10172"
       d="m 42.896167,45.169492 c 0.709578,-3.464602 2.65787,-6.923509 5.026497,-9.295651 -2.339171,-2.829374 -4.234588,-5.226992 -5.237267,-9.23715 l 6.711615,-0.07862 c 0.40829,1.773656 2.636304,4.515199 2.636304,4.515199 0,0 1.531524,-1.409338 2.77527,-4.319512 l 3.399192,0.02951 3.399191,0.02951 c -1.000462,3.734692 -4.773694,8.48311 -5.674785,9.001841 0.873505,0.602257 5.155018,6.100441 5.34219,9.584745 l -6.574873,-0.01801 c 0,0 -0.544445,-3.139831 -2.657792,-4.326271 -1.631356,1.149364 -2.60507,4.205318 -2.60507,4.205318 z"
       style="fill:#d21929;fill-opacity:1"
       inkscape:connector-curvature="0" />
  </g>
  <g
     inkscape:groupmode="layer"
     id="layer2"
     inkscape:label="hidden"
     transform="translate(-7.5994478,37.511653)" />
</svg>
