<svg width="63.686" height="46.223" version="1.1" viewBox="0 0 63.686 46.223" xmlns="http://www.w3.org/2000/svg">
 <g transform="translate(-.035889 -1.9375)" fill="#d21929">
  <path d="m11.479 1.9375-7.4785 0.0625 0.011159 21.263c1.188 1.0184 2.4361 1.5296 2.4361 1.5296 20.109 5.788 22.237-20.843 4.9473-17.928zm1.0586 10.635c5.2533 0.22474 5.3013 7.8233-1.2051 7.4961l0.08594-7.4395c0.39609-0.05511 0.76892-0.07162 1.1191-0.05664z"/>
  <path d="m19.962 26.237 5.2395-0.0354c7.9086-0.43121 10.349 2.4801 9.6412 9.839l-6.4887 0.01185s0.61253-4.0492-1.9463-4.5571l-0.065 13.742-6.3314 0.05244s-0.08806-13.79-0.04922-19.053z"/>
  <path d="m0.10547 26.576s-0.11083 14.164-0.052734 21.533l6.8027 0.050781 0.082031-4.2539c17.618 2.0629 13.969-17.056 3.3398-17.195zm8.0605 5.7129c2.3747-0.02703 4.001 0.41416 4.0078 3.5488 0.0095 4.3675-5.1035 3.3008-5.1035 3.3008l0.035156-6.8164c0.36724-0.01649 0.72131-0.02934 1.0605-0.0332z"/>
  <path d="m36.203 29.47c2.9887 2.6741 5.879-0.04946 5.879-0.04946l-0.20452 15.852-5.8436-0.0347z"/>
  <path d="m27.65 8.2405c-8.5841 7.211-0.87477 18.353 7.0296 17.275 0.78168-5.8305 6.7171-4.303 7.0098-2.9785 8.8564-10.303-5.4552-21.508-14.039-14.297zm6.2819 4.4784c3.3794 0.10034 4.3055 3.3093 2.877 5.3379s-4.1766 1.4521-5.3965 0.15039c-1.2199-1.3017-1.0096-5.5931 2.5195-5.4883z"/>
  <path d="m56.998 6.8c8.5013 2.1978 7.5434 12.082 4.6986 18.338l-5.8583-0.13843c1.1523-2.9202 1.3338-9.3136 0.51641-11.345-1.1454-1.6368-2.5217-1.9906-4.4071-1.3669l0.07445 12.84-7.2805-0.03708 0.08399-18.281z"/>
  <path d="m42.896 45.169c0.70958-3.4646 2.6579-6.9235 5.0265-9.2957-2.3392-2.8294-4.2346-5.227-5.2373-9.2372l6.7116-0.07862c0.40829 1.7737 2.6363 4.5152 2.6363 4.5152s1.5315-1.4093 2.7753-4.3195l6.7984 0.05902c-1.0005 3.7347-4.7737 8.4831-5.6748 9.0018 0.8735 0.60226 5.155 6.1004 5.3422 9.5847l-6.5749-0.01801s-0.54444-3.1398-2.6578-4.3263c-1.6314 1.1494-2.6051 4.2053-2.6051 4.2053z"/>
 </g>
</svg>
