<svg width="158.3" height="67.645" version="1.1" viewBox="0 0 158.3 67.645" xmlns="http://www.w3.org/2000/svg">
 <path d="m20.685 56.555c-3.7697-1.394-7.2526-4.5138-9.1832-8.2258-3.3645-11.104-1.8196-28.35 9.1329-35.143 7.6628-4.4734 18.827-4.2025 24.939 0.60504l2.6494 2.0841 1.8905-2.3374c1.8079-2.2353 2.5552-2.3516 17.108-2.6615l15.218-0.32401-0.5873 2.824c-0.32301 1.5532-0.3395 2.252-0.03664 1.553 1.3914-3.2117 6.1593-4.229 19.82-4.229 12.806 0 13.55 0.10799 13.55 1.9663 0 1.9428 0.0387 1.9435 3.25 0.05949 6.983-4.0969 19.445-3.4313 24.595 1.3137 4.0486 3.7302 5.3092 6.7956 5.2654 15.187-0.0438 8.3914-1.3476 11.599-3.9373 17.798-5.8689 14.05-29.075 14.339-35.768 1.4748-1.7663-3.3948-1.8066-17.934-0.0631-22.8l1.254-3.5-4.6978 0.33976c-5.3868 0.38959-4.8268-1.1626-6.9133 19.16-1.63 15.876-1.2299 15-6.8488 15-3.5623 0-5.3018-0.52576-6.6431-2.0079-1.6879-1.8651-1.7314-2.8077-0.61224-13.25 0.6627-6.1831 1.4682-12.93 1.79-14.992l0.58506-3.75h-11.878l-3.6967 34h-5.3174c-4.4899 0-5.5589-0.36864-6.8695-2.3689-1.4002-2.137-1.4025-3.5778-0.02305-14.72 2.2044-17.806 2.3553-16.911-2.8516-16.911h-4.3807l-0.41164 9.25c-0.51695 11.616-3.7273 18.435-10.566 22.443-4.9623 2.9081-14.824 3.9869-19.761 2.1616zm13.713-13.926c2.3018-3.0975 3.7119-12.279 2.5654-16.703-0.84865-3.2751-4.1622-5.0593-7.218-3.8866-5.4201 2.0799-8.02 19.787-3.3529 22.835 2.2552 1.4733 6.0287 0.41488 8.0056-2.2454zm97 0c2.3018-3.0975 3.7119-12.279 2.5654-16.703-0.84865-3.2751-4.1622-5.0593-7.218-3.8866-5.4201 2.0799-8.02 19.787-3.3529 22.835 2.2552 1.4733 6.0287 0.41488 8.0056-2.2454z" fill="#d4021d"/>
</svg>
