<?xml version="1.0" encoding="UTF-8" standalone="no"?>
<!-- Created with Inkscape (http://www.inkscape.org/) -->

<svg
   xmlns:dc="http://purl.org/dc/elements/1.1/"
   xmlns:cc="http://creativecommons.org/ns#"
   xmlns:rdf="http://www.w3.org/1999/02/22-rdf-syntax-ns#"
   xmlns:svg="http://www.w3.org/2000/svg"
   xmlns="http://www.w3.org/2000/svg"
   xmlns:sodipodi="http://sodipodi.sourceforge.net/DTD/sodipodi-0.dtd"
   xmlns:inkscape="http://www.inkscape.org/namespaces/inkscape"
   version="1.1"
   id="svg10331"
   width="158.29633"
   height="67.644737"
   viewBox="0 0 158.29633 67.644737"
   sodipodi:docname="otto_logo-master.svg"
   inkscape:version="0.92.1 r">
  <metadata
     id="metadata10337">
    <rdf:RDF>
      <cc:Work
         rdf:about="">
        <dc:format>image/svg+xml</dc:format>
        <dc:type
           rdf:resource="http://purl.org/dc/dcmitype/StillImage" />
        <dc:title></dc:title>
      </cc:Work>
    </rdf:RDF>
  </metadata>
  <defs
     id="defs10335" />
  <sodipodi:namedview
     pagecolor="#ffffff"
     bordercolor="#666666"
     borderopacity="1"
     objecttolerance="10"
     gridtolerance="10"
     guidetolerance="10"
     inkscape:pageopacity="0"
     inkscape:pageshadow="2"
     inkscape:window-width="1280"
     inkscape:window-height="1024"
     id="namedview10333"
     showgrid="false"
     inkscape:zoom="2.9642857"
     inkscape:cx="96.736374"
     inkscape:cy="71.879231"
     inkscape:window-x="0"
     inkscape:window-y="0"
     inkscape:window-maximized="0"
     inkscape:current-layer="svg10331"
     fit-margin-top="10"
     fit-margin-left="10"
     fit-margin-right="10"
     fit-margin-bottom="10" />
  <path
     style="fill:#d4021d;fill-opacity:1"
     d="m 20.684972,56.554598 c -3.769685,-1.394 -7.252591,-4.513771 -9.183249,-8.225783 C 8.1371945,37.224564 9.6821022,19.97924 20.634646,13.18558 28.297493,8.7122031 39.461493,8.9830551 45.573322,13.79062 l 2.649446,2.084054 1.890472,-2.337445 c 1.807889,-2.235338 2.555233,-2.351599 17.108084,-2.661451 l 15.217611,-0.324006 -0.587297,2.824006 c -0.323014,1.553203 -0.3395,2.252037 -0.03664,1.552965 1.391417,-3.211665 6.159281,-4.22896 19.820312,-4.22896 12.80553,0 13.54966,0.107986 13.54966,1.966275 0,1.942831 0.0387,1.94354 3.25,0.05949 6.98298,-4.0969419 19.44499,-3.4313268 24.59501,1.313656 4.04859,3.730175 5.30917,6.795606 5.26538,15.187018 -0.0438,8.391412 -1.3476,11.599012 -3.93729,17.798428 -5.86894,14.049541 -29.07478,14.339178 -35.76812,1.474797 -1.76629,-3.394772 -1.80657,-17.933837 -0.0631,-22.79966 l 1.25404,-3.5 -4.69785,0.339764 c -5.386803,0.38959 -4.82675,-1.162612 -6.913252,19.160236 -1.629986,15.876311 -1.229872,15.000001 -6.848831,15.000001 -3.56233,0 -5.301767,-0.52576 -6.643122,-2.00794 -1.687882,-1.86509 -1.731439,-2.80774 -0.612242,-13.250001 0.662704,-6.183133 1.468196,-12.92956 1.789981,-14.99206 l 0.585063,-3.75 h -5.93904 -5.939041 l -1.848358,17 -1.848358,17.000001 h -5.317406 c -4.489893,0 -5.558898,-0.36864 -6.869522,-2.3689 -1.400243,-2.13704 -1.402499,-3.57782 -0.02305,-14.720145 2.204388,-17.805711 2.355266,-16.910956 -2.851609,-16.910956 h -4.38072 l -0.411642,9.25 c -0.516953,11.61637 -3.727316,18.435241 -10.566397,22.443211 -4.962305,2.9081 -14.824447,3.98692 -19.760523,2.1616 z m 13.713148,-13.9264 c 2.301775,-3.097536 3.711871,-12.278845 2.565359,-16.703378 -0.848651,-3.275054 -4.16217,-5.059261 -7.218004,-3.886628 -5.420116,2.079894 -8.019992,19.786606 -3.352921,22.835408 2.255247,1.473259 6.028716,0.414876 8.005566,-2.245402 z m 97,0 c 2.30177,-3.097536 3.71187,-12.278845 2.56536,-16.703378 -0.84865,-3.275054 -4.16217,-5.059261 -7.21801,-3.886628 -5.42011,2.079894 -8.01999,19.786606 -3.35292,22.835408 2.25525,1.473259 6.02872,0.414876 8.00557,-2.245402 z"
     id="path10946"
     inkscape:connector-curvature="0"
     sodipodi:nodetypes="sccscsscscsscszssccsssssscccccsssscsssscssscccscc" />
</svg>
