<svg width="854.33" height="1678.3" version="1.1" viewBox="0 0 854.33 1678.3" xml:space="preserve" xmlns="http://www.w3.org/2000/svg"><g transform="matrix(0 1.3333 1.3333 0 -412.03 411.35)"><g transform="matrix(0 .1 -.1 0 950.25 308.54)" fill-rule="evenodd"><path d="m5649.6 34.805h30.32v425.29h-30.32v22.144h119.25l191.17-321.63v299.48h-34.78v22.144h94.16v-22.144h-30.31v-447.44h-29.07l-251.04 422.36v-400.21h34.78v-22.152h-94.16v22.152"/><path d="m397.76 34.805h34.207v425.29h-34.207v22.144h197.76c14.383 0 29.875-2.914 45.078-8.234 15.204-5.312 30.125-13.027 43.387-22.617 14.125-11.836 25.68-25.699 33.504-41.117 7.727-15.235 11.594-32.871 11.594-50.508s-3.867-35.274-11.594-50.508c-7.824-15.418-19.379-29.281-33.504-41.113-13.262-9.59-28.183-17.309-43.387-22.621-12.363-4.321-24.906-7.063-36.898-7.93l0.172-0.309 140.31-202.47h35.562v-22.152h-111.68l-155.66 224.62h-3.652v-202.47h34.207v-22.152h-145.2zm110.99 425.28v-200.65h39.055c14.761 0.414 27.66 1.695 38.793 4.152 11.14 2.465 20.527 6.109 28.246 11.262 7.722 5.156 13.797 11.82 18.312 20.308 7.727 14.536 11.594 39.571 11.594 64.606s-3.867 50.07-11.594 64.609c-4.515 8.492-10.59 15.153-18.312 20.309-7.719 5.152-17.106 8.797-28.246 11.254-11.133 2.465-24.032 3.742-38.793 4.152h-39.055"/><path d="m4660.8 34.805h34.22v425.29h-34.22v22.144h197.78c14.38 0 29.87-2.914 45.07-8.234 15.21-5.312 30.13-13.027 43.39-22.617 14.13-11.836 25.68-25.699 33.5-41.117 7.73-15.235 11.6-32.871 11.6-50.508s-3.87-35.274-11.6-50.508c-7.82-15.418-19.37-29.281-33.5-41.113-13.26-9.59-28.18-17.309-43.39-22.621-12.36-4.321-24.9-7.063-36.9-7.93l0.18-0.309 140.31-202.47h35.55v-22.152h-111.67l-155.67 224.62h-3.65v-202.47h34.21v-22.152h-145.21zm111 425.28v-200.65h39.05c14.76 0.414 27.66 1.695 38.8 4.152 11.14 2.465 20.52 6.109 28.25 11.262 7.72 5.156 13.79 11.82 18.31 20.308 7.72 14.536 11.59 39.571 11.59 64.606s-3.87 50.07-11.59 64.609c-4.52 8.492-10.59 15.153-18.31 20.309-7.73 5.152-17.11 8.797-28.25 11.254-11.14 2.465-24.04 3.742-38.8 4.152h-39.05"/><path d="m1903.4 34.805h34.21v425.29h-34.21v22.144h197.77c14.39 0 29.87-2.914 45.07-8.234 15.21-5.312 30.13-13.027 43.39-22.617 14.13-11.836 25.68-25.699 33.5-41.117 7.74-15.235 11.6-32.871 11.6-50.508s-3.86-35.274-11.6-50.508c-7.82-15.418-19.37-29.281-33.5-41.113-13.26-9.59-28.18-17.309-43.39-22.621-15.2-5.317-30.68-8.239-45.07-8.239h-86.78v-202.47h34.21v-22.152h-145.2zm110.99 425.28v-200.65h39.06c14.76 0.414 27.65 1.695 38.8 4.152 11.13 2.465 20.51 6.109 28.24 11.262 7.73 5.156 13.8 11.82 18.31 20.308 7.73 14.536 11.6 39.571 11.6 64.606s-3.87 50.07-11.6 64.609c-4.51 8.492-10.58 15.153-18.31 20.309-7.73 5.152-17.11 8.797-28.24 11.254-11.15 2.465-24.04 3.742-38.8 4.152h-39.06"/><path d="m3269.2 482.23h145.19v-22.144h-34.2v-425.29h80.39c21.69 0 38.17 7.543 50.72 19.566 12.56 12.027 21.18 28.547 27.15 46.488 5.97 17.946 9.28 37.321 11.21 55.075s2.48 33.89 2.92 45.336h31.93v-188.62h-315.31v22.152h34.2v425.29h-34.2v22.144"/><path d="m1454 482.23h145.2v-22.144h-34.21v-425.29h80.4c21.68 0 38.17 7.543 50.73 19.566 12.54 12.027 21.17 28.547 27.13 46.488 5.97 17.946 9.28 37.321 11.21 55.075 1.94 17.754 2.48 33.89 2.92 45.336h31.94v-188.62h-315.32v22.152h34.21v425.29h-34.21v22.144"/><path d="m4504 132.23v327.86h28.37v22.144h-85.81v-22.144h28.37v-322.06c0-31.269-11-55.781-27.5-73.019-16.51-17.234-38.52-27.211-60.52-29.406-22-2.1992-44.01 3.3828-60.52 17.238-16.5 13.855-27.5 35.996-27.5 66.922v340.32h38.37v22.144h-149.37v-22.144h34.21v-327.86c0-18.059 3.69-35.293 10.36-50.993 6.67-15.695 16.31-29.852 28.21-41.754 11.91-11.902 26.06-21.547 41.76-28.215 17.3-7.3515 38.96-11.027 60.62-11.027 21.65 0 43.32 3.6758 60.61 11.027 15.7 6.668 29.86 16.312 41.76 28.215 11.9 11.902 21.55 26.059 28.22 41.754 6.66 15.699 10.36 32.934 10.36 50.993"/><path d="m5511.7 482.23v-156.56h-26.28c-1.07 13.609-2.83 28.816-5.98 43.973-3.14 15.152-7.68 30.253-14.28 43.648-6.62 13.402-15.3 25.102-26.74 33.449-11.45 8.344-25.65 13.348-43.31 13.348h-101.47v-194.74h30.04c17.66 0 30.78 3.262 40.6 8.708 9.82 5.445 16.33 13.078 20.77 21.82 4.44 8.738 6.8 18.586 8.33 28.472 1.52 9.883 2.19 19.801 3.26 28.684h22.27v-202.25h-22.27c-1.07 8.879-1.74 18.797-3.26 28.684-1.53 9.886-3.89 19.734-8.33 28.472-4.44 8.739-10.95 16.372-20.77 21.817s-22.94 8.707-40.6 8.707h-30.04v-203.66h101.47c19.6 0 34.96 6.1601 46.99 16.227 12.04 10.062 20.77 24.035 27.13 39.656 6.36 15.626 10.35 32.89 12.91 49.558 2.56 16.664 3.7 32.723 4.34 45.914h32.56v-173.51h-340.56v22.152h38.37v425.29h-38.37v22.144h333.22"/><path d="m2450.8 460.09v-186.41h174.01v186.41h-34.21v22.144h149.37v-22.144h-38.37v-425.29h38.37v-22.152h-149.37v22.152h34.21v216.72h-174.01v-216.72h34.2v-22.152h-149.36v22.152h38.37v425.29h-38.37v22.144h149.36v-22.144h-34.2"/><path d="m3901.5 482.23-145.6-447.43h-36.47v-22.152h103.05v22.152h-40.35l51.82 159.26h136.07l51.83-159.26h-41.55v-22.152h145.2v22.152h-26.86l-145.6 447.43zm-60.34-266.02 60.82 186.93 60.84-186.93z"/><path d="m1094.7 482.23-145.61-447.43h-36.461v-22.152h103.04v22.152h-40.356l51.826 159.26h136.08l51.83-159.26h-41.56v-22.152h145.2v22.152h-26.86l-145.6 447.43zm-60.35-266.02 60.83 186.93 60.83-186.93z"/><path d="m2632 10900c-22.12 0.3-34.84 8.3-43.12 30.3-8.99 23.8-3.97 36 15.02 51.5 47.44 38.8 100.07 71 150.92 105.7 147.99 101.2 298.86 198.2 448.82 296.4 153.29 100.4 304.2 204.3 453.18 310.9 132.72 95 266.27 190.8 396.14 290.8 63.43 48.8 125.99 98.7 187.14 149.9 35.47 29.7 67.79 61.9 89.3 97.3 12.26 20.2 13.74 40.3-4.03 81-23.71 54.4-56.49 128-72.71 167.5-4.22 10.3-6.36 21.3-7.52 32.2-2.56 24.3 12.43 47.5 32.15 61.2 37.99 26.3 64.85 11.5 85.01-21.8 85.71-141.5 199.45-426.8 258.81-587.1 21-56.7-64.31-98.9-99.82-58.8-33.41 37.8-61.86 125.9-90.11 178.1-22.79 42.1-56.72 24-88.25 2-83.71-58.5-165.7-119.4-247.17-181.1-127.1-96.2-252.99-194.3-382.3-287.4-148.02-106.6-297.92-210.5-450.14-312.7-145.69-97.8-292.1-194.6-438.05-291.7-49.31-32.8-132.95-114.9-193.27-114.2zm676.13-6343.2c-5.24 0.4-10.15 3.15-14.52 5.77-27.24 16.28-47.4 36.27-66.86 62.37-15.76 21.13-31.95 42.7-52.14 60.22-17.85 15.48-39.66 25.77-57.78 40.8-4.12 3.42-6.8 8.73-7.96 13.8-1.94 8.51-2.53 17.41-1.38 25.94 3 21.97-2.81 34.37-20.48 45.8-26.67 17.25-57.38 24.03-73.33 52.69-4.67 8.39-5.19 8.3-6.67 15.98-3.45 17.94-6.81 31.88 7.46 44.36 12.44 10.87 28.88 7.5 23.93 23.77-6.86 22.54-25.15 38.89-37.04 58.91-28.75 48.4-59.89 90.98-71.75 146.42-7.32 34.28-9.92 70.23-5.54 105.02 2.8 22.06 19.54 41.79 31.66 61.01 37.4 59.32 34.89 60.92 42.58 79.34 12.3 29.43 26.21 58.07 32.62 89.18 3.24 15.78 4.98 32.35 7.95 48.23 2 10.76-2.53 21.96-0.56 32.62 2.91 15.69 6.68 29.87 6.91 45.85 1.04 71.49-9.44 142.65-10.12 214.04-0.16 17.91 9.72 32.95 11.33 50.74 2.7 30.05-2.03 69.37 5.26 99.4 2.63 10.87 1.4 22.78-1.77 33.38-10.83 36.28-24.29 68.01-19.55 105.43 4.79 37.96 32.28 69.7 39.83 107.06 1.25 6.21-0.12 12.68 1.35 18.73 3.38 13.95 8.63 48.57 5.05 75.5-4.2 31.49-19.5 45.42-39.1 21.71-6.47-7.83-9.96-17.91-12.77-27.73-4.61-16.14-12.67-29.58-13.88-46.21-3.48-47.96 6.29-96.04 6.43-144.26 0.03-6.26-0.81-6.12-3.6-20.01-1.58-7.83-7.35-14.58-8.14-22.59-1.98-20.09 4.85-43.97-6.22-61.2-16.3-25.36-41.12-22.26-65.58-3.81-16.8 12.68-34.02 24.66-54.16 30.03-46.55 12.4-83.8 34.85-124.5 61.07-41.91 27-88.79 46.62-134.43 67.66-8.2 3.79-16.33 7.96-22.88 13.96-27.92 25.56-47.88 66.13-70.1 97.41-18.8 26.5-26.86 32.42-31.58 39.5-11.71 17.61-18.05 29.78-36.55 69.45-18.51 39.68-42.03 61.33-70.09 95.19-34.62 41.76-34.5 102.1-52.72 152.79-1.76 4.89-6.58 8.41-7.59 13.36-3.46 17.14-2.29 33.79-9.61 49.63-9.16 19.87-8.02 20.51-13.22 27.53-10.34 13.89-39.8 34.75-44.62 41.14-6.38 8.46-13.14 16.81-17.15 26.5-10.13 24.55-12.67 38.61-14.01 44.75-2.86 12.98-0.74 26.75-4.41 39.41-11.2 38.38-5.64 80.69-14.52 120.51-4.18 18.77-1.74 38.39 0.46 57.52 2.8 24.32 1.32 24.42 0.79 29.2-2.21 20.42-6.21 39.88-11.31 59.7-3.05 11.83-13.98 21.01-15.73 32.98-31.43 214.59-180.93 399.22-210.48 608.14-4.41 31.1 1.93 52.79 10.87 81.38 4.13 13.22 8.31 26.39 9.54 40.16 3.54 39.71-0.7 40.1 2.74 58.45 4.22 22.45 15.52 42.62 38.43 27.57 9.8-6.44 18.18-15.58 24.68-25.53 32.33-49.56 28.44-51.98 41.01-70.14 7.52-10.84 21.1-26.63 34.46-37.88 8.02-6.74 17.31-14.22 25.6-10.73 13.84 5.82 8.65 25.41-1.5 44.07-16.93 31.06-51.94 66.3-57.81 74.32-3.16 4.33-4.4 9.91-7.83 13.81-12.66 14.37-19.3 28.66-26.57 45.95-59.12 140.47-62.56 296.48-81.85 446.88-15.16 118.28-31.1 236.06-51.1 345.17-5.81 31.66-15.59 64.28-37.42 88.05-15.03 16.39-25.68 5.14-44.39-2.92-53.94-23.26-104.27-55.58-129.18-109.08-5.46-11.76-8.95-24.81-9.66-37.83-1.26-23.38 5.56-51.67 7.45-75.06 4.34-53.44 25.52-197.24 61.34-360.43 29.43-134.15 71.05-280.38 117.56-401.91 11.51-30.04 15.73-56.22 24.39-85.24 9.05-30.36 13.29-29.21 16.6-49.27 5.3-32.19 5.96-32.39 7.37-117.74 0.81-49.61-64.46-51.24-81.1-10.1-9.22 22.76-5.26 34.85-10.1 58.93-58.25 289.47-135.62 598.86-212.42 887.92-4.66 17.57-1.06 39.6-17.21 49.81-10.6 6.72-19.44 8.56-31.54 5.58-17.16-4.24-30.45-6.78-46.93-1.31-11.81 3.91-21.95 11.45-30.58 19.2-11.09 9.93-22.2 22.71-19.62 39.49 1.97 12.81 11.36 21.51 23.57 26.19 25.26 9.71 42.11 24.63 61.66 42.67 6.71 6.19 13.05 11.53 20.07 17.38 8.12 6.77 16.76 12.96 26.11 17.94 12.07 6.44 25.88 9.19 37.75 16.1 22.8 13.29 39.01 32.7 42.96 58.83 3.61 23.72-0.66 55-3.78 71.76-3.12 16.73-3.59 19.78-6.18 28.81-2.6 9.05-8.18 7.2-10.59 23.94-2.42 16.76-3.29 60.69-0.58 77.28 2.71 16.6 0.52 17.11-1.33 25.24s-5.12 1.22-9.37 22.83c-4.24 21.62-29.31 69.77-39.74 87.93-10.41 18.16-8.26 8.27-11.07 13.18-14.96 26.18-33.47 50.79-52.64 73.96-8 9.67-19.86 16.74-29.51 24.62-12.42 10.1-24.64 23.19-13.64 41.56 6.79 11.34 20.33 12.29 31.25 11.65 47.3-2.79 100.87-81.01 119.42-108.89 24.25-36.44 27.26-44.22 36.44-71.55 9.17-27.34 13.53-41.64 18.24-58.52 4.7-16.88 2.75-41.6 6.24-74.31 3.48-32.69 2.36 7.18 4.04-10.27s2.15-64.29 5.76-87.16c3.62-22.89 13.92-36.43 21.3-45.64 7.39-9.22-2.28-10.25 15.18-11.45 6.55-0.44 16.07 3.91 26.49 10.41 17.36 10.83 38.13 26.6 50.02 38.07 6.25 6 17.78 16.91 8.02 22.45-6.66 3.8-13.55 1.25-19.65 0.21-10.17-1.74-20.47-5.6-37.95-6.75-27.97-1.82-29.94 28.86-29.26 52.81s2.05 13.75-2.01 38.03c-2.14 12.89-3.38 36.01-4.33 57.66-2.55 57.66-9.71 78.42-50.88 131.61-18.72 24.18-36.61 48.6-55.16 72.89-14.54 19.05-27.02 40.05-47.45 52.78-20.33 12.66-48.21 18.39-63.22 33.51-27.79 27.95-10.82 67.02 3 97.77 14.45 32.13 14.8 32.26 33.93 59.87 20.3 29.28 42.71 54.55 68.34 79.63 12.42 12.15 24.51 25.04 38.98 34.7 64.55 43.12 64.6 43.14 71.07 45.73 27.79 11.16 58.16 19.75 82.34 37.35 27.32 19.89 56.95 44.85 61.96 78.83 1.77 11.95-7.46 26.27-20.42 22.36-17.54-5.3-27.53-24.38-43.76-32.62-22.06-11.22-53.46-13.1-74.48 1.32-9.69 6.66-18.99 14.25-26.18 23.46-21.46 27.48-49.81 49.09-73.46 75.08-13.81 15.15-31.97 26.05-45.24 41.65-8.01 9.5-15.95 20-22.58 30.3-7.42 11.6-7.81 29.8-4.61 43.3 5.12 21.5 18.22 25.4 39.22 23.5 12.81-1.1 23.85-10.9 36.78-12 21.13-1.9 40.5 15.9 45.12 35.7 3.63 15.6-0.21 26.3 8.99 39.5 5.18 7.5 9.97 4.1 18.07 20.1 9.79 19.4-19.38 40.9-26.32 59-4.61 12-5.28 19.5-6.12 27.7-1.53 14.8-1.58 29.1 2.37 43.6 3.57 13.2 9.47 25.9 16.92 37.3 17.48 26.9 39.66 52.3 62.88 74.8 25.05 24.3 48.83 45 79.45 61.2 15.3 8.1 31.43 14.8 47.92 20 5.66 1.8 12.03 2.4 17.79 1 20.09-5 34.85-23.5 55.1-27.5 19.54-3.8 28.87 8.4 39.73 24.9 18.66 28.3 38.65 6.7 58.2-6.7 13.18-9.1 26.34-3.5 32.69 10.4 2.46 5.4-1.72 6 0.66 31.6 1.38 14.6 2.92 14.7 8.08 23.7 16.65 29.1 51.19 43 78.69 60.4 11.53 7.2 12.89 4.7 21.82 10.7 4.14 2.7 19.66 17.8 35.48 25 40.18 18.2 8.73 40.9-12.19 26.3-5.71-4-11.46-8.3-18.11-10.2-8.4-2.5-20.64 2.1-25.63-5.1-6.66-9.8-2.28-12.4-6.18-15.5-14.92-12-30.36-23.6-48.3-30.3-25.89-9.8-50.08-22.2-71.65-39-20.76-16.2-38.87-36.9-61.23-50.8-19.48-12.2-61.99-8.3-43.37 32.8 4.84 10.7 11.05 22.3 16.18 29.7 23.05 33.3 12.41 84.4 0.45 119.5-13.02 38.2-0.03 82.1 23.52 111.5 57.86 72.1 141.18 131.8 233.06 152.5 33.45 7.6 67.84 6.4 101 2.9 30.41-3.2 66.04-9.9 92.5-24.5 16.79-9.3 40.63-15.4 45.11-35.2 4-17.6 0.79-21.9-13.32-34.8-4.04-3.7-13.89-16.6-14.01-21.8-0.58-26.4 30.07-35.6 52.27-31.4 12.55 2.4 27.93 9.9 41.76 9.7 17.78-0.4 34.69-9.8 25.51-33.8-4.58-12-16.8-14.4-29.2-12.4-12.5 2.1-15.81-11.3-26.88-14.2-14.31-3.8-29.81-0.3-44.14-3.5-16.56-3.6-15.05-8.2-41.13-16.2-20.88-6.3-48.98-12.2-69.87-25.8-42.1-27.4-13.36-56.9 21.73-40.8 22.8 10.4 22.26 12.1 37.64 15.9 25.76 6.4 54 16.4 79.14 25.2 12.28 4.3 18.1 2.6 33.34 8.8 17.93 7.2 41.46 21.2 58.39 9.8 26.92-18.1 13.55-48.6-6.21-68-12.56-12.3-32.17-16.3-47.41-25.6-6.71-4-14.43-7.3-18.98-13.6-10.46-14.4-13.87-16.8-16.74-32.2-3.26-17.5-1.34-35.7 2.81-53.1 1.96-8.3 10.05-12.5 13.77-20.1 14.39-29.2 35.15-51.3 61.94-69 19.21-12.7 34.24-13 56.64-16.6 18.95-3.1 31.18-2.5 50.68 5 19.51 7.4 44.25 21.3 59.9 20.6 15.68-0.7 13.11-3.9 21.43-8.2s17.5-13.9 24.47-23c12.46-16.2 14.53-24 15.95-43.8 0.87-12.1-1.58-24.9 2.68-36.3 7.48-20 25.2-30.9 42.73-16.5 10.72 8.7 16.78 20.4 13.47 34.3-6.49 27.1-9.28 44.3 12.24 64.4 11.41 10.7 31.21 10.9 53.74 6.2 32.92-7 70.41-28.2 98.64-36.7 66.85-20 106.56-52.5 161.3-90.8 16.19-11.3 29.53-26.1 46.02-37 40.43-26.7 83.44-47 125.92-70.2 13.46-7.4 25.93-16.7 38.01-26.3 9.28-7.4 18.59-15.1 25.9-24.6 5.9-7.6 11.81-16.4 13.03-26.1 5.68-45-24.01-43-62-47.1-14.02-1.5-28.43-2.9-41.57-8-20.34-8.1-32.73-14.5-40.26-21.4-10.95-10-18.72-22.6-27.68-34.6-20.84-27.9-38.72-48.56-45.27-52.63-26.42-16.39-44.98-3.99-71.9 7.83-33.77 14.9-71.34 36.6-88.2 71.5-6.12 12.7-9.53 14.8-15.28 26-10.27 19.9-33.13 26.7-25.94-4.9 3.76-16.6 19.46-35.8 22.71-46.2 2.44-7.8 0.07-16.5 2.45-24.3 2.76-9 3.57-16.6 7.17-25.32 6.13-14.76-1.49-36.6 12.49-44.35 9.38-5.21 11 1.37 25.76-2.14 23.09-5.5 36.88-11.07 42.99-34.35 6.73-25.68 3.24-29.06-18.98-44.85-21.33-15.17-22.52-14.35-35.26-17.03-43.17-9.03-69.39-43.35-110.23-54.78-5.57-1.56-9.2-7.25-14.69-8.94-8.59-2.63-18.25-0.77-26.62-3.73-14.21-5.05-29.52-7.32-44.36-5.84-16.2 1.6-29.11 8.73-42.62-0.85-5.4-3.81-5.77-12.29-5.78-18.85-0.09-34 2.82-67.31 9.96-100.58 3.69-17.14 2.34-35.95 8.58-52.02 11.3-29.08 35.3-53.96 44.08-83.98 8.38-28.66 14.89-64.45 36.54-84.94 9.92-9.39 19.85-0.37 27.48 9.61 30.46 39.78 71.09 73.57 121.33 85.58 37.38 8.93 70.76 16.5 109.16 15.08 25.67-0.95 38.34-27.61 59.5-40.24 25.87-15.45 49.54-15.03 58.7 16.85 6.02 20.9 7.73 44.14 15.23 64.95 7.42 20.55 19.41 34.18 40.29 41.06 12.6 4.17 26.64 4.07 39.88 2.11 10.06-1.48 10.26-2.97 17.09-9.83 19.63-19.71 14-35.39-0.5-56.82-7.44-10.98-18.93-18.88-26.06-30.06-7.03-11.02-11.92-23.52-15.83-36.05-1.55-5.02-0.94-10.66-0.31-15.99 3.01-25.89 28.28-45.93 43.02-66.31 8.33-11.49 8.46-25.51 3.34-38.88-13.94-36.39-24.21-67.48-14.22-106.53 7.72-30.11 28.4-55.04 35.94-84.39 4.64-18.06 9.83-39.47-5.81-51.16-7.07-5.28-16.57-6.52-25.27-7.17-85.26-6.29-171.02-4.2-255.73-15.8-16.95-2.32-31.86-6.06-48.47-9.56-21.34-4.48-44.07-1.04-64.95-6.92-33.03-9.32-71.34-25.09-99.02-46.04-24.54-18.55-44.01-26.68-72.72-36.48-14.93-5.1-23.05-11.11-37.58-17.14-22.66-9.43-42.14-26.15-61.99-40.6-30.37-22.08-29.98-24.36-48.6-29.38-20.01-5.38-46.7-1.64-53.22 20.87-6.66 22.92-6.61 47.7-3.76 71.29 1.57 13.08 9.22 25 16.76 35.87 14.94 21.54 34.07 39.31 59.81 46.76 7.84 2.27 16.47 0.37 24.35 2.45 19.29 5.1 55.95 15.84 62.97 35.52 2.6 7.23 1.75 15.93-1.21 22.91-8.75 20.71-30.06 17.37-49.63 21.51-26.75 5.66-53.89 3.78-79.83 9.78-5.35 1.25-11.37-1.73-16.35 0.32-14.8 6.09-26.8 13.81-37.38 25.78-23.01 26.02-25.52 31.36-31.22 39.16-19.49 26.65-44.38 53.31-31.75 86.96 2.8 7.48 9.14 12.23 16.99 13.96 14.79 3.26 30.59-0.08 45.29 3.55 12.78 3.15 22.27 8.49 29.86 19.65 16.64 24.43 25.4 48.87 53.31 61.71 6.45 2.96 14.37 2.76 21.29 1.11 25.45-6.07 47.54-19.5 66.57-19.81 10.63-0.17 14.56 11.48 9.53 20.68-16.26 29.72-42.85 53.04-65.68 77.93-5.89 6.42-9.81 14.66-11.94 22.93-2.36 9.14-2.87 18.93-1.48 28.26 3.04 20.55 3.06 45.24 7.03 65.67 2.49 12.84 5.84 19.23 8.81 31.96 4.59 19.83 2.74 43.7 0.13 63.8-0.56 4.22-2.17 9.63-6.08 11.22-17.35 7.02-29.93-10.45-44.51-20.66-16.43-11.5-17.14-11.28-24.41-12.36-17.4-2.58-35.17-4.14-52.7-2.78-18.46 1.44-45.75 8.79-61.63-1.16-2.86-1.78-4.17-4.2-1.11-7.4 11.42-11.95 27.52-11.39 43.33-14.62 26.72-5.45 26.87-5.61 35.5-9.8 18.24-8.85 28.21-16.33 38.14-33.2 17.57-29.88 18.81-29.52 22.1-41.05 6.06-21.22 11.58-42.22 8.05-64.07-3.66-22.64-5.7-22.92-16.75-38.42-18.27-25.63-35.75-56.01-66.99-60.8-118.92-18.22-120.32-10.64-155.09-7.02-44.27 4.64-46.61 30.09-58.94 69.56-4.07 13.01 0.14 27.57-3.31 40.63-5.82 22.01-10.56 43.52-19.71 64.27-6.79 15.37-22.23 29.05-41.33 58.23-6.82 10.42-6.09 24.14-4.48 36.5 2.25 17.34 10.56 43.79-10.28 44.24-23.09 0.48-24.14-36.66-20.64-55.2 3.53-18.63 13.09-36.04 19.16-53.8 2.54-7.39 2.93-12.19 5.7-19.53 3.69-9.74 12.49-17.18 15.43-27.17 5.83-19.79 13.81-33.97 19.16-53.8 5.76-21.36 2.47-50.6 8.46-71.85 5.67-20.2 4.55-40.11 10.16-60.11 8.71-30.95 5.37-63.11 14.34-94.87 4.62-16.39 8.11-26.81 12.79-43.64 2.28-8.2-0.89-17.59 2.51-25.52 9.17-21.4 6.35-49.95 12.07-74 4.41-18.54 6.68-49.32 14.36-11.34 3.24 16.04 2.86 33.86 2.07 50.63-2.21 46.51 20.93 31.08 33.99-0.48 2.5-6.04 0.37-13.32 2.21-19.71 6.73-23.34 14.94-48.44 18.98-72.47 3.94-23.34 10.56-44.14 17.52-66.71 4.17-13.54 5.12-13.25 7.1-24.12 4.47-24.65 5.53-56.71 14.75-80.85 3.59-9.39 5.63-17.68 7.29-27.6 4.7-28.03 3.47-56.02 11.39-83.36 9.81-33.89 7.23-75.23 16.23-108.77 4.11-15.3 6.62-33.32 12.04-48.03 6.95-18.95 18.72-32.45 44.91-27.79 22.69 4.02 26.56 16.48 37.08 37.52 15.47 30.92 28.27 63.54 41.72 95.6 10.14 24.13 10.45 24.09 14.26 39.24 8.41 33.48 43.94 62.67 76.03 70.94 19.47 5.03 27.72 33.02 35.36 50.38 4.73 10.75 12.4 20.19 20.9 28.17 16.49 15.43 32.73 28.9 54.32 35.74 16 5.06 33.54 4.01 50.36 2.66 12.33-1 15.57-1.75 27.56 1.45 19.26 5.13 27.62 2.55 42.67 9.24 49.36 21.97 96.57 14.55 149.21 23.03 8.95 1.44 16.17 8.74 25.1 10.65 17.12 3.69 17.11 3.54 28.89 5.02 35.82 4.54 35.86 7.97 128.21 7.93 20.22 0 33.77-11.32 46.15-28.35 6.39-8.79 11.8-18.87 14.39-29.56 3.05-12.57 3.4-25.87 2.05-38.73-1.33-12.55-4.32-25.16-9.73-36.66-7.97-16.93-31.33-24.64-36.24-42.73-6.01-22.25 29.48-24.6 46.69-29.38 25.2-7 34.74-8.9 45.05-13.95 7.63-3.73 15.2-8.04 21.49-13.9 3.92-3.67 6.88-8.81 8.32-14.15 1.85-6.85 3.46-14.57 1.14-21.27-11.96-34.28-53.79-32.72-85.66-41.02-33.72-8.78-67.5-18.19-101.11-28.66-12.26-3.81-26.06-0.37-38.26-4.34-28.72-9.36-63.54-46.62-42.34-75 30.66-41.08 65.34 38.78 88.62 52.95 38.02 23.11 103.59 52.09 140.23 8.09 3.53-4.25 6.99-9.18 7.77-14.75 3-21.35 2.84-43.1-0.1-64.5-2.23-16.29-5.41-29.62-8.08-45.91-1.51-9.2 1.11-18.68 0.31-27.96-0.73-8.6-19.27-93.44 12.42-69.55 17.63 13.3 13.63 25.22 16.76 46.96 2.4 16.51 4.75 32.44 6.73 49.32 1.59 13.53-3.47 27.48-0.98 40.76 2.44 13.06 9.55 38.99 22.65 43.64 9.56 3.39 21.6 6.54 30.59 1.61 25.69-14.02 31.42-29.78 39.61-59.01 5.25-18.73 4.55-38.98 3.08-58.49-1.09-14.7-6.83-26.83-9.48-41.33-1.8-9.89-12.74-21.92-6.8-30.2 2.29-3.21 7.58 2.4 10.96 4.42 19.17 11.45 31.65 17.29 49.08 0.38 2.78-2.7 6.22-5.57 6.92-9.55 2.55-14.57 3.85-29.71 2.35-44.54-1.6-15.75-2.41-15.64-5.51-28.28-2.79-11.4-9.76-17.11-32.99-82.2-6.57-18.42-23.71-54.22-5.16-68.14 14.61-10.96 22.22 1.35 26.51 17.12 3.83 14.09 7.95 24.07 12.01 37.97 5.77 19.8-1.28 35.37 21.66 40.09 25.78 5.29 41.93-19.46 47.25-42.3 5.72-24.61 6-50.62 4-75.93-1.4-17.62-8.15-35.29-11.21-53.07-2.64-15.52 12.42-51.11-13.44-76.51-12.28-12.06-17.01-27.33-20.9-41.12-11.67-41.4-0.74-83.08-12.56-120.41-11.23-35.4-35.38-66.16-49.52-100.57-13.34-32.45-19.19-66.69-23.8-101.54-0.92-7.03-5.73-13.18-7.1-20.2-16.47-84.66-27.37-108.01-73.08-179.72-12.43-19.49-22.95-40.96-28.38-63.53-1.22-5.09-2.39-11.67 0.84-15.93 16.47-21.72 42.47 1.6 62.8-14.3 19.01-14.87 12.78-31.43 2.31-50.49-7.97-14.51-35.03-23.97-34.02-40.51 0.81-13.08 17.99-3.06 28.56 0.46 4.19 1.4 9.7 3.13 13.38 0.46 13.75-9.96 8.1-29.75 7.18-45.67-1.1-19.19-0.23-38.75 3.05-57.8 3.32-19.23 16.66-62.33 41.71-41.07 2.21 1.89 2.29 5.6 2 8.39-2.57 24.76-21.24 63.91-0.36 82.08 4.13 3.6 11.29 2.55 16.63 0.88 26.97-8.54 44.25-31.01 53.5-57.13 4.03-11.33 5.57-21.63 7.6-33.4 4.63-26.86 8.21-54.68 4.31-81.77-4.43-30.77-19.19-49.8-44.16-71.36-5.89-5.09-12.34-9.64-19.4-12.8-6.93-3.13-14.4-4.8-21.84-5.82-21.72-2.98-31.74-3.84-50.56-14.32-5.18-2.9-12.24-3.06-17.79-0.94-17.92 6.82-34.27 14.15-46.09 29.16-10.67 13.56-14.05 31.73-23.75 45.87-5.04 7.32-12.21 12.97-19.6 17.62-23.15 14.59-33.18 31.46-40.26 58.28-3.51 13.27-11.16 22.95-19.42 34.2-16.59 22.58-34.48 46.83-46.83 71.93-2.08 4.25-1.29 9.47-3.06 13.83-12.6 31.23-29.29 62.86-27.11 98.4 0.94 15.11-13.37 18.51-22.84 30.75-19.04 24.58-46.06 43.95-57.49 72.77-7.19 18.15-12.21 39.31-14.75 58.69-8.27 63.16-6.45 127.26-11.22 190.66-0.33 4.46-3.69 8.29-4.17 12.61-4.23 38.46-16.84 76.66-40.47 108.42-8.65 11.65-16.8 21.82-19.58 35.34-6.78 33-11.03 60.02-33.11 86.31-5.88 6.98-11.72 12.22-16.91 19.75-32.18 46.75-79.36 83.3-117.4 125.58-24.64 27.38-42.41 72.51-53.26 105.42-2.01 6.09-2.62 12.88-1.01 18.96 4.44 16.67 17.89 27.01 25.78 42.17 5.64 10.85 0.87 26.07-11.95 20.82-18.51-7.56-37.56-14.5-49.08-31.14-10.88-15.72-14.33-16.36-12.87-28.21 2.25-18.16 16.84-24.19 25.55-39.82 10.58-19 48.48-56.61 18.59-72.02-39.01-20.14-74.82 4.91-105.05 30.96-13.74 11.83-24.81 26.75-33.74 42.53-6.7 11.87-8.19 11.31-14.38 29.56-4.5 13.25-6.72 27.06-5.65 40.87 1.09 14.28 5.09 30.41 0.01 43.97-9.52 25.36-31.15 44.12-38.69 70.26-6.94 24.08-12.87 52.9-19.22 77.12-4.42 16.79-1.97 29.08-10.61 43.99-3.47 6.02-16.49 17.33-29.57 26.55-16.82 11.84-39.15 19.94-43.99-0.34-2.99-12.54 4.61-25.18 9.54-37.38 8.21-20.34 17.15-40.77 22.52-62.04 3.34-13.22 12.39-24.49 15.98-37.64 4.28-15.69 4.86-32.1 10.65-47.25 8.43-22.05 13.56-39.02 18.43-62.01 1.09-5.08 12.3-39.59 19.35-52.74 5.57-10.38 5.67-16.91 10.53-27.3 8.97-19.16 22.32-36.04 35.31-52.72 7.34-9.43 16.23-17.7 25.58-25.24 16.53-13.29 35.26-22.89 56.26-27.36 27.84-5.92 40.54-6.48 60.06-26.45 11.27-11.53 20.65-20.9 30.9-33.36 13.24-16.06 27.93-31.68 41.57-47.37 16.59-19.07 37.87-28.17 53.26-47.92 9.26-11.87 17.3-23.67 19.53-38.62 4.13-27.75 8.28-56.27 4.43-84.09-5.31-38.36-18.55-78.62-3.26-115.26 15.08-36.09 35.65-70.03 51.07-105.76 7.97-18.48 19.57-35.11 23.87-54.72 6.15-27.98 2.72-57.37 5.7-85.99 0.34-3.23 3.61-5.79 3.98-9.12 3.21-28.94-0.08-58.83 6.92-87.1 6.09-24.56-1.73-48.08-2.04-71.82-0.23-17.2 10.83-33.62 19.92-48.28 24.01-38.69 49.87-77.06 76.34-114.1 8.8-12.34 17.55-25.94 26.49-38.26 5.07-6.96 17.65-21.5 27.2-35.53 17.68-26.02 36.51-45.86 59.06-67.68 3.82-3.69 5.77-9.2 9.69-13.01 32.77-31.98 58.5-63.52 83.25-101.62 6.82-10.52 18.17-42.82 18.85-47.97 3.24-24.37 5.95-49.14 3.88-73.63-0.94-11.16-6.96-21.39-12.46-31.2-8.33-14.86-40.57-38.04-28.99-51.79 12.74-15.15 35.67-4.27 47.96 10.33 14.26 16.95 18.47 39.6 20.89 61.63 2.76 25.12-5.36 50.62-2.83 75.65 3.43 33.53 43.22 46.86 67 25.46 9.34-8.4 8.46-19.95 12.64-31.76 3.28-9.22 11.33-16.55 14.2-26.06 2.91-9.6 0.54-20.28 2.75-30.18 2.4-10.65 6.27-21.02 10.97-30.91 6.49-13.64 4.25-24.91 9.06-39.17 9.87-29.22 18.13-65.25 12.03-95.35-3.28-16.18-8.88-31.16-18.77-44.37-17.56-23.48-35.25-47.13-53.11-69.97-5.71-7.31-10.89-16.05-11.72-25.34-2.46-27.5 1.48-56.04-8.5-82.08-8.34-21.77-22.9-39.06-23.65-62.35-0.71-22.12 12.37-42.35 17.46-63.57 0.75-3.15 3.56-5.79 3.99-9.12 3.98-31.34 13.52-64.53 6.26-96.81-4-17.78-8.44-32.63-17.03-48.48-25.99-47.94-30.66-55.03-46.28-79.87-29.4-46.75-63.22-96.77-86.72-146.84-3.63-7.72-5.71-12.21-9.33-20.08-25.92-56.41-51.62-111.12-91.91-158.78-7.7-9.11-13.34-18.49-20.08-28.47-7.28-10.8-15.72-21.58-18.59-34.21-4.59-20.1-4.17-39.64-10.9-58.9-13.11-37.49-43.11-70.69-53.73-108.94-2.19-7.9 0.98-16.62-1.02-24.54-5.89-23.17-9.81-38.61-11.89-62.44-0.85-9.8-6.98-18.63-7.83-28.41-1.56-18.22-4.22-31.45-7.89-49.37-2.84-13.9-3.23-13.77-3.61-20.03-1.12-18.95-2.12-38.32 2.98-56.64 6.5-23.23 21.77-42.19 32.53-63.58 4.2-8.4 9.22-9.19 6.08-93.33-1.17-31.05-38.32-56.51-50.31-85.45-9.13-22.04-10.47-31.79 13.38-39.29 8.12-2.55 17.1 1.31 25.65 0.19 11.88-1.56 21.43-7.83 28.11-17.65 24.15-35.53-32.93-65.13-56.11-86.1-6.26-5.67-15.82-15.89-13.85-24.87 0.9-4.09 3.76-7.82 6.98-10.71 1.12-1.02 3.32-0.77 4.53 0.12 7.99 5.8 15.08 11.95 21.99 17.31 16.35 12.7 31.69 20.97 55.31 9.86 22.09-10.41 36.4-32.56 53.92-49.64 20.87-20.35 49.26-38.92 66.43-63.21 4.5-6.36 7.67-13.87 9.3-21.66 2.18-10.37 3.8-21.36 1.68-31.75-3-14.59-11.96-27.42-16.46-41.68-8.31-26.23-13.35-61.72-39.63-73.57-9.97-4.5-21.83-3.22-32.64-2.43zm1048.9 1581.8c-6.56 0.12-14.21 1.59-21.46 2.71-12.07 1.86-26.98 6.28-23.44 19.42 4.39 16.17 17.35 22.48 28.29 26.1 10.93 3.63 23.63 1.83 39.72 0.21 7.3-0.74 15.13-1.5 22.09 1.17 15.82 6.05 56.98 51.93 57.16 10.59 0.05-7.36-2.43-14.78-5.87-21.3-5.28-10.04-11.69-18.02-21.49-23.87-12.63-7.56-13.24-7.2-37.81-12.49-12.19-2.62-24.83-2.78-37.19-2.54zm-2257.3 2980.2c6.19 6.32 14.11 11.61 17.06 15.62 5.15 7.03 27.56 32.96 35.93 46.09 24.82 38.91 47.13 78.86 71.07 118.38 6.19 10.21 16.12 24.19 25.26 34.09 11.75 12.72 27.61 18.31 37.39-10.03 3.98-11.55-10.07-25.91-16.93-35.29-31.03-42.48-43.94-56.65-84.74-111.29-17.6-23.58-35.31-58.73-62.05-72.67-14.77-7.68-50.89-13.36-22.99 15.1zm462.57 470.35c-16.91 3.02-21.79 6.53-25.23 23.05-3.12 14.98 6.14 31.48 16.15 42.43 6.83 7.51 16.28 16.22 27.22 13.14 10.83-3.05 15.16-13.68 18.11-21.32 6.49-16.8-0.42-36.44-19.03-49.86-5.1-3.69-11.08-8.53-17.22-7.44zm-754.2-4495.7c-6.66 0.03-11.84 6.28-18.14 7.91-30.2 7.79-59.49 26.59-88.3 38.49-12.62 5.2-13.87 2.68-22.06 8.75-15.5 11.46-8.71 35.29-0.25 48.97 26.79 43.29 16.51 83.09 7.22 130.75-3.7 18.97 4.71 36.01 5.23 55.44 0.76 27.24-5.21 54.2-5.45 81.34-0.3 33.79 5.08 67.38 11.01 100.88 12.65 71.5 49.67 126.87 76.12 192.93 12.71 31.71 27.17 63.4 41.68 94.32 17.76 37.86 26.93 78.91 35.67 119.66 2.94 13.75 10.04 26.26 16.86 38.44 34.67 61.85 38.26 160.75 53.07 227.63 9.64 43.49 46.48 72.93 52.08 118.2 4.42 35.62 5.96 68.81 10.82 104.37 0.96 6.92-1.29 14.11 0.05 20.98 2.91 14.75 16.38 16.61 26.39 6.29 12.01-12.41 11.03-13.25 22.53-27.03 7.51-8.99 21.36-29.61 35.7-40.58 14.33-10.95 36.22-13.43 34.72 14.32-1.38 25.6-22.75 48.19-35.22 70.68-23.1 41.68-43.31 85.15-65.24 127.41-8.34 16.04-4.14 17.91-10.9 29.74-72.63 126.95-125.73 318.66-111.84 462.09 3.59 37.05 26.13 71.59 48.18 101.55 8.39 11.4 28.72 22.1 29.67 36.65 1.59 24.06 0.22 24.35-3.22 39.13-4.13 17.61-12.57 34.01-16.73 51.61-7.28 30.86-24.47 72.81-8.62 101.57 16.3 29.56 31.11 42.74 37.73 76.39 2.72 13.87 16.29 30.51 30.47 17.01 17.79-16.95 20.7-42 31.46-63.89 44.52-90.34 95.34-182.75 109.59-286.93 5.01-36.56-4.66-74.35 3.5-110.59 10.33-45.74 11.53-91.49 23.52-136.38 6.35-23.75 26.52-61.88-7.15-69.87-11.73-2.78-12.6-0.63-15.83 1.62-34.26 23.89-47.82 71.09-68.89 105.28-6.62 10.78-10.11 20.09-15.54 31.6-5.15 10.94-11.65 18.44-9.74 30.16 4.4 27.12 14.92 57.02 0.24 81.53-9.41 15.7-29.31 27.84-32.8 5.03-3.81-24.86 9.63-50.65 5.16-75.53-3.68-20.4-25.24-22.27-44.15-16.68-10.69 3.18-15.84 17.04-25.68 18.48-5.06 0.74-9.42-5.56-9.02-10.62 1.37-16.75 6.46-33.56 15.35-47.82 23.21-37.2 62.75-62.72 85.64-100.2 12.22-20.02 20.86-42.98 31.47-63.89 7.17-14.11 4.15-15.58 10.96-26.36 10.31-16.32 20.04-44.91 42.97-36.8 8.7 3.07 18.38 19.36 22 20.76 28.41 10.95 43.55 1.14 60.94-20.93 22.74-28.87 21.33-30.36 24.92-41.24 12.98-39.48 18.69-80.91 29.69-120.89 8.38-30.56 13.06-42.85 19.16-53.8 6.04-10.86 9.22-20.35 13.34-31.95 4.28-12 8.9-18.88 31.04-57.84 9.25-16.27 19.61-32.08 31.83-46.25 37.56-43.59 73.77-89.01 101.56-139.13 10.18-18.37 9.88-18.53 14.45-30.72 2.24-6.01 4.35-13.81 0.89-19.2-6.76-10.58-17.54-7.14-28.35-1.85-37.38 18.32-83.69 35.83-114.77 64.51-18.47 17.03-21.89 45.26-36.25 65.95-13.35 19.23-28.75 36.97-47.09 15.02-10.78-12.92-6.74-33.81-1.15-48.93 15.69-42.45 52.58-65.44 92.49-79.79 41.62-14.95 99.26-20.31 128.05-55.52 8.66-10.58 4.65-29.02-10.28-32.73-12.9-3.19-26.9 0.65-39.48-3.25-12.99-4.01-21.65-9.81-17.07-23.52 5.42-16.21 13.19-21.02 29.27-15.48 29.21 10.08 56.33 35.98 88.24 36.14 2.94 0.02 6.3-2.03 7.59-4.73 9.27-19.25-7.36-48.22-20.98-61.86-110.71-110.84-240.59-222.28-366.52-318.68-88.22-67.55-173.58-141.09-194.56-258.07-12.32-68.79-3.28-135.25-5.39-204.12-0.95-30.65-3.96-61.61-22.42-89.12-8.52-12.73-21.97-20.85-28.12-34.83-7.08-16.09 1.15-35.45-6.89-50.75-13.69-26.03-47.4-41.34-76.43-41.23zm2340.1-877.18c-8.17-0.33-16.51-1.09-24.52 0.46-43.83 8.46-81.32 43.78-89.31 87.87-4.74 26.25 14.36 45.78 24.35 69.28 3.22 7.59 5.74 15.6 6.91 23.69 1.16 7.96 1.48 16.24-0.1 24.13-6.05 30.28-19.37 50.36-17.17 82.24 1.05 15.12-1.17 30.36-0.06 45.48 1.87 25.56 2.29 50.78 6.48 76.15 7.28 44.16 44.43 81.99 67.01 120.03 14.49 24.37 18.9 50.12 26.36 77.31 6.1 22.11 9.12 21.25 10.1 29.67 4.98 42.22 18.25 83.3 19.03 125.79 0.61 33.41-6.47 50.75-5.21 76.69 0.82 16.95 13.01 44.45 23.19 57.79 4.24 5.53 4.74 6.06 11.15 7.46 23.08 5.08 52.85 9.91 76.11 23.17 13.95 7.96 26.96 17.84 32.46 32.23 10 26.22-6.81 35.5-27.69 39.34-20.89 3.84-48.78 0.31-60.14 9.56-16.91 13.78-13.44 41.83-12.51 62.44 1.24 27.15 7.03 32.8 6.98 44.67-0.1 26.44-6.03 52.7-5.32 79.03 1.52 57.46 2.07 122.74 23.36 176.15 13.05 32.76 29.52 61.6 32.24 96.16 2.51 31.86-33.13 64.07-3.11 90.1 5 4.34 13.58 3.35 18.35 8.08 15.93 15.77 18.2 30 22.33 51.9 3.74 19.84 10.41 36.38 11.01 56.55 0.57 19.68-0.37 39.48-3.11 58.97-2.31 16.44-6.8 32.57-11.87 48.35-4.17 12.97-11.46 21.27-15.92 36.48-9.34 31.82-28.56 64.33-42.31 94.56-1.83 4.03-2.49 9.23-0.69 13.14 3.94 8.56 14.4 12.87 16.4 20.68 9.31 36.4-55.02 68.87-75.33 90.72-8.8 9.47-18.46 19.01-23.2 30.86-16.42 40.98-14.71 89.04-11.66 132.67 1.02 14.7 5.08 29.47 11.74 42.6 11.19 22.03 24.03 42.9 37.46 63.79 2.14 3.34 1.81 8.03 4.32 10.95 17.63 20.47 37.99 36.76 50.21 60.72 7.19 14.11 4.98 15.29 5.44 29.44 0.66 20.26-4.58 41.57 5.02 59.74 9.41 17.83 29.51 29.51 38.3 47.5 5.36 10.98 9.41 22.68 12.19 34.46 2.97 12.68 0.29 13.43 3.61 20.02 9.43 18.75 13.27 28.59 13.7 49.7 1.02 51.55 6.57 109.23-1.41 161.33-5.47 35.65-17.78 68.69-43.72 95.4-11.08 11.41-23.5 22.38-29.86 37.5-7.45 17.71-12.61 29.44-13.84 41.25-3.51 33.81 0.56 62.83-6.43 93.03-5.95 25.71-21.97 58.12-43.83 19.77-3.64-6.39-5.69-13.93-5.87-21.29-0.73-28.64 3.86-57.36 3.37-86.12-0.37-21.53-1.63-43.25-5.93-64.46-5.09-25.12-33.2-46.12-28.89-71.13 2.49-14.52-0.18-15.82 14.01-44.75 18.52-37.77 31.9-68.66 30.26-109.54-0.78-19.71-4.18-39.43-8.56-58.76-2-8.83-8.69-16.17-10.33-25.04-5.68-30.35-26.29-59.77-37.34-88.26-5.2-13.4-7.61-25.35-11.93-39.11-7.29-23.19-22.21-102.46-62.06-79.3-15.38 8.94-24.51 24.55-29.26 41.84-9.41 34.22-16.37 68.53-26.39 102.4-5.47 18.49-10.7 34.45-16.77 52.74-3.7 11.15-7.8 9.15-12.79 21.49-9.8 24.25-21.5 48.77-34.11 71.67-16.22 29.49-36.05 59.17-51.36 89.42-4.79 9.47-6.55 20.22-10.9 29.75-8.98 19.68-17.04 25.88-12.94 46.31 3.48 17.27 6.8 17.01 14.18 23.14 14.7 12.18 36.96 20.11 44.46 26.02 14.15 11.13 22.08 25.8 26.31 42.79 2.27 9.11 0.69 51.21 0.55 56-1.37 45.97-1.15 92.24-6.12 138.1-1.24 11.5-16.61 17.99-20.2 29.26-3.17 9.97 2.39 21.72-1.66 31.4-11.48 27.48-10.09 35.75 14.01 52.86 13.05 9.26 30.54 14.09 41.19 26.08 17.18 19.33 12.44 22.67 20.04 33.58 3.58 5.16 10.9 6.55 14.91 11.4 7.24 8.78 13.43 18.6 18.29 28.96 12.39 26.36 20.54 57.64 28.26 85.57 4.96 17.93 17.99 35.5 14.64 54.07-3.95 22.02-15.49 42.3-18.55 64.33-5.07 36.56 2.56 76.08-9.37 111.45-6.64 19.67-13.93 37.45-27.31 53.37-8.12 9.67-12.93 21.54-20.32 31.58-8.12 11.05-16.41 22.72-22.73 35.47-4.92 9.92-10.44 19.85-12.23 30.33-2.08 12.28-2.52 18.55 7 26.6 3.37 2.87 9.17 2.7 13.36 0.94 17.31-7.26 32.13-17.95 50.19-23 7.68-2.16 13.71-8.79 21.55-10.54 31.86-7.09 63.38-17.44 95.66-22.94 19.65-3.34 20.28 0.1 29.33-3.11 14.28-5.07 23.82-7.6 37.95-12 95.65-29.79 168.84-95.67 238.66-164.91 24.53-24.32 47.74-50.17 69.72-77.13 4.89-6.01 6.56-4.5 50.44-56.48 89.76-106.31 165.35-207.7 219.71-319.24 47.95-98.43 78.75-205.29 85.83-332.38 10.44-187.77-82.48-410.8-163.75-577.84-41.58-85.47-80.31-175.77-102.33-268.72-5.31-22.43-7.11-34.09-11.01-56.55-13.87-79.86-19.49-137.52-54.15-211.6-8.6-18.38-12.7-37.53-13.28-57.85-1.46-50.97-17.48-59.5-35.24-105.64-3.86-10.02 0.25-10.77-2.14-25.77-1.54-9.57-8.88-17.7-10.22-27.36-5.8-41.71-10.63-83.74-26.29-122.91-6.14-15.35-7.39-16.03-20.82-25.58-16.38-11.65-34.04-4.62-39.05 13.33-6.49 23.11-1.86 46.66-9.52 69.47-2.21 6.67-8.2 11.57-10.27 18.12-7.51 23.79 4.09 40.31 7.15 63.7 3.11 23.91-2.56 48.15-3.82 72.16-0.42 8.02 0.22 16.14-1.26 24.02-2.43 12.88-11.76 24.29-22.23 12.23-7.28-8.39-5.96-21.51-8.32-32.49-2.35-10.98-5.67-21.9-6.3-32.99-3.02-53.8-22.32-103.97-17.32-158 2.02-21.89 13.36-40.81 19.59-61.94 2.64-8.95 9.84-16.03 12.98-24.97 3.36-9.56 1.99-20.66 6.25-30 23.5-51.58 15.73-54.24 59.69-15.83 15.01 13.1 33.85 21.24 43.14-10.23 4.97-16.87 3.74-35.12 2.78-52.68-1.43-26-0.47-26.75-7.1-42.36-17.37-40.92-52.38-70.03-73.55-108.83-6.53-11.96-2.36-13.36-5.63-25.95-7.43-28.46-15.97-57.2-21.12-86.24-1.64-9.24-8.46-16.95-10.29-26.21-5.74-29.34-16.22-60.69-23.24-89.84-20.48-85.06-55.31-171.89-61-258.61-6.09-92.54-23.02-118.18-39.23-155.65-5.4-12.49-10.72-26.29-15.53-44.32-16.97-63.59 11.76-39.1-32.83-101.98-24.44-34.44-32.88-65.67-9.47-113.31 12.58-25.6 36.9-44.63 48.06-70.93 14.39-33.89-0.31-46.21-33.73-52.63-18.75-3.6-38.08-2.94-57.05-3.7zm-247.56 1554.3c-20.19-0.4-33.92 4.6-48.01 19.39-8.36 8.75-11.69 11.64-12.96 18.08-8 40.44-6.68 80.96-12.26 121.82-3.94 28.93-6.28 58.08-10.41 86.92-1.04 7.27-3.54 6.73-4.4 17.01-3.79 44.8-8.3 89.01-17.53 133.41-6.94 33.43-16.79 67.33-11.17 101.22 4.67 28.21 41.03 40.68 65.26 54.06 15.56 8.59 14.1 11.3 24.85 15.3 21.15 7.86 37.29 19.94 59.35 8.96 5.56-2.77 11.06-6.24 15.49-10.72 26.32-26.65 38.69-72.16 70.64-92.26 14.98-9.42 27.61-8.38 31.1 9.57 3.6 18.64-9.93 31.55-20.86 46.13-15.57 20.76-41.99 51.84-30.08 79.46 3 6.97 8.32 13.04 14.48 17.33 7.83 5.44 18.56 5.8 26.59 11.08 9.6 6.31 15.7 17.14 25.47 23.38 3.34 2.14 8.39 2.55 11.98 0.63 8.64-4.62 18.03-10.72 20.07-20.4 9.02-42.38 4.57-43.16 9.26-64.81 6-27.69 9.89-54.49 15.98-81.96 2.72-12.24 12.71-21.99 15.8-34.14 3.63-14.36 5.37-27.24 6.86-41.63 2.55-24.78 6.96-49.94 3.94-74.77-2.53-20.7-11.98-40.16-20.2-59.38-35.21-82.37-78.22-165.03-137.96-232.12-27.46-30.82-50.03-50.73-91.28-51.56zm59.9 323.85c-3.17 0-30.38 8.52-40.62 13.71-20.17 10.27-27.39 26.44-30.96 47.7-4.5 26.88-9.39 94.77 24.22 102.39 20.69 4.68 39.22-15.89 53.06-30.91 22.85-24.77 52.62-56.73 48.56-91.67-2.74-23.65-13.53-26.17-34.59-35.99-6.15-2.87-12.89-5.21-19.67-5.23zm-33.42-96.21c-15.08 0.47-30.09 12.68-19.4 27.42 11.84 16.31 42.84 23.6 53.59 1.08 1.44-3.01-1.06-7.19-3.7-9.41-9.17-7.73-18.5-19.49-30.49-19.09zm172.75 483.73c-24.31 0.48-41.22 25.98-25.16 48.11 8.41 11.61 23.79 16.2 34.43 25.96 8.39 7.68 15.58 16.75 22.3 26.02 42.45 58.43 76.18 115.74 85.39 189.68 1.14 9.06 7.07 17.06 7.95 26.08 1.42 14.37-2.72 28.85-1.1 43.09 4.62 40.59-1.6 86.05-11.31 126.16-6.8 28.08-8.91 57.44-8.04 86.22 0.92 30.98 33.83 68 59.66 38.36 17.96-20.59 6.08-51.31 12.37-77.7 6.59-27.59 14-25.53 16.3-43.46 5.71-44.71 9.68-90.15 7.12-135.25-1.65-29.15-13.8-55.71-23.61-82.88-8.44-23.37-27.89-44.03-33.73-68.25-8.98-37.32-17.46-79.14-36.03-112.69-1.52-2.74-0.22-6.63-1.84-9.42-21.9-37.71-58.93-80.97-104.7-80.03zm-165.8-84.56c-34.34 4.49-69.21-7.76-102.61-0.15-24.55 5.58-31 40.64-39.98 61.44-6.69 15.52-3.98 32.48-9.55 48.48-15.33 43.98-25.53 89.43-42 133.06-10.53 27.89-20 55.25-32.33 82.26-11.11 24.34-21.37 49.06-34.16 72.84-29.53 54.89-84.3 94.41-104.92 154.22-2.04 5.95-2.77 12.71-0.97 18.61 8.56 28.3 41.19 32.65 66.64 29.76 31.95-3.64 57.74-26.17 75.72-53.73 19.06-29.23 28.25-62.61 36.55-96.04 8.19-33 12.08-65.09 20.32-98.05 6.23-24.87 22.39-49.38 42.19-65.65 7.61-6.25 14.41-7.72 19.19 1.01 17.95 32.93 3.87 77.87-7.88 111.78-7.84 22.62-23.07 43.3-36 63.4-11.13 17.3-21.03 35.65-31.96 53.12-3.79 6.09-2.37 14.4-5.75 20.7-18.19 33.92-30.43 72.23-17.39 108.7 8.43 23.57 12.67 21.95 17.53 25.76 9.93 7.79 20.34 15.31 31.92 20.59 19.92 9.04 44.69 12.7 53.62-10.6 2.35-6.12 0.67-13.53 3.37-19.64 10.27-23.39 12.66-22.45 14.45-30.73 2.23-10.26 1.1-21.16 3.98-31.28 6.75-23.71 12.95-46.54 20.02-70.07 10.1-33.63 24.21-63.23 37.71-95.98 16.21-39.34 30.4-79.37 41.32-120.27 3.24-12.1 14.08-22.29 15.56-29.49 4.99-24.43 13.27-45.69 22.28-68.8 7.77-19.91 10.76-31.51 16.72-51.59 13.83-46.67 24.75-111.6-12.38-147.82-8.66-8.44-21.48-11.09-33.34-13.77-9.07-2.07-18.63-3.27-27.87-2.07zm-291.47 20.79c-22.89 1.61-32.55 9.37-29.17 31.35 2.59 16.94 19.63 26.36 28.14 41.13 10.11 17.53 11.93 39.11 27.44 52.65 10.63 9.28 30.72 9.1 40.81 0.17 24.11-21.39 47.28-49.6 33.46-81.85-6.82-15.92-9.82-14.17-12.29-16.63-6.21-6.17-13.35-11.62-21.24-15.58-21.7-10.86-43.1-12.92-67.15-11.24zm-16.82-101.18c-15.94 0.72-31.35 8.63-40.36 22.26-5.17 7.79-5.28 16.51-3.68 25.8 2.03 11.94 10.12 20.16 20.68 25.47 21.98 11.02 58.97 14.71 81.4 4.64 25.32-11.38 29.58-16.12 26.95-44.64-3.5-38.08-56.14-34.81-84.99-33.53zm1484.1 1246.8c-52.63 10.54-92.04 64.61-136.7 91.21-53.11 31.65-116.03 53.91-164.96 91.95-8.37 6.51-13.9 13.68-17.63 20.3-7.74 13.7-15.65 27.34-20.87 42.05-7.57 21.3-7.4 21.35-8.46 27.53-2.36 13.89-5.22 28.44-2.23 42.22 3.87 17.76 15.08 28.06 32.64 31.33 26.58 4.96 54.21 2.38 81.39 2.03 45.29-0.59 91.19-2.29 134.29-16.3 24.57-7.99 43.28-19.6 59.55-39.32 18.84-22.78 30.84-55.12 56.45-70.61 22.61-13.65 49.64-19.12 72.28-32.91 26.11-15.91 40.53-52.66 39.71-82.69-0.47-16.6-6.21-32.57-11.45-48.42-2.87-8.68-6.9-17.22-12.84-24.23-11.73-13.87-22.06-25.49-39.45-30.18-19.9-5.39-41.5-8.01-61.72-3.96zm-4.6 87.22c-7.05-1-13.24 5.15-19.86 7.54-19.84 7.19-40.12 13.27-55.93 27.77-21.57 19.77-39.25 42.16-64.59 57.12-17.04 10.06-30.54 13.44-50.07 20.67-26.79 9.94-60.91 12.97-34.85 43.76 3.99 4.72 7.63 10.16 9.07 16.22 1.43 6.02 0.28 12.34-0.96 18.27-0.97 4.61-6.01 7.59-2.19 10.48 9.95 7.56 25.5 3.6 38.42-0.61 16.65-5.42 34.45-15.42 39.46-30.03 4.4-12.8 0.18-19.96 11.01-27.53 14.12-9.83 33.31-11.54 46.35-22.85 9.34-8.14 5.48-22.51 11.21-33.47 2.77-5.32 7.96-9.16 12.91-12.72 5.48-3.95 43.81-20.9 64.74-38.94 16.27-14.02 23.08-31.72-4.72-35.68zm-360.27 64.96c-27.26 0.05-37.29 22.22-50.83 43.86-12.49 19.99-30.81 36.26-41.5 57.28-4.11 8.09-4.83 18.8-1.42 27.11 14.87 36.28 67.06 42.65 84.77 6.8 10.27-20.81 11.5-41.85 24.12-61.48 6.91-10.77 3.18-12.44 11.02-29.97 14.46-32.34 6.83-43.65-26.16-43.6zm-1556.2-34.23c-27.79 6.77-39.97 37.04-54.06 61.17-7.21 12.34-12.35 26.13-14.95 40.04-3.32 17.86-2.48 34.6 1.32 50.99 1.73 7.44 2.2 16.93 9.04 22.43 14.92 11.96 28.23 5.46 37.85-10.02 15.41-24.81 34.31-49.42 47.93-75.25 11.06-20.97 7.44-57.35-1.67-79.03-4.64-11.09-13.79-13.17-25.46-10.33zm253.47-649.01c-11.11 1.78-11.86 1.64-23.16 10.09-43.74 32.64-84.62 74.3-112.88 121.63-14.31 23.94-36.89 45.52-45.66 71.99-5.25 15.81 5.06 29.08-5.51 42.62-11.16 14.29-26.75 22.75-31.53 40.55-1.67 6.19-2.17 12.78-1 18.96 2.52 13.4 10.24 21.16 10.15 28.52-0.21 18.56-12.54 33.2-15.52 51.31-2.01 12.06-6.02 25-1.93 36.39 11.38 31.66 37.35 20.38 56.85 3.24 12.98-11.4 17.04-18.58 18.87-23.72 3.81-10.77 4.29-22.73 8.75-33.37 3.64-8.66 7.75-7.07 10.41-20.43 6.15-30.9 7.06-63.62 16.59-93.59 8.66-27.2 19.87-54.47 36.97-77.47 9.58-12.89 9.2-13.21 16.23-20.14 31.29-30.88 73.53-50.86 99.03-86.9 16.91-23.87 16.73-55.58-14.48-67.82-6.96-2.73-14.95-3.03-22.18-1.86zm342.5 117.19c-7.53 2.21-9.41 3.27-10.55 9.81-7.41 42.48-15.26 84.17-24.19 126.99-5.21 25.03-20.63 45.28-31.59 68.32-12.69 26.69-22.14 56.37-39.24 80.73-15.27 21.74-39.02 38.84-47.69 63.95-6.03 17.5 1.98 35.93 5.32 54.27 4.15 22.82 2.49 48.02 25.4 57.79 9.74 4.15 20.09 3.19 29.78-1 7.88-3.4 13.73-10.32 20.2-16.08 2.25-1.99 4.15-4.56 5.64-7.28 16.87-30.86 26.24-63.85 37.77-97.13 3.33-9.63 10.35-15.27 16.58-22.56 22.28-26.03 41.25-58.88 50.09-91.7 5.13-19.07 6.18-37.4 9.98-56.62 6.06-30.53 9.43-63.08 3.76-93.45-4.81-25.75-11.28-52.02-29.21-71.86-5.32-5.88-14.46-6.43-22.05-4.18zm82.37 140.77c-7.08 4.57-12.32 10.9-16.18 18.28-11.58 22.18-10.82 53.9-10.49 76.18 0.08 5.3 2.67 10.91 6.46 14.55 17.62 17.01 36.71 12.49 42.26-9.66 5.95-23.74 10.15-48.16 8.47-72.2-0.81-11.74-6.31-19.35-16.48-25.71-4.05-2.54-10.12-3.97-14.04-1.44zm12.99-135.76c-29.01 7.04-28.22 49.62-26.86 75.79 0.8 15.27 3.27 33.72 19.54 36.48 21.62 3.66 35.56-17.62 41.22-41.46 4.42-18.53 3.82-38.6-2.02-49.65-8.04-15.21-15.85-25.06-31.88-21.16zm23.47 351.09c-2.72 0.38-5.13 2.4-6.88 4.43-15.96 18.36-22.57 26.24-6.07 48.65 10.8 14.63 18.92 31.24 25.57 48.12 5.28 13.4 11.1 26.84 8.34 40.9-1.62 8.24-8.98 14.65-10.54 22.76-2.71 14.3-3.44 28.99-2.28 43.38 0.71 8.67 7.35 16.2 8.01 24.91 4.54 59.37-1.71 121.02-9.48 179.91-2.95 22.4-14.66 42.13-19.71 64.26-1.2 5.25-3.24 10.13-5.45 14.88-2.61 5.6-8.22 12.08-12.84 19.26-7.71 11.97-16.12 27.27-6.18 36.29 3.53 3.21 9.79 2.26 14.52 1 8.67-2.3 15.96-8.82 23.3-14.88 26.21-21.66 44.53-56.51 55.79-85.21 8.91-22.66 14.16-38.1 19.59-61.93 7.03-30.79 13.07-60.37 21.15-91.01 7.19-27.43 11.95-25.97 13.51-35.45 7.89-47.96 12.25-97.07 10-145.59-0.74-16.04-9.22-30.95-16.36-45.4-13.28-26.88-38.79-43.56-67.37-53.82-10.11-3.63-14.09-11.27-21.43-13.96-4.82-1.76-10.23-2.19-15.19-1.5zm-117.7 64.92c-21.5 1.5-22.54 17.85-31.73 35.53-2.7 5.17-8.65 8.19-11.21 13.41-16.58 33.71-54.39 46.7-43.12 87.87 6.27 22.86 21.83 41.05 25.78 64.34 2.99 17.68-2.63 35.9-0.51 53.61 2.92 24.32 6.16 46.68 11.44 70.57 5.42 24.58 32.65 40.35 37.39 64.95 3.37 17.33-10.68 30.29-17.61 46.54-3.59 8.42-5.71 20.91-7.54 32.77-1.84 11.86-4.41 25.89 3.43 31.96 11.02 8.52 21.16 5.55 27.84-5.99 10.5-18.19 11.94-39.92 21.73-58.33 9.12-17.18 24.47-27.92 30.43-46.21 5.05-15.55 4.02-31.93 9.48-47.32 5.95-16.74 12.76-33.25 21.25-49.02 8.89-16.53 11.52-15.34 12.79-21.47 9.53-45.72 9.74-93.04 10.87-139.72 0.43-18.5-5.65-29.45-9.18-47.14-7.06-35.29-31.75-68.78-63.61-83-8.64-3.86-18.62-3.99-27.92-3.35zm845.01 119.2c-24.67 4.88-24.71 6.15-33.38 11.53-12.79 7.94-28.63 18.71-41.42 31.38-18.72 18.52-30.93 41.06-17.64 64.64 13.77 24.41 26.26 24.94 54.37 19.42 36.66-7.19 77.96-38.41 87.17-76.34 6.77-27.84 9.08-37.21-17.63-48.28-9.79-4.04-21.19-4.39-31.47-2.35zm-1250.8-2884.6c-25.86 1.74-43.24 11.48-45.92 39.44-5.85 60.62-3.67 118.42 3.38 178.95 1.31 11.24-1.58 22.85 0.55 33.85 4.43 22.81 8.68 44.84 15.12 67.26 14.98 52.22-11.78 108.57-31.52 155.43-9.1 21.6-18 42-26.7 63.89-10.16 25.63-24.42 50.6-29.75 77.73-5.37 27.37-12.88 59.83-4.56 86.41 13.65 43.6 39.63 81.49 76.33 109.45 22.62 17.22 52.22 24.43 57.28-11.45 4.48-31.82-8.39-64.84 2.69-95.48 7.1-19.59 23.97-39.29 46.6-87.33 6.23-13.21 5.75-27.66 3.39-42.17-5.26-32.36-10.74-31.55-12.06-58.93-1.47-30.83 30.15-44.13 47.86-67.1 18.34-23.79 12.99-62.56 13-91.79 0.01-15.32 0.96-15.82-8.87-52.95-3.01-11.37-14.36-26.88-17.19-42.08-2.21-11.82-2.65-27.15 8.97-29.84 16.11-3.72 18.84 25.49 24.07 36.96 9.65 21.26 25.92 38.8 35.31 60.17 7.25 16.57 13.28 34.03 13.57 52.03 0.21 12.74-1.47 25.74-5.49 37.84-8.68 26.12-28.49 39.16-45.17 60.59-7.24 9.28-11.28 20.74-14.52 31.88-1.98 6.83-2.55 14.34-1.11 21.28 3.09 15.07 6.79 26.16 9.47 41.32 1.93 10.89 8.55 18.48 5.47 29.09-14.69 50.71-5.42 103.21-23.15 151.55-8.47 23.09-22.6 43.73-29.21 67.27-3.68 13.12 0.24 27.6-3.3 40.64-9.57 35.21-29.73-5.62-48.74-11.09-19.93-5.71-27.93-4.01-34.27 14.88-3.26 9.72-2.22 20.47-1.6 30.58 2.07 33.97 18.14 56.27 45.59 75.29 19.15 13.27 47.08 28.12 50.3 52.22 4.49 33.62-5.85 60.65 19.29 85.44 13.06 12.89 31.57-1.7 38.92-17.07 2.55-5.35 14.61-182.4 17.52-199.66 2.17-12.82 6.19-46.43 14.15-91.38 3.01-17 8.86-33.56 12-50.68 12.75-69.53 23.52-138.19 34.29-208.1 3.62-23.47 9.82-22 15.63-52.82 9.03-48.12 17.6-96.53 13.48-145.4-2.47-29.29-33.32-48.93-48.58-73.7-10.81-17.54-6.51-34.98-8.77-55.28-2.25-20.54-7.39-40.1-15.52-59.12-6.86-16.06-5.74-17.21-21.53-36.36-33.06-40.09-67.42-79.54-106.16-114.15-11.27-10.08-25.44-8.53-40.54-7.51zm182.48-143.15c-39.21 10-29.67 32.85-37.07 70.23-4.01 20.27-24.52 30.86-30.6 49.69-13.65 42.35-7.55 77 35.06 95.98 4.67 2.08 10.46 2.32 15.45 0.8 25.1-7.62 43.61-28.93 55.6-52.33 2.89-5.67 2.79-12.54 5.64-18.37 12.36-25.39 24.68-48.83 23.89-77.23-0.31-10.93-3.3-22.01-7.76-32.12-6.7-15.24-21.22-30.79-38.04-34.79-7.26-1.71-15.07-3.68-22.17-1.86zm-168.68-184.98c-25.98 7.06-40.81 21.54-27.76 48.92 8.85 18.56 24.05 32.07 34.58 49.51 2.2 3.63 3.53 7.87 4.15 12 4.67 30.64 6.36 53.7 18.97 82.63 6.59 15.13 4 25.2 1.3 41.69-2.84 17.36-7.82 28.86 7.95 35.06 18.53 7.29 37.01 0.44 54.37-9.5 4.37-2.5 8.58-7.04 9.28-12.09 4.17-30.7-8.07-64.32 14.45-86.12 13.92-13.5 36.91-9.08 41.8-29.87 3.93-16.66-6.86-29.66-17.71-42.34-12.52-14.64-35.84-41.81-69.83-68.98-10.79-8.62-23.19-15.44-36.57-18.38-11.5-2.49-23.73-5.59-34.98-2.53zm-1326.4-275.37c-50.85 20.41-95.82 57.98-135.3 94.4-14.49 13.35-10.67 25.1-8.16 44.22 1.09 8.43 1 17.19-1.34 25.25-3.75 12.96-9.97 24.38-18.73 34.58-2.73 3.17-3.34 4.77-19.05 5.05-20.23 0.36-41.38-7.75-61.29-8.44-19.88-0.68-40.9 1.55-52.91 20.27-5.4 8.4-5.84 19.04-7.35 28.76-1.33 8.63-1.88 17.33-1.37 25.94 6.17 101.07-4.93 196.31-23.76 295.77-7.03 37.2-8.64 75.15-15.25 112.3-8.83 49.68-22.24 97.24-33.37 146.35-8.51 37.63-10.32 38.64-6.38 54.83 3.33 13.71 15.23 14.91 28.2 11.54 12.96-3.37 27.02-11.32 34.65-15.93 24.07-14.53 48.68-20.82 75.04-29.87 20.93-7.18 42.17-23.58 44.75-45.92 7.76-67.09 11.05-134.7 16.49-202.04 1.96-24.42 2.28-49.31 8.52-73.01 5.56-21.17 14.33-39.05 21.79-59.49 13.86-38.04 50.15-59.49 71.37-93.04 14.12-22.31 5.56-47.69 10.84-72.89 1.3-6.14 4.39-11.97 8.14-17.17 5.67-7.86 21.32-18.28 33.18-32.08 5.32-6.2 3.47-7.36 15.19-27.07 5.75-9.7 12.54-19.07 21.11-26.65 10.86-9.57 21.1-16.33 35.62-16.54 26.45-0.39 39.74 27.14 63 37.15 15.44 6.64 39 8.53 58.38 5.12 15.06-2.67 30.13-9.23 34.33-25.2 2.71-10.24 4.98-22.76-0.64-31.87-20.98-33.94-49.93-62.33-73.13-94.82-18.8-26.27-12.76-30.25-30.04-51.96-26.65-33.49-54.55-32.79-92.53-17.54zm195.34-128c-37.46 11.25-77.12 25.87-102.02 55.45-26.26 31.17-12.6 49.49 10.93 80.22 20.94 27.33 27.27 35.7 39.41 48.72 14.51 15.56 32.05 34.21 51.03 46.88 29.99 20.01 52.72 17.92 74.5-5.87 15.72-17.14 22.1-42.21 25.6-65.11 2.58-16.92 3.9-34.33 2.71-51.52-1.08-15.6-7.58-30.44-9.23-45.96-2.05-19.15-3.29-36.79-11.73-50.03-19.15-30-52.68-21.34-81.2-12.78zm612.13-362.29c-24.91 47.07 7.5 103.18 16.48 151.66 3.05 16.43 8.52 21.76 23.39 29.68 12.29 6.55 32.89 8.38 44.85 0.96 32.53-20.17 41.14-52.74 81.73-35.11 12.12 5.28 35.87 25.49 17.94 35.94-22.45 13.05-52.39 10.2-74.19 24.66-23.24 15.4-51.53 36.48-34.9 64.64 14.85 25.11 41.2 37.94 62.24 58.09 19.9 19.02 29.12 53.26 22.71 80.25-7.02 29.55-23.38 76.93-5.64 104.9 6.72 10.59 12 22.43 14.61 34.71 5.03 23.55 3.67 46.28 22.22 62.85 34.52 30.82 43.9 62.21 61.06 104.8 11.7 28.98 36.73 52.76 48.17 81.83 7.89 20.07 6.98 41.93 20.81 58.83 20.03 24.47 43.68 6.92 61.56-12.34 10.73-11.56 19.76-25.76 29.45-33.01 19.36-14.5 45.2-24.42 50.99-49.21 1.63-6.91 3.07-14.45 1.13-21.27-3.54-12.45-10.31-23.81-16.93-34.96-20.51-34.42-47.97-65.86-59.69-104.36-10.21-33.52-14.23-46.92-15.17-66.11-1.55-31.41 4.19-62.82 3.8-94.26-0.34-27.82-12.1-38.33-37.24-52.45-29.56-16.62-52.88-33.34-69.84-64.21-6.91-12.56-18.93-27.38-14.06-40.98 16.59-46.31 58.09-100.29 38.13-150.17-11.55-28.84-54.38-42.34-80.1-55.65-18.27-9.45-37.55-21.23-55.51-30.91-28.88-15.59-57.47-32.25-86.69-47.55-25.35-13.3-54.33-33.38-71.31-1.25zm250.19 496.28c-7.23 5.29-13.21 11.74-14.97 18.74-4.81 19.2 5.84 24.1 24.6 28.93 12.07 3.12 25.52 5.53 36.32 3.76 10.77-1.78 18.91-7.74 20.35-21.41 0.91-8.52-3.32-16.7-9.68-23.71-19.56-21.56-33.75-23.12-56.62-6.31zm884.81-157.61c-14.63 0.97-24.47 5.5-30.87 19.24-2.84 6.14-2.77 13.71-1.06 20.12 4.84 18.13 14.84 34.59 20.57 52.4 9.01 28.05 2.24 30 15.23 64.94 6.87 18.51 33.69 16.02 50.55 7.8 20.7-10.09 36.92-25.51 59.81-28.33 30.28-3.73 64.44 10.64 73.82-22.23 8.49-29.79-3.83-56.84-30.3-73.43-24.66-15.46-53.07-22.27-81.22-29.94-17.01-4.64-16.98-4.59-25.34-6-16.89-2.86-34.09-5.7-51.19-4.57zm-1828.5 2585.4c-4.05 9.37-5.96 20.29-8.13 31.27-5.43 27.32 16.21 60.12 38.64 31.17 11.36-14.68 10.84-37.26 5.63-57.45-6.87-26.69-20.06-42.1-36.14-4.99zm33.34-640.07c13.62 30.12 27.42 60.17 40.46 90.59 2.27 5.32 4.78 10.88 4.95 16.58 0.56 18.27-4.79 32.6-7.33 50.57-4.01 28.37 20.67 38.34 43.91 27.39 26.25-12.34 24.2-22.17 25.01-51.73 0.1-3.15-0.35-6.57-1.84-9.43-25.24-48.88-45.24-100.84-80.45-143.02-31.6-37.83-44.38-24.48-24.71 19.05zm-420.81-813.26c-4.69-0.63-13.25 4.09-21.05 8.15-12.98 6.76-25.08 19.57-8.95 25.95 18.28 7.25 32.94 2.77 43.03 19.54 9.98 16.55 17.44 33.09 18.7 39.23 4.32 21.03 5.55 20.73 9.42 42.48 4.08 23-0.08 44.74 3.22 65.95 7.06 45.19 34.7 33.78 29.97-9.73-4.77-43.83 10.28-87.72-13.03-128.97-15.88-28.12-26.96-57.94-61.31-62.6zm68.15 410.59c-17.38 0.81-36.69 6.66-49.18 19.34-3.15 3.19-5.82 7.19-6.67 11.53-1.92 9.78 3.33 18.54 9.28 25.91 21.91 27.2 28.22 14.73 45.74-9.94 10.5-14.8 12.38-13.59 19.46-17.4 5.06-2.74 24.59-3.92 22.86-11.05-3.95-16.06-26.7-19.07-41.49-18.39zm-439.26 3148.5c-0.34 6.01 0.37 12.9 4.71 19.72 36 56.62 65.51 94.86 73.27 109.74 4.68 8.95 8.95 17.96 11.29 25.58 2.99 9.78 2.28 21.13-13.42 23.75-15.16 2.55-20.91-5.14-29.04-15.29-25.52-31.82-39.9-72.28-64.33-104.95-10.02-13.42-11.23-12.87-18.03-16.23-17.29-8.57-38.14-12.13-55.25-2.8-28.52 15.55-77.97 57.98-58.5 92.19 18.73 32.92 44.94-9.49 70.03-12.4 22.45-2.61 37.42 20.36 48.48 38.24 6.68 10.76 19.78 34.09 23.98 54.08 2.87 13.67 2.61 30.05-10.57 32.23-19.53 3.21-27.59-15.2-44.94-25.71-18.97-11.46-40.9-3.18-62.62-6.8-28.8-4.78-30-26.58-48.22-47.44-11.71-13.39-28.65-16.87-45.77-12.31-8.29 2.2-14.93 7.92-18.77 15.67-14.17 28.57 17.87 68.71 31.14 92.84 10.11 18.39 9.92 18.85 12.41 32.26 4.62 25.01 7.39 47.71 17.24 70.89 12.74 29.95 44.05 39.61 72.18 55.58 25.25 14.32 41.05 41.52 61.43 62.12 26.26 26.55 58.73 45.71 84.84 72.11 12.17 12.32 19.53 29.77 32.8 41.39 8.39 7.33 21.52 9.11 31.32 3.16 13.11-7.95 13.13-8.07 19.41-14.13 42.82-41.45 81.16-119.73 90.11-158.74 8.95-39.03 16.17-29.27 19.23-54.97 3.05-25.71 7.32-69.35 5.11-96.87-2.22-27.52-0.05-29.5-17.45-67.39-17.39-37.89-60.28-110.29-110.64-146.36-6.23-4.46-4.69-6.18-42.94-39.23-8.09-6.98-20.19-16.4-29.65-24.23-13.08-10.82-37.11-25.77-38.84 4.3zm1046.3 1240.3c-9.41 0.58-19.21 4.31-23.52 12.63-14.35 27.64-8.91 65.24-6.21 95.64 1.04 11.9 4.29 23.9 9.84 34.3 7.68 14.5 21.65 11.6 31.34 0.8 5.06-5.7 5.69-14.4 8.93-21.8 14.02-31.9 35.56-62.4 56.45-88.1 3.75-4.6 3.67-12.7 0.83-18.06-4.39-8.25-6.66-7.31-10.32-7.67-22.6-2.19-44.55-9.15-67.34-7.74zm-777.42 235.37c-21.83 4.8-39.09 23.1-43.91 45.4-6.3 29.3 1.99 35.4 31.86 30.5 20.11-3.3 29.31-16.6 33.75-36 6.09-26.8 6.56-46.1-21.7-39.9zm-18.84-84.9c-25.73 3.4-56.03 15.6-42.76 45.8 9 20.4 42.89 17 60.16 6.9 5.74-3.4 11.35-9.2 12.61-15.9 4.45-24-3.77-40.3-30.01-36.8zm430.8-274.69c-13.77 2.09-21.78 10.13-29.27 18.27-20.8 22.57-16.1 35.23-0.92 58.73 13.13 20.3 30.83 37 47.75 53.82 12.74 12.67 25.34 25.97 41.1 35.07 16.17 9.3 35.06 14.3 48.76-0.3 6.25-6.8 5.89-7.6 6.25-12.4 3.53-46.95-8.14-81.1-37.82-118.76-11.01-13.97-23.19-27.75-40.88-31.89-11.45-2.69-23.46-4.3-34.97-2.54zm892.86-323.76c-63.56 10.77-73.49 84.1-92.94 134.91-1.88 4.9-3.22 11.19-0.6 15.71 8.68 14.99 18.77 31.25 40.7 46.46 50.47 35.01 107.53 58.27 161.3 88.16 2.34 1.3 4.06 3.82 6.62 4.9 36.74 15.59 72.9 34.64 110.6 47.81 23.37 8.16 87.33 3.6 77.85 40.6-6.38 24.99-41.2 28.16-23.79 57.64 5.94 10.08 13.94 18.92 22.74 26.5 9.68 8.36 20.32 16.06 32.13 20.96 40.71 16.9 85.03 21.2 126.33 37 24.95 9.5 49.76 30.3 74.52 13 9.28-6.5 16.28-15.9 23.58-24.7 3.94-4.7 7.77-9.9 10.16-15.7 30.86-75.59 53.6-154.16 34.56-235.3-3.87-16.5-5.16-19.82-14.73-32.5-23.5-31.16-59.34-29.94-96.06-40.17-23.32-6.5-44.31-10.56-66.6-19.84-21.55-8.97-36.37-28.87-56.12-41.44-4.79-3.05-11.14-2.8-16.05-5.5-31.29-17.31-65.97-33.48-98.95-47.21-36.38-15.13-72.31-35.86-110.79-44.32-23.89-5.27-49.11-1.57-73.14-6.19-15.55-2.99-35.18-16.47-39.91-17.27-10.46-1.76-21.06-5.28-31.41-3.51zm-627.61 1264.8c-10.42 0.3-17.19 1.8-19.87 11.8-2.27 8.4 8.85 14.7 17.25 19.3s18.86 5.8 25.9 9.3c18.37 9.2 26.83 22.7 45.28 15 4.24-1.8 7.22-6.9 7.72-11.5 0.55-5.2-1.74-10.8-5.16-14.9-10.4-12.2-22.8-21.1-38.54-25.4-10.59-2.9-21.73-3.9-32.58-3.6zm-151.52-1041.2c-11.16-0.01-21.1 7.1-30.32 13.22-42.44 28.16-79.96 64.2-121.86 93.15-21.07 14.55-47.68 31.5-61.89 52.25-13.74 20.06-11.64 21.5-16.11 35.54-3.93 12.41-1.94 13.45-5.69 17.42-31.95 33.94-68.54 66.64-97.44 103.04-11.22 14.2-11.48 17.7-17.4 24.5-17.77 20.7-28.45 52.4-33.54 79-4.26 22.3-3.86 31.1-2.84 53.8 2.26 50.3 12.23 82.4 39.21 123.6 23.15 35.4 62.89 68 105.97 73.5 15.36 1.9 25.18-3.3 58.2 1.9 12.04 1.8 18.26 17.8 25.88 6.9 4.93-7-3.24-18.6 1.47-25.8 13.85-21.2 45.65-0.2 65.38 7.4 8.27 3.2 15.6 0.3 20.85-6.3 12.28-15.4 18.15-40 34.79-51.3 37.88-25.6 69.57-22.5 90.41-66.9 11.42-24.4 15.83-47.1 34.39-66.4 3.61-3.8 9.22-6.1 14.57-6.4 18.03-1 36.65-1.3 54.31 2.9 30.01 7.2 55.69 30.2 71.38 57.2 6.72 11.5 22.2 33.4 38.9 45.3 10.04 7.1 22.03 12.3 31.56 5 6.69-5 4.12-13.8 0.7-20.9-4.38-9.1-13.29-17.6-16.93-25-6.22-12.8-12.15-27.1-12.87-41.3-1.24-24.7-0.53-49.7 3.92-74.1 2.24-12.3 3.82-12.3 30.85-54.3 10.63-16.6 25.64-30.8 37.34-46.8 11.21-15.4 14.85-21.8 23.07-37.5 12.38-23.7 4.97-51.76 14.51-76.22 4.47-11.44 18.03-11.58 26.23-8.72 8.19 2.85 15.49 11.04 17.29 23.84 2.98 21.16 9.8 42.2 23.03 58.8 11.28 14.2 13.75 12.7 13.87 15.5 0.49 10.5-3.35 18.1-5.69 23.5-7.67 17.6-6.99 22 23.13 15.2 22.5-5.1 43.38-0.8 62.78 6.7 50.78 19.7 82.58 50.5 94.25 104.4 3.67 16.9 6.05 35.1 3.59 56.3-1.19 10.1-4.28 21.9-2.98 33 2.73 23.3 18.33 35.3 36.34 16.2 5.42-5.8 10.35-12.9 12.95-20.8 2.82-8.5 5.89-17.4 6.06-26.5 0.76-39.4-3.71-74.6-10.79-110.2-8.55-43-21.29-73.4-49.51-107.3-5.65-6.8-12.27-12.5-25.36-6.9-26.56 11.2-68 38.8-91.43 11.2-18.28-21.5-22.18-46.15-26.99-74.28-1.56-9.09-1.22-17.96-3.25-26.99-2.55-11.51-10.01-21.61-12.23-33.29-5.76-30.23-22.35-59.49-54.71-59.22-6.28 0.06-19.32 2.51-30.73 7.72-16.18 7.37-16.17 7.37-25.04 12.44-18.52 10.58-28.49 28.02-41.98 44.42-12.95 15.73-16.34 22.51-35.53 14.69-24.8-10.09-40.81-33.39-48.99-59.37-3.17-10.04-2.27-21.43-4.92-31.84-1.57-6.25-2.71-12.93-6.56-17.98-0.94-1.2-3.48-1.36-4.32-0.23-6.85 9.31-3.98 20.62-7.71 31.31-5.61 16.06-12.36 24.49-27.98 30.83-5.72 2.32-12.56 1.08-18.25-0.95-20.25-7.24-38.13-17.27-54.58-31.11-28.42-23.91-25.18-27.28-61.71-63.65-16.86-16.79-26.2-23.09-49.05-23.12zm66.71 769.72c-8.39 0.5-18.05 2.2-27.75 1.6-13.39-0.9-19.81-4.9-23.55 9.1-1.11 4.2 2.69 8.1 4.63 11.9 26.12 50.5 25.71 51.2 29.47 53.8 12.85 8.7 24.84 2.3 29.47-10.5 6.71-18.6 7.37-37.5 3-57-1.61-7.1-8.53-9.4-15.27-8.9zm412.13-2309.4c-12.66 2.59-10.08 16.68-15 28.24-16.99 39.85-30.88 80.53-46.06 121.19-9.1 24.39-4.6 25.81-11.62 43.7-6.38 16.22-19.02 37.57-21.03 57.9-0.91 9.24-3.01 20.87 4.25 25.99 9.53 6.73 19.62-6.22 25.78-18 6.16-11.75 11.23-25.7 12.58-32.92 2.57-13.76 1.66-28.05 4.53-41.75 2.92-13.87 10.96-24.39 15.99-37.64 3.58-9.47 2.64-20.38 6.24-29.98 12.07-32.27 30.89-63.27 42.35-95.73 4.71-13.29-4.15-23.85-18.01-21zm-199.36 605.1c-11.29 20.89-11.31 51.06-9.49 76.36 0.41 5.83-0.05 11.89 2.24 16.9 5.69 12.37 14.64 5.89 21.52-2.78 4.14-5.2 9.87-10.49 10.93-15.34 4.02-18.46 7.66-44.2 5.11-65.65-2.98-25.09-18.09-32.13-30.31-9.49zm1049.4-780.7c-2.92 0.56-6.75 1.39-7.9 4.13-2.17 5.12 4.7 14.9 10.91 24.44 7.95 12.27 18.49 24.55 21.19 30.09 10.09 20.63 19.96 41.74 35.88 58.33 3.89 4.06 8.1 5.58 12.94 2.31 5.82-3.93 6.13-8.45 3.59-15.08-6.01-15.67-14.73-35.95-24.01-55.19-7.22-14.97-15.69-28.88-26.58-38.12-5.31-4.51-11.13-8.17-17.8-9.77-2.72-0.65-5.58-1.63-8.22-1.14zm-1374 889.64c-23.56 13.09-15.04 30.68 0.75 49.84 43.21 52.44 84.26 101.09 116.89 160.68 14.46 26.4 28.4 53.23 43.63 79.26 16.48 28.15 20.95 47.46 31.1 76.5 9.06 25.88 22.38 23.28 30.25 3.36 1.77-4.53-1.87-23.61-6.24-41.15-4.01-16.04-12.52-27.26-17.56-42.9-14.44-44.82-40.47-89.84-65.27-129.16-21.42-33.97-42.95-68.81-66-101.67-15.62-22.25-27.4-41.19-52.36-53.26-4.62-2.23-10.8-3.93-15.19-1.5zm-148.48-81.29c-24.36 4.87-7.43 24.39 5.29 38.88 10.16 11.56 21.46 23.75 36.48 26.99 26.64 5.75 44.53 2.51 41.81-27.77-2-22.35-17.11-30.42-31.41-34.25-14.31-3.81-32.42-7.81-52.17-3.85zm-79.52 92.6c-6.14 0.18-13.92 0.13-17.75 4.9-9.44 11.72 2.02 24.63 11.05 33.81 25.36 25.82 48.78 53.82 78.65 74.23 31.99 21.86 36.55-11.35 23.64-33.86-18.05-31.48-48.24-61.65-79.35-75.19-5.09-2.22-10.65-4.06-16.24-3.89zm-20.99 141.4c24.66 46.35 71.93 72.88 115.27 101 28.96 18.79 39.92 14.45 20.04-18.29-19.32-31.85-49.36-61.92-74.66-84.76-7.42-6.68-21.18-17.18-26.06-18.99-19.75-7.32-50.96-9.77-34.59 21.04zm-71.6 139.15c8.08 23.35 14.68 48.56 31.51 66.19 16.63 17.42 29.02 26.59 51.4 16.12 11.77-5.51 23.72-12.62 31.76-23.05 16.23-21.03-23.76-20.28-39.73-25.18-26.71-8.2-40.46-26.94-56.33-47.13-3.65-4.67-6.17-10.78-11.31-14.62-24.75-18.61-10.91 17.21-7.3 27.67zm176.71 158.86c-14.46 0.55-28.11 6.32-38.53 16.39-26.59 25.72-24.8 27.68-44.19 57.27-5.31 8.1-5.46 16.11-1.3 24.76 9.58 19.98 36.14 38.11 57.67 43.16 6.11 1.43 12.67 2.25 18.95 1 15.21-3.04 27.02-11.62 41.68-16.46 12.53-4.13 36.23-0.82 33.88-16.52-3.48-23.21-5.93-43.84-9.3-66.97-1.5-10.3-1.28-11.92-12.89-23.06-14.05-13.47-26.39-20.31-45.97-19.57zm83.25-119.23c-20.78 0.92-3.74 30.2 4.28 42.67 10.12 15.76 45.16 59.81 54.5 23.63 8.41-32.58-28.08-67.64-58.78-66.3zm97.17 188.93c4.99 12.04 16.38 24.29 26.92 32.85 15.32 12.46 30.58 5.42 26.02-16.42-2.69-12.87-13.75-26.82-24.58-36.07-17.46-14.91-39.44-6.98-28.36 19.64zm104.3 81.75c-18.42 1.57-41.98 17.54-33.03 38.15 5.33 12.28 18.78 27.02 32.19 24.32 19.99-4.04 29.79-12.95 30.08-33.05 0.26-19.59-10.92-30.97-29.24-29.42zm-6.96-177.62c-10.78-1.28-17.96 11.78-21.67 22.06-5.12 14.06 10.93 45.29 27.5 64.48 32.82 38.01 25.04 5.41 26-11.98 1.68-30.45 1.32-70.63-31.83-74.56zm-23.11 305.48c-17.31 3.62-21.7 16.32-8.72 30.68 10.87 12.02 31.73-5.02 28.36-18.09-2.61-10.09-8.95-14.82-19.64-12.59zm-89.35-8.21c-18.18 3.7-17.31 7.06-24.45 12.36-30.76 22.82-62.4 45.08-100.57 54.05-9.13 2.15-16.1 10.2-25.15 12.68-40.39 10.97-82.54 24.25-118.45 45.64-4.47 2.66-7.09 8.33-7.59 13.36-4.35 44.51 70.07 1.07 81.34-5.27 37.21-20.97 77.16-37.64 113.91-59.3 23.1-13.64 53.45-23.61 74.38-41.55 6.98-5.98 12.91-12.85 17.19-21.03 2.61-5-5.1-12.06-10.61-10.94zm-480.15 369.99c-42.51 6.1 9.61 48.8 28.17 43 9-2.8 8.63-5.3 8.95-8.1 2.13-19.1-20.46-37.3-37.12-34.9zm1548.3-789.47c-28.34 6.7-51.42 32.79-80.27 36.12-52.47 6.08-106.89 0.28-158.97-8.38-31.35-5.22-54.7-30.64-85.38-39.49-9.74-2.79-16.85 2.07-14.26 11.62 5.6 20.6 37.48 28.34 55.71 36.05 9.59 4.06 22.3 9.52 29.28 15.3 14.88 12.35 15.11 12.38 25.79 26.2 20.48 26.49 24.3 35.72 57.09 27.39 17.49-4.45 33.78-10.33 51.86-10.09 37.13 0.46 74.34 1.92 111.28 5.86 8.46 0.91 16.6 4.31 24.16 8.39 16.52 8.92 108.33 52.2 82.22-0.1-16.61-33.28-43.41-60.83-66.5-90.04-11.45-14.48-15.33-22.77-32.01-18.83zm-554.17 1013c-4.58 13.7-8.07 28.6-4.73 41 5.41 20.2 22.4 23.9 38.04 11.4 6.31-5.1 15.17-11.3 15.15-20.1-0.05-12.3-8-25.3-14.89-36.2-18.68-29.7-25.84-19.2-33.57 3.9zm20.54 137.5c0.56 5.2 2.14 10.8 4.36 16.1 2.7 6.3 6.44 11.2 10.46 14.5 12.04 9.9 26.47 5.6 21.43-16.5-1.32-5.8-3.13-12.6-6.84-19.3-9.9-17.6-32.2-21.5-29.41 5.2zm-534.13-2801.5c-0.57 8.28 0.93 16.97-1.7 24.84-3.35 10.03-9.35 19.03-15.56 27.4-19.41 26.16-42.84 53.25-47.64 84.33-2.18 14.12-3.49 30.48 6.22 44.45 14.45 20.79 37.57-6.58 53.04-32.11 9.27-15.31 18.41-29.91 20.31-36.56 5.13-17.95 13.99-32.33 18.99-50.31 4.21-15.16 5.39-31.48 2.47-46.87-2.53-13.26-7.63-26.27-14.33-38.07-24.09-42.39-19.1-15.89-21.8 22.9zm1098.7-1788.7c-7.16 0.35-9.31 6.28-7.32 15.02 3.43 15.03 15.2 26.58 21.18 40.77 5.55 13.18 10.67 26.58 14.19 40.39 2.03 7.98-5.36 8.45-0.49 53.62 3.07 28.49 26.45 49.36 35.61 76.51 6.14 18.19 11.25 36.51 13.4 55.53 2.09 18.53 4.56 33.27 7.77 51.71 1.2 6.88-1.33 14.12 0.06 21 2.72 13.36 10.39 25.56 11.93 39.11 1.7 14.92 1.08 30.38-2.37 45-3.12 13.18-18.89 27.09-16.12 40.31 5.38 25.76 15.42 41.45 5.82 66.43-7.09 18.49-7.82 18.35-30.91 55.52-17.41 28.03-19.22 33.41 5.52 54.51 12.02 10.26 25.26 18.84 37.8 28.47 34.37 26.39 69.86 53.34 95.77 87.96 20.71 27.69 19.35 28.62 21.49 32.51 11.22 20.36 22.45 58.23 46.99 55.54 24.2-2.67 9.67-31.26-0.63-50.07-1.46-2.67-4.48-12.33-17.82-24.61-25.23-23.17-28.4-19.77-39.45-32.75-16.1-18.93-12.25-42.69-15.39-66.35-2.89-21.74-24.15-14.09-42.44-20.08-33.23-10.89-31.06-21.39-25.89-55.48 2.05-13.47 8.22-11.1 15.56-29.5 9.24-23.16 15.91-47.1 22.4-71.12 3.53-13 11.83-24.52 14.82-37.69 5.71-25.09 2.63-35.51 10.17-60.11 9.66-31.47-11.74-54.31-20.12-83.04-3.95-13.6 1.99-14.4-1.64-35.07-3.48-19.84-8.38-35.77-13.4-55.52-5.52-21.7-15.49-41.66-29.67-58.93-18.12-22.1-45.35-38.42-59.5-63.55-1.81-3.22 2.5-3.77-0.79-29.2-2.73-21.11-17.78-32.3-30.14-49.64-7.23-10.09-14.12-37.75-26.39-37.2zm-104.96 597.38c-28.33 3.41-27.63 18.44-20.98 34.67 2.04 4.97 3.89 11.58 8.37 18.77 18.56 29.9 33.33 61.98 52.32 91.4 4.69 7.26 12.72 12.08 17.4 19.34 16.1 24.98 13.94 51.35 20.25 80.36 7.33 33.74 39.83 48.21 54.35 8.71 5.27-14.33 5.09-30.69 2.41-45.71-3.73-20.97-7.32-40.43-16.8-59.43-14.99-30.06-16.02-29.79-26.94-42.24-14.46-16.49-34.46-28.53-46.5-46.75-12.88-19.51-18.5-62.17-43.88-59.12zm-360.91-236.06c-10.67 8.45-20.45 18.83-30.57 28.14-1.24 1.14-1.6 2.84-2.76 3.82-0.55 0.45-1.59-0.29-2 0.13-37.39 37.38-81.07 68.43-113.57 110.27-13.29 17.12-23.91 35.89-35.5 54.11-7.91 12.42-14.31 22.23-20.75 35.28-7.35 14.87-23.56 25.57-26.69 41.75-9.02 46.54 1.12 99.09-15.75 143.77-8.19 21.69-16.94 39.02-23.08 61.76-2.59 9.61-23.3 55.66-3.03 50.79 24.26-5.82 38.6-31.07 46.35-53.98 4.48-13.25 0.16-28.2 3.36-41.82 6.62-28.06 12.38-50.1 20.4-77.05 5.73-19.27 22.42-33.6 30.73-52.02 6.85-15.19 6.16-33.82 11.95-49.52 15.38-41.84 45.23-78.46 76.81-110 48.13-48.06 45.34-51.29 52.83-55.28 22.06-11.76 39.41 8.5 33.8 28.95-7.33 26.71-26.48 37.07-16.18 63.62 6.79 17.52 5.73 18.8 17.57 31.84 15.34 16.9 30.66 21.73 52.03 28.29 12.29 3.77 23.01 11.69 35.31 15.85 12.34 4.17 12.2 4.53 18.37 5.64 41.65 7.5 82.91 26.95 98.58 67.69 4.14 10.78 2.09 23.11 5.21 34.1 7.91 27.96 7.62 40.76 31.13 61.7 15.64 13.91 33.98 29.39 34.03 51.35 0.12 43.56-13.37 93.13 4.58 134.35 4.65 10.66 10.22 21.08 17.3 30.3 17.12 22.27 33.72 49.66 61.82 54.92 14.06 2.63 13.48-20.6 9.5-37.49-3.98-16.88-10.3-35.22-14.02-42.74-17.97-36.43-44.86-77.94-48.74-119.42-0.77-8.27-7.23-15.43-8.07-23.75-2.64-26.16-6.03-49.28-11.2-75.23-7.72-38.75-15.76-74.21-47.75-96.16-16.78-11.5-20.54-2.3-36.85-8.94-25.32-10.3-40.01-37.09-58.59-56.62-5.94-6.23-13.51-11.25-21.65-14.08-9.26-3.23-19.93-0.29-28.95-3.87-21.61-8.54-22.47-8.11-37.61-20.86-11.75-9.88-21.16-20.34-22.04-35.57-2.78-48.21 6.24-96.31 10.39-144.37 3.44-39.7-12.44-46.77-46.7-19.65zm-140.4 520.99c-30.97 5.27-26.4 39.33-24.11 67.77 1.5 18.47 9.74 35.79 15.86 53.32 8.37 23.96 17.74 46.24 38 61.95 18.42 14.24 40.35 18.68 46.52-6.19 8.41-33.91-35.95-53.67-43.32-85.43-5.38-23.22-2.61-48.88-12.59-70.63-6.6-14.35-5.79-23.26-20.36-20.79zm-348.71 133.23c-14.93 3.03-26.69 15.68-34.25 28.93-4.54 7.96-10.09 17.16-7.85 26.22 4.68 18.89 19.3 22.16 31.29 18.5 11.98-3.65 26.54-13.96 31.03-28.05 4.07-12.76 7.36-33.8-6.31-41.85-4.2-2.47-9.24-4.71-13.91-3.75zm452.6 129.98c-9.98 2.23-13.14 8.31-13.91 12.79s-0.28 11.38 6.29 19.1c6.95 8.17 17.62 5.06 23.5-0.17 5.84-5.21 11.27-16 4.69-23.64-5-5.83-13.13-9.74-20.57-8.08zm85.63 56.98c-10.54 3.68-24.84 13.35-24.21 25.79 0.18 3.64 2.14 7.05 4.38 9.79 22.04 27.08 25.14 24.67 61.17 74.13 19.66 26.99 34.66 48.76 59.06 71.8 7.28 6.87 7.77 16.2 11.62 25.22 11.91 27.91 12.21 57.18 10.34 89.17-1.95 33.28 14.1 64.37 21.83 96.78 2.4 10.06 7.65 25.14 18.17 24.86 15.21-0.41 14.46-10.74 12.21-25.94-2.05-13.87-10.68-23-6.25-36.13 10.19-30.19 8.55-39.99 2.59-71.35-4.02-21.09-5.38-40.3-9.6-61.15-4.14-20.43-21.79-34.66-26.25-55.03-1.51-6.84 2.3-14.41-0.07-20.99-12.44-34.66-39.19-54.97-71.3-74.31-26.69-16.08-30.75-52.44-56.7-70.39-2.05-1.44-4.69-3.03-6.99-2.25zm-550.32 86.44c-16.31 3.15-20.9 11.41-19.84 21.78 1.07 10.36 7.78 22.82 14.08 34.37 11.45 20.97 25.7 22.21 38.03 2 7.57-12.41 4.81-30.88-3.78-43.75-6.68-10-16.87-16.64-28.49-14.4zm-19.27-121.12c-3.81-0.01-7.55 3.12-9.2 6.39-5.75 11.43-11 26.86-11.23 40.33-0.24 13.48 4.56 25.01 18.9 28.65 18.17 4.6 24.98-6.29 27.26-23.63 2.19-16.65-5.93-30.72-14.4-45.31-2.2-3.8-7-6.43-11.33-6.43zm92.28 240.43c-32.29 4.89-27.48 25.11-13.4 44.84 6.4 8.97 14.71 17.84 22.31 25.13 12.07 11.58 27.53 19.22 39.77 30.66 14.22 13.26 21.55 32.09 35.51 45.61 11.96 11.58 16.26 8.36 21.66 20.38 13.54 30.11 16.58 59.74 42.74 80.74 29.7 23.84 67.29 37.81 96.67 61.89 11.17 9.14 19.51 21.3 28.98 32.2 28.26 32.52 56.56 56.7 96.55 75.29 21.62 10.05 41.52 21.49 62.38 33.6 6.32 3.69 12.96 7.45 18.08 12.73 11.73 12.07 13.02 11.77 21.08 29.57 9 19.9 12.68 37.77 26.25 55.03 10.89 13.87 25.28 24.56 36.48 38.08 5.66 6.83 7.02 5.91 16.33 21.84 19.54 33.45 19.81 40.34 27.47 56.39 7.49 15.7 14.07 31.11 21.92 46.51 2.46 4.86 5.06 10.99 10.18 12.55 11.94 3.62 17.81-13 17.31-23-0.35-7.02-3.22-13.43-4.99-19.91-2.97-10.79-3.76-21.64-6.2-33.15-4.88-22.93-15.96-44.09-27.04-64.64-1.81-3.35-40.85-33.48-42.53-40.37-0.26-1.06-2.37-0.58-2.95-1.43-49.59-72.9-47.08-74.9-63.68-92.93-22.64-24.58-49.38-46.33-78.95-61.88-98.71-51.94-120.64-53.43-189.33-151.32-24.4-34.79-67.36-51.53-97.9-80.62-26.12-24.87-36.77-59.98-54.56-91.27-14.38-25.29-29.45-67.18-60.14-62.52zm385.31 566.07c-15.18-1.09-22.9 14.11-19.75 29.52 11.81 57.72 14.85 57.07 23.68 81.71 5.41 15.1 14.99 28.63 18.66 44.14 6.91 29.1-12.6 61.87-18.78 90.78-2.04 9.57 1.22 20.16-2.69 29-12.64 28.58-14.12 27.82-20.88 39.95-5.76 10.37-14.58 17.55-20.13 25.77-7.13 10.55-14.27 23.13-5.68 36.9 3.24 5.18 11.1 6.83 17.27 6.27 8.19-0.74 14.67-7.53 21.28-12.54 23.58-17.95 37.49-46.59 46.63-74.13 7.08-21.44 13.08-38.82 18.36-60.85 3.49-14.62 1.78-26.17-0.17-41.16-1.29-9.99-5.84-19.4-6.6-29.52-1.11-14.63 3.75-29.68 1.17-44.25-4.96-27.91-9.35-27-11.64-44.92-3.66-28.77-8.93-74.4-40.73-76.67zm309.2-2480.4c-24.72 2.77-66.83-16.92-76.54 7.4-13.36 33.42 34.52 21.33 58.15 31.86 34.3 15.31 37.19 55.75 44.73 91.58 2.71 12.9 11.16 40.39 27.35 27.43 2.77-2.2 5.58-5.68 5.52-9.39-0.34-20.64-6.89-40.71-11.92-61.25-4.69-19.07-1.15-38.32-7.54-56.38-5.55-15.69-22.27-33.21-39.75-31.25"/><path d="m2357.3 3043.7c106.43 0 208.23-27.87 301.03-78.21 92.82-50.34 176.7-123.22 247.22-213.24 70.55-90.04 127.79-197.24 167.39-316.28 39.6-119.02 61.57-249.94 61.57-387.3s-21.97-268.28-61.57-387.28c-39.6-119.04-96.86-226.26-167.39-316.3-70.54-90-154.4-162.88-247.22-213.24-92.8-50.34-194.6-78.21-301.03-78.21-107.66 0-210.42 27.85-303.93 78.19s-177.82 123.24-248.67 213.26c-70.84 90.04-128.24 197.24-167.92 316.28-39.68 119.05-61.65 249.94-61.65 387.3s21.97 268.26 61.65 387.3 97.08 226.26 167.92 316.28c70.85 90.04 155.16 162.92 248.67 213.26 93.5 50.34 196.27 78.19 303.93 78.19zm191.81-170.16c49.51-50.11 80.46-119.45 80.46-196.17v-1252.4c0-76.73-30.95-147.28-80.46-198.64-53.71-55.74-123.74-83.39-193.78-83.3-70.09 0.1-140.23 28.01-194.2 83.3-50.09 51.36-81.05 121.91-81.05 198.64v1252.4c0 76.74 30.94 146.06 81.05 196.17 53.7 53.69 124 80.76 194.18 80.86 70.2 0.1 140.37-26.74 193.8-80.86"/><path d="m5635.1 3043.7c106.43 0 208.23-27.87 301.04-78.21s176.69-123.22 247.21-213.24c70.55-90.04 127.79-197.24 167.39-316.28 39.61-119.02 61.57-249.94 61.57-387.3s-21.96-268.28-61.57-387.28c-39.6-119.04-96.86-226.26-167.39-316.3-70.54-90-154.4-162.88-247.21-213.24-92.81-50.34-194.61-78.21-301.04-78.21-107.66 0-210.41 27.85-303.92 78.19-93.52 50.34-177.83 123.24-248.68 213.26-70.84 90.04-128.24 197.24-167.92 316.28-39.68 119.05-61.65 249.94-61.65 387.3s21.97 268.26 61.65 387.3 97.08 226.26 167.92 316.28c70.85 90.04 155.16 162.92 248.68 213.26 93.49 50.34 196.26 78.19 303.92 78.19zm191.82-170.16c49.5-50.11 80.45-119.45 80.45-196.17v-1252.4c0-76.73-30.95-147.28-80.45-198.64-53.72-55.74-123.74-83.39-193.79-83.3-70.08 0.1-140.23 28.01-194.19 83.3-50.09 51.36-81.06 121.91-81.06 198.64v1252.4c0 76.74 30.95 146.06 81.06 196.17 53.69 53.69 123.99 80.76 194.17 80.86 70.21 0.1 140.37-26.74 193.81-80.86"/><path d="m3303.8 3018.9h770.33v-104.48h-192.1v-1731.6h352.5c144.54 0 230.74 110.69 281.64 244.82 54.27 142.99 68.45 312.61 70.5 403.15h87.42v-752.45h-1370.3v104.48h192.1v1731.6h-192.1v104.48"/><path d="m4.8516 1182.9h192.11v1731.6h-192.11v104.48h902.85c77.402 0 155.73-15.39 227.73-45.65 63.74-26.8 121.28-64.5 169.68-110.63 24.2-23.06 46.12-48.24 65.38-75.23 19.26-26.98 35.86-55.77 49.44-86.06 55.92-124.76 56.52-267.08 0-391.73-27.15-59.88-66.42-114-114.82-159.81-48.4-45.82-105.95-83.35-169.68-110.05-72.05-30.19-150.43-45.57-227.73-45.57h-324.61v-811.35h192.1v-104.48h-770.34zm1014.2 1461.6c-9.8 47.32-25.543 93.09-48.379 133.09-22.843 40-52.8 74.23-91.054 98.45-38.25 24.23-84.813 38.46-140.86 38.46h-155.69v-815.77h155.69c53.215 0 97.95 14.31 135.15 38.5 37.207 24.19 66.894 58.26 90.019 97.77 23.133 39.52 39.715 84.49 50.715 130.49 10.84 45.33 16.68 92.26 17.43 139.26 0.75 47.01-3.57 94.09-13.02 139.75"/></g></g></svg>
