<svg width="640" height="640" version="1.1" viewBox="0 0 640 640" xmlns="http://www.w3.org/2000/svg">
 <g stroke-width="1.3333">
  <path d="m310.39 584.33c-0.21337-14.483 0.0493-27.689 0.58376-29.346 0.91813-2.8463 1.58-2.9934 12-2.6667l11.028 0.34576 0.41809 5.8325c0.4106 5.7277 0.3539 5.8164-3.1568 4.9352-3.997-1.0032-8.5946 2.1042-8.5946 5.8089 0 4.1492 3.975 8.09 8.1601 8.09 3.7126 0 3.978 0.3172 3.5911 4.2924-0.36638 3.764-0.90445 4.2974-4.371 4.3333-5.2242 0.0541-7.67 4.6597-6.5622 12.357 0.44717 3.1073 0.43462 7.1573-0.0279 9-0.74015 2.949-1.5502 3.3504-6.7609 3.3504h-5.92zm-52.41 16.095-5.9776-6.2385v-11.181c0-12.761 3.1443-22.296 9.5651-29.009 3.5314-3.6916 4.5374-3.9996 13.049-3.9944 8.38 5e-3 9.5954 0.36281 13.304 3.9161 2.245 2.1508 4.103 5.1483 4.129 6.6611 0.026 1.5128 0.90472 4.2505 1.9528 6.0839 2.4912 4.3579 2.4946 10.747 8e-3 15.514-1.0955 2.1005-1.9955 5.3587-2 7.2405-5e-3 2.2655-2.2238 5.7567-6.566 10.333-6.3786 6.723-6.7617 6.9119-14.022 6.9119-7.1487 0-7.7177-0.26407-13.442-6.2385zm18.907-8.6584c0.85293-0.68046 1.9591-4.2064 2.4582-7.8353 0.49911-3.629 1.4512-6.9342 2.1159-7.3449 0.66464-0.41076 1.1986-2.0614 1.1865-3.6682-0.0253-3.3791-5.2767-13.15-7.451-13.864-0.81011-0.26593-3.2101 1.7874-5.3333 4.563-3.4198 4.4705-3.9152 6.3299-4.3406 16.29-0.41211 9.6501-0.13854 11.494 1.9301 13.006 2.3834 1.7428 6.4285 1.2509 9.4342-1.147zm78.523 11.383c-0.50342-2.0058-1.3744-9.0857-1.9354-15.733-0.56107-6.6474-1.6724-13.305-2.4697-14.794-0.79727-1.4892-1.8764-7.0392-2.3981-12.333l-0.94849-9.6257h5.459c3.0025 0 8.2369-0.94311 11.632-2.0958 3.3952-1.1527 6.3722-1.8966 6.6157-1.6532 0.24344 0.24344 0.63656 2.8365 0.87357 5.7624 0.40797 5.0363 0.21776 5.3439-3.569 5.7712-5.3175 0.59996-7.3333 2.4633-7.3333 6.7786 0 5.1271 2.3298 6.7701 9.6 6.7701 6.1835 0 6.4 0.13173 6.4 3.894 0 3.2222-0.67422 4.0422-3.9079 4.7524-5.9687 1.3109-7.2279 3.6901-6.1893 11.694 1.8733 14.435 2.1505 13.613-4.7416 14.06-5.7509 0.37252-6.2346 0.15091-7.0874-3.2471zm-143.87-13.316c-3.3895-1.8367-3.7013-2.5529-2.9214-6.7103 0.48023-2.5598 2.0355-6.5605 3.4562-8.8904 1.4207-2.33 2.604-5.4363 2.6296-6.9029 0.0256-1.4667 1.5248-5.0667 3.3315-8 3.9837-6.468 4.1979-11.439 0.63188-14.667-3.324-3.0082-3.4012-6.2553-0.21719-9.1368 2.9122-2.6355 9.8744-1.745 14.539 1.8597 1.6436 1.2701 5.0333 2.693 7.5327 3.1618 6.6331 1.2444 8.54 4.0577 5.7951 8.5499-1.6438 2.6902-3.2453 3.5654-6.5248 3.5654-3.5082 0-4.7214 0.77137-6.2912 4-1.0697 2.2-2.7448 5.5926-3.7225 7.539s-1.7777 4.5992-1.7777 5.895c0 1.2958-0.95413 3.4103-2.1203 4.6989-1.1662 1.2886-2.6923 4.8888-3.3915 8.0005-1.0866 4.8359-4.1558 9.1425-6.4882 9.1041-0.36667-7e-3 -2.3742-0.93626-4.4612-2.0672zm198.12 1.2825c-3.4334-0.73127-10.941-9.2321-15.119-17.12-1.8637-3.5182-3.0578-8.794-3.5086-15.502-0.617-9.1813-0.37829-10.581 2.4588-14.418 5.2023-7.0364 10.966-9.8371 18.711-9.0929 4.3327 0.41632 7.662 1.6125 9.4417 3.3922l2.7491 2.7491-3.8603 3.4668c-3.1535 2.832-4.7691 3.3373-8.8232 2.7595-7.0571-1.0058-9.5994 3.0148-8.3301 13.174 1.8979 15.19 17.302 27.622 19.72 15.915 0.6596-3.194-0.036-4.4958-4.5109-8.4429-2.9099-2.5667-5.2815-5.0677-5.2701-5.5579 0.0383-1.6491 8.6458-6.2106 13.354-7.0767 4.4656-0.82152 4.7672-0.62489 7 4.5639 1.3292 3.089 2.3333 8.7445 2.3333 13.143 0 7.1684-0.35739 8.0676-5 12.579-4.0622 3.9478-6.2504 4.9765-11.667 5.4845-3.6667 0.34394-8.0223 0.3366-9.6792-0.0163zm-237.65-19.786c-0.91292-1.1-2.3818-2-3.2642-2-2.0856 0-7.4025-5.6696-7.4025-7.8935 0-0.94687 1.4757-3.4754 3.2794-5.6189l3.2794-3.8973 2.0006 3.8687c2.2392 4.3301 6.6278 6.0699 10.323 4.0923 3.1988-1.712 3.1161-6.6536-0.21556-12.87-1.4667-2.7365-2.6667-7.2754-2.6667-10.086 0-4.3402 0.93359-6.0055 6.1903-11.042 8.0688-7.731 10.792-8.3193 18.258-3.9441 8.441 4.9467 9.7983 6.8389 7.0694 9.8543-1.2012 1.3273-2.184 3.4161-2.184 4.6416 0 3.082-1.1684 2.7957-4.864-1.1919-2.2237-2.3994-4.2591-3.2948-6.8196-3-3.167 0.36468-3.7046 1.0842-4.0647 5.4395-0.29084 3.5179 0.40712 6.0644 2.3333 8.5131 3.6234 4.6064 3.6645 12.558 0.0816 15.801-1.4667 1.3273-2.6667 3.1922-2.6667 4.1442 0 1.8706-10.855 7.1891-14.673 7.1891-1.2836 0-3.0808-0.9-3.9938-2zm286.38-5.8125c-1.7124-2.6698-3.6985-5.8192-4.4136-6.9987-5.3599-8.8408-15.432-23.66-17.572-25.855-4.3606-4.4718-4.7764-7.4216-1.5331-10.874 1.6152-1.7193 3.6587-3.126 4.5411-3.126 0.88238 0 2.3409-0.88755 3.2412-1.9723 3.0429-3.6665 9.421-6.0868 12.167-4.6172 3.6471 1.9519 3.3439 8.2634-0.47754 9.94-3.4389 1.5088-4.7536 7.7332-2.2664 10.73 2.2776 2.7443 6.2655 2.3687 7.9331-0.74729 1.8068-3.3759 3.3059-3.3608 6.7349 0.0683 3.1244 3.1244 2.4512 7.4944-1.5928 10.341-2.9451 2.0729-3.2918 8.587-0.57698 10.84 1.4895 1.2362 3.0523 0.98681 7.2562-1.1578 5.7409-2.9288 8.8112-2.5588 10.882 1.3114 1.8001 3.3636 1.9298 3.1454-4.3704 7.3492-3.1167 2.0796-6.8667 4.7784-8.3333 5.9973-5.2398 4.3548-8.2422 4.0374-11.62-1.2281zm-334.05-29.847c-4.5833-3.7543-8.3232-7.7666-8.3107-8.9164 0.0124-1.1498 2.8501-5.0905 6.306-8.7571 3.4559-3.6667 9.0698-9.9667 12.475-14 9.1069-10.786 16.641-18.667 17.845-18.667 0.58201 0 4.5742 3.6381 8.8715 8.0847l7.8133 8.0847v9.7355c0 7.4393-0.582 10.485-2.4676 12.915-1.3572 1.7489-2.7072 3.8635-3 4.699s-3.942 4.2856-8.1092 7.6667c-7.1198 5.7767-8.0446 6.1424-15.333 6.0638-7.3072-0.0788-8.2395-0.47914-16.09-6.9095zm22.116-8.3616c2.1928-1.8451 6.2254-6.7272 8.9614-10.849l4.9745-7.4944-3.1924-2.4546c-1.7558-1.35-3.8139-2.4679-4.5735-2.4842-1.1169-0.024-13.099 13.363-18.542 20.717-1.7435 2.3554 1.4582 5.9204 5.317 5.9204 1.6873 0 4.8618-1.5096 7.0546-3.3547zm349.45 9.688c-4.1086-5.12-11.236-12.917-25.566-27.966-2.75-2.8882-5-5.9846-5-6.8809s1.95-3.4106 4.3333-5.5873c12.533-11.447 22.187-14.048 30.11-8.1136 6.2786 4.703 10.89 11.418 10.89 15.859 0 2.6106-1.6621 5.5222-5.3333 9.3429-2.9333 3.0527-5.3333 6.2118-5.3333 7.0203 0 0.80841 2.1492 3.5375 4.7761 6.0647 7.4049 7.124 7.8257 8.5956 3.5829 12.53-5.0509 4.6835-7.1947 4.2932-12.46-2.2682zm1.2052-29.496c0.32821-2.8721-0.65346-4.9546-3.9282-8.3333-4.9828-5.1409-7.1622-5.6006-9.1291-1.9253-2.3877 4.4614-1.5233 7.7807 2.9531 11.339 5.5947 4.448 9.5204 4.028 10.104-1.0808zm-210.92-94.417c-41.171 6.5289-55.106-19.888-61.907-43.224-44.419 3.751-72.829-40.293-41.442-88.88-17.686-47.253 15.632-72.062 59.025-71.009 26.129-89.272 127.86-78.517 148.37 2.265 47.17-11.624 76.534 32.646 57.827 73.343 34.487 53.29-4.0088 83.848-44.919 86.663-4.1693 35.959-34.043 44.116-57.297 41.521-0.77654 3.2341-0.0362 53.639-0.0362 53.639l-59.133 1.0382zm-190.2 94.6c-2.4535-3.3186-2.7402-4.5645-1.5053-6.542 4.0679-6.5137-1.4333-14.365-8.774-12.523-3.8029 0.95446-9.7005-3.4564-9.7005-7.2551 0-2.7984 2.5943-5.3676 5.4202-5.3676 1.2211 0 3.7457-1.2 5.6103-2.6667 1.8646-1.4667 4.7138-2.6667 6.3316-2.6667 3.0058 0 11.449-4.0925 17.151-8.313 1.7489-1.2946 4.8254-2.3537 6.8367-2.3537 2.0113 0 4.4039-0.9 5.3168-2s2.4141-2 3.336-2c1.8273 0 11.331 10.973 11.331 13.083 0 0.7156-3.2429 4.8146-7.2065 9.1089-3.9636 4.2943-11.548 13.208-16.855 19.808s-10.687 12.402-11.955 12.893c-1.6349 0.63338-3.1883-0.29974-5.337-3.2059zm12.083-21.021c2.9222 0 11.937-11.01 11.937-14.579 0-1.7988-4.8982-1.8703-6-0.0876-0.45323 0.73333-1.752 1.3333-2.8862 1.3333-2.1642 0-9.7281 5.7634-11.455 8.7287-1.3064 2.2426 2.7345 6.3284 5.2893 5.348 1.0654-0.40884 2.4674-0.74334 3.1154-0.74334zm430.62 13.701c-1.093-0.44221-3.7066-2.5234-5.8082-4.625-2.1015-2.1015-5.637-4.76-7.8565-5.9078-6.0471-3.1271-26.955-19.324-27.422-21.243-0.22366-0.91971 0.71669-2.4793 2.0897-3.4658 1.373-0.98649 3.656-3.7843 5.0733-6.2174 3.0621-5.2565 13.07-12.243 17.538-12.243 6.5714 0 16.362 7.8786 16.378 13.18 4e-3 1.1844 1.3623 3.8476 3.0193 5.9182 2.6039 3.2539 4.1858 3.8564 11.66 4.4411 11.902 0.93109 12.418 1.1527 10.597 4.5551-4.463 8.3391-9.4752 10.494-13.403 5.7618-2.2552-2.7174-11.745-2.4272-12.827 0.39229-0.54041 1.4083 5e-3 2.7782 1.4606 3.6667 1.2778 0.78014 4.213 3.0863 6.5226 5.1249 4.1052 3.6233 4.1502 3.7878 2.01 7.3333-2.2042 3.6515-5.3608 4.8145-9.0339 3.3284zm-9.519-29.188c2.1289-4.6724 1.0096-7.2512-4.7374-10.915-6.2848-4.0064-8.4232-3.0605-8.4232 3.7258 0 4.4836 0.54773 5.6164 3.2038 6.6263 1.7621 0.66994 3.5975 1.8551 4.0787 2.6337 1.5331 2.4807 4.2384 1.5275 5.878-2.071zm-469.65-16.847c-1.8246-6.8084-1.026-8.2333 6.4199-11.456 9.4942-4.109 12.15-6.9966 10.048-10.925-1.3353-2.4951-2.3712-2.8282-6.904-2.2202-2.9331 0.39342-6.6627 1.9645-8.2878 3.4913-5.8516 5.4973-11.45 2.8128-11.45-5.4907 0-4.0789 0.49113-5.0667 2.5192-5.0667 1.3855 0 7.3793-2.4 13.32-5.3333 5.9402-2.9333 11.626-5.3333 12.634-5.3333s3.3596-1.2 5.2241-2.6667c1.8646-1.4667 4.5308-2.6667 5.925-2.6667 1.3942 0 3.6995-0.88092 5.123-1.9576 3.2841-2.484 5.9215-2.5756 5.9215-0.20566 0 1.0102 0.9 2.5837 2 3.4966 4.7949 3.9794 1.6868 7.096-11.333 11.364-5.9252 1.9424-6.7897 5.9633-2.0788 9.6689l3.3997 2.6742 7.6729-3.1554c9.3771-3.8562 11.006-3.9496 11.006-0.63068 0 1.4234 0.6 2.9588 1.3333 3.412 0.73333 0.45323 1.3079 1.5386 1.2769 2.412-0.0727 2.0458-8.7323 7.588-11.856 7.588-1.3169 0-3.92 1.2-5.7845 2.6667-1.8646 1.4667-4.5646 2.6667-6 2.6667-1.4354 0-4.1354 1.2-6 2.6667-1.8646 1.4667-4.5646 2.6667-6 2.6667-1.4354 0-4.1354 1.2-6 2.6667-4.7487 3.7354-11.085 3.5612-12.129-0.33334zm495.83-10.333c-1.3273-1.4667-3.7716-2.6667-5.4317-2.6667-2.2752 0-16.125-6.2244-25.69-11.546-0.91376-0.50836 1.2649-5.2026 3.8534-8.3025 2.4783-2.968 2.8187-3.0352 5.0675-1 1.3259 1.1999 3.5635 2.1857 4.9725 2.1905 1.4089 5e-3 4.3617 1.2009 6.5617 2.6579s4.9691 2.6531 6.1535 2.6579c1.1844 5e-3 3.6163 1.1594 5.4042 2.5658 6.7053 5.2744 17.109 4.7977 17.109-0.78393 0-2.9783-6.5591-8.308-12.041-9.7841-2.74-0.7378-5.7251-2.2371-6.6337-3.3319-0.90855-1.0947-2.9284-1.9944-4.4886-1.9992-1.5602-5e-3 -4.6368-1.2009-6.8368-2.6579s-5.05-2.653-6.3333-2.6579c-3.4294-0.0133-2.9702-5.7863 0.80977-10.181l3.1431-3.6541 3.7034 2.9131c2.0369 1.6022 4.8778 2.9131 6.3133 2.9131s4.1354 1.2 6 2.6667 4.1538 2.6667 5.0872 2.6667c2.7706 0 15.654 6.8955 19.61 10.495 3.1425 2.8599 3.6667 4.3748 3.6667 10.597 0 7.7262-3.3635 15.093-8.0315 17.591-1.3529 0.72405-6.3063 1.3165-11.008 1.3165-6.8544 0-9.0258-0.52828-10.961-2.6667zm-515.95-41.255c-0.74557-1.2064-3.5383-12.25-3.5602-14.078-0.03943-3.2891 4.0777-11.839 7.2088-14.97 5.7282-5.7282 20.885-10.367 29.952-9.1672 6.3459 0.83998 16.351 6.5452 16.351 9.3237 0 1.001 0.88412 2.5538 1.9647 3.4506 1.0806 0.89682 2.3571 3.7223 2.8367 6.2789 1.0273 5.4759-0.73898 7.7177-7.1348 9.0557-4.2288 0.88465-4.3333 0.79519-4.3333-3.7078 0-3.6896-0.91742-5.3141-4.5777-8.1059-5.7042-4.3508-12.636-4.57-19.265-0.60923-10.5 6.2736-13.167 10.986-8.8915 15.71 1.1349 1.254 1.4906 2.8506 0.86172 3.8681-1.2394 2.0054-10.515 4.4042-11.413 2.9514zm552.77-7.2301c-0.83392-1.0048-5.2322-2.1344-9.8299-2.5246-4.5764-0.38838-10.121-1.6664-12.321-2.84-2.2-1.1736-6.1-2.1409-8.6667-2.1495-5.8734-0.0197-13.338-2.0607-16.728-4.5739-2.2182-1.6444-2.3576-2.3365-0.93841-4.6609 0.91666-1.5014 1.6748-4.9879 1.6849-7.7479 0.0272-7.5028 1.2454-10.689 4.4025-11.514 3.3302-0.87087 9.3838 4.0725 8.2852 6.7657-0.38828 0.95187-1.053 2.586-1.4772 3.6314-1.233 3.0388 5.2656 6.642 8.6818 4.8138 1.5158-0.81125 2.7561-2.2874 2.7561-3.2804s1.149-3.2218 2.5534-4.9531l2.5534-3.1477 3.4466 3.2324c1.9578 1.8362 3.4554 4.7158 3.467 6.6667 0.03 5.0537 1.3572 6.337 7.6393 7.387 3.1128 0.52028 5.9982 1.4938 6.412 2.1633 0.41378 0.66953 1.8815 1.2173 3.2616 1.2173 3.9471 0 4.1868 1.9175 0.97826 7.8265-3.2589 6.0018-3.915 6.3946-6.1609 3.6884zm-548.75-42.079c-0.41836-0.67692-2.4694-1.6061-4.558-2.0648-2.0885-0.45872-5.4141-2.5216-7.3901-4.5841-3.2017-3.3419-3.5487-4.6047-3.1874-11.602l0.4054-7.8518 6.3333-0.40638c6.5995-0.42347 7.5342 0.51969 4.8208 4.8645-1.1879 1.9022-1.0119 3.186 0.82001 5.9819 3.4711 5.2976 6.5864 4.4585 11.479-3.0918 2.947-4.548 6.182-7.5579 10.229-9.5168 5.6328-2.7268 6.1392-2.7597 10.497-0.68159 2.5183 1.2009 5.4797 2.1834 6.5808 2.1834 1.1142 0 3.1874 2.7651 4.6746 6.2345 2.3755 5.5418 2.4813 6.838 0.95262 11.667-1.415 4.4696-2.3895 5.5089-5.4991 5.865-2.0786 0.23803-4.7103 0.0755-5.8482-0.36113-1.8156-0.69671-1.772-1.1219 0.35582-3.4731 1.9349-2.138 2.1592-3.4118 1.1105-6.3055-1.9699-5.4356-6.6487-4.2008-13.839 3.6524-7.622 8.3248-15.938 12.725-17.937 9.4906zm508.16-3.6582c-0.48889-0.48888-0.88889-7.4218-0.88889-15.406v-14.518l6.2551 0.40639c5.7665 0.37464 6.3395 0.73381 7.3346 4.5976 0.59372 2.3052 1.9088 4.5094 2.9223 4.8984 1.0136 0.38895 10.313 1.1371 20.665 1.6626l18.823 0.95545v13.216l-14.333-0.9384c-7.8833-0.51612-14.903-1.4739-15.6-2.1283-0.69666-0.65445-3.7537-1.1899-6.7933-1.1899-5.5772 0-8.6051 2.0454-10.362 7-0.80909 2.2815-6.2124 3.2544-8.0223 1.4444z" fill="#acd684"/>
  <path d="m349.76 433.07c2.6923 0 13.024-1.9715 14.236-3.0677 1.2114-1.0963 4.9767-2.3734 8.3675-2.8382 4.9536-0.67896 7.2926-0.24498 11.903 2.2084 5.0012 2.6616 7.7052 3.0597 21.071 3.1018 13.348 0.0421 16.021-0.3311 20.647-2.8819 7.5493-4.1632 15.79-3.8654 25.263 0.9129 8.7102 4.3935 12.934 9.0482 9.9338 10.948-2.8942 1.833-6.1142 1.4145-8.6534-1.1247-1.7274-1.7275-5.0855-2.4586-12.934-2.8156-9.1277-0.41529-11.356-0.0575-16.042 2.5758-4.5789 2.5735-7.3511 3.0518-17.495 3.0184-9.9485-0.0328-13.06-0.57319-17.818-3.0943-4.9988-2.6493-7.0105-2.9502-15.157-2.2672-5.6312 0.47209-10.307 1.6144-11.675 2.8519-1.2546 1.1354-3.1639 2.0644-4.2428 2.0644-3.3926 0-9.153 4.2338-9.153 9.9982 0 7.5274 5.7772 7.445 13.991 5.1868 3.6667-1.008 8.3305-2.2148 10.364-2.6817 3.5447-0.81387 13.402 1.4859 23.636 5.5144 5.146 2.0257 12.176 1.7845 21.333-0.7319h3e-5c3.3-0.90686 8.921-2.8144 12.491-4.2389 7.2478-2.892 11.826-1.5114 20.04 2.3955 0.82838 2.9182-1.26 6.4633-8.7583 6.255-9.2403-0.25675-11.614 0.14439-15.663 2.6465-4.1926 2.5912-6.5519 2.9399-19.441 2.8732-11.642-0.0603-15.77-0.6063-20.003-2.6465-6.55-3.157-18.712-3.2441-23.418-0.16768-8.5217 2.6103-24.816 0.59904-24.816 0.59904l-0.64276-35.368s7.6968 0.74806 12.634 0.77435zm-56.9 3.4921c-1.7742 7.6979 1.7337 30.002-1.0871 31.663-4.0762 2.1815-13.104 1.8379-19.662-1.5075-7.6092-3.8819-26.232-3.915-31.139-0.0553-2.8106 2.2108-5.409 2.6667-15.2 2.6667-9.2621 0-12.883-0.57521-16.785-2.6667-8.0082-6.94-25.643-4.8963-24.942-1.2564l-4.569-6.6801c1.1578-0.0229 0.19273-0.28938 3.8594-2.0931 7.7831-3.8286 14.396-4.1797 20-1.0616 2.8701 1.5971 8.3568 2.3857 19.423 2.7917 13.765 0.50505 15.984 0.26494 20.647-2.234 7.3373-3.9326 23.087-4.0115 26.597-0.1332 2.3688 2.6175 11.615 4.2495 12.791 2.2807 10.815-19.19-16.958-20.899-26.124-20.934-11.069 3e-3 -14.013 0.45376-17.333 2.6529-5.2211 3.4578-21.976 3.7468-28 0.48309-2.2266-1.2063-8.5196-2.4573-14.194-2.8217-8.7897-0.56439-11.044-0.22995-16.366 2.4282-5.3554 2.6746-6.4154 2.8286-8.0072 1.1632-3.0888-3.2315-0.22571-7.3507 7.7224-11.111 9.202-4.3532 19.336-4.6622 26.526-0.80867 7.1793 3.8479 28.312 3.8509 34.62 5e-3 6.4106-3.9085 26.283-3.912 28.723-5e-3 8.7331 2.5906 12.755 3.0729 22.5 7.2333z" fill="#45c5e2"/>
  <path d="m280.98 470.19-0.10885-49.525c-24.565 3.7418-56.123-6.1369-59.401-43.666-48.353 0.78051-74.788-54.946-47.252-87.546-22.95-55.831 16.165-92.454 62.653-83.578 21.936-98.448 141.51-74.942 156.32 0.0501 49.726-8.5406 78.886 30.576 62.679 72.154 35.768 38.3 1.1629 96.617-43.473 100.24-6.6096 20.168-37.205 41.281-58.985 41.286l-0.28581 50.55-15.151-0.0919-0.93522-63.636c29.518 0.9923 58.488-14.173 64.269-42.017 44.216-0.86703 75.237-47.549 39.246-82.28 19.688-38.987-13.595-73.763-58.12-58.822-24.83-92.003-123.33-82.64-136.11 0.63564-49.595-15.905-81.674 25.421-55.869 62.633-29.254 33.976-14.235 76.87 40.663 79.743 5.635 22.19 9.8466 51.68 62.929 39.198l0.31823 64.854z" fill="#53b654"/>
  <path d="m537.52 251.96c-3.9259-5.31-2.0865-8.9603 5.0936-10.108 10.87-1.7382 17.056-9.1514 11.491-13.77-2.2068-1.8315-10.402-7e-3 -14.69 3.2705-4.0412 3.089-9.6142 2.5504-10.571-1.0216-1.8142-6.7696-1.0312-8.7311 4.1596-10.42 2.75-0.89455 6.1835-2.4411 7.63-3.4367 1.4465-0.99566 3.7158-1.8103 5.0428-1.8103 1.327 0 4.6435-0.98898 7.37-2.1977 5.5308-2.452 16.372-6.6133 21.937-8.4204 3.1678-1.0286 4.0091-0.67458 6.4104 2.6978 3.7672 5.2905 1.9566 8.0594-6.9602 10.644-11.834 3.4302-13.918 13.276-2.8102 13.276 2.6075 0 6.1058-1.1637 8.0165-2.6667 6.2248-4.8964 11.118-2.536 11.497 5.5455 0.17982 3.8416-0.26134 4.3833-4.2572 5.2272-2.4518 0.5178-6.3518 1.8418-8.6667 2.9423-2.3149 1.1005-7.8089 3.3013-12.209 4.8907s-10.4 4.0219-13.333 5.4055c-9.3648 4.4172-11.854 4.4093-15.15-0.0483zm-453.52-2.8055c-5.5-2.766-11.577-5.058-13.503-5.0932-1.9269-0.0353-4.2015-0.90526-5.0547-1.9333-0.85321-1.028-3.1767-2.2724-5.1633-2.7653-5.6056-1.3907-16.279-6.5487-16.279-7.867 0-1.9044 5.4421-10.165 6.6967-10.165 0.63024 0 1.4824 0.54451 1.8937 1.21 1.2417 2.0091 15.43 5.9778 16.657 4.6593 0.6157-0.66145 1.5186-2.5251 2.0064-4.1415 0.73354-2.4305-0.09461-3.5585-4.7878-6.5211-3.1211-1.9703-7.2028-4.0036-9.0704-4.5186-2.7913-0.76961-3.322-1.6262-2.9819-4.8122 0.22759-2.1318 1.5658-5.0475 2.9738-6.4794 2.5386-2.5816 2.5933-2.5788 6.5322 0.33334 2.1847 1.6152 4.8987 2.9368 6.031 2.9368s4.2978 1.2 7.0342 2.6667c2.7365 1.4667 5.6074 2.6667 6.3799 2.6667 0.77247 0 3.7582 1.2 6.635 2.6667s6.072 2.6667 7.1004 2.6667c2.3059 0 12.233 5.4771 12.233 6.7494 0 2.1538-4.1322 10.584-5.188 10.584-0.6337 0-1.8991-0.9-2.812-2s-3.0129-2-4.6667-2-3.7789-0.93033-4.7226-2.0674c-1.11-1.3375-3.4037-1.9259-6.4966-1.6667-4.469 0.37461-4.8076 0.72393-5.1919 5.3558-0.37049 4.4652-0.04095 5.0457 3.3333 5.8713 2.0595 0.50392 5.8356 2.0241 8.3914 3.3783 2.5558 1.3541 5.4058 2.462 6.3333 2.462 3.5578 0 1.2274 10.956-2.6099 12.27-0.93704 0.32089-6.2037-1.6796-11.704-4.4457zm17.244-50.126c-18.44-18.839-26.578-28.125-26.578-30.327 0-1.0637 1.1256-3.0073 2.5012-4.3192 1.3757-1.3119 2.9161-3.7353 3.4232-5.3853 1.1469-3.7319 4.6247-3.8453 10.377-0.33832 2.4011 1.4639 5.4177 2.6639 6.7037 2.6667 1.286 3e-3 4.5771 1.205 7.3136 2.6716s5.7365 2.6667 6.6667 2.6667c0.93019 0 3.9302 1.2 6.6667 2.6667 2.7365 1.4667 6.0917 2.6667 7.4561 2.6667 2.8946 0 10.225 4.0684 10.225 5.6748 0 0.60492-1.245 2.7838-2.7666 4.8418-2.0926 2.8304-3.5742 3.5876-6.0818 3.1083-2.3765-0.45429-4.4247 0.42923-7.2334 3.1201-4.373 4.1896-5.0246 7.8366-1.7298 9.6805 2.6005 1.4553 1.7596 6.3822-1.8382 10.771-2.348 2.864-2.3625 2.8543-15.106-10.165zm10.788-13.071c2.861-3.4472-0.45033-8.1158-8.4356-11.893-7.5676-3.5801-12.93-4.3863-12.93-1.944 0 3.8285 13.169 15.877 17.353 15.877 1.276 0 3.0818-0.91777 4.0127-2.0395zm404.75 20.604c-5.2863-6.2824-5.1898-19.043 0.20382-26.95 6.9465-10.184 21-16.639 33.226-15.261 5.1279 0.57799 7.2034 1.7628 12.678 7.2373 6.5013 6.5013 6.529 6.5659 4.0481 9.4265-1.3739 1.5842-4.0606 3.4744-5.9705 4.2005-3.2004 1.2168-3.5884 0.96893-4.9524-3.1643-0.81402-2.4665-2.4001-4.8376-3.5246-5.2691-6.7663-2.5965-16.567 1.4977-23.604 9.8605-5.148 6.1181-5.1393 9.4454 0.0392 14.918l3.3715 3.563-5.4303 2.7704c-2.9867 1.5237-5.7009 2.7704-6.0316 2.7704-0.3307 0-2.1546-1.846-4.0531-4.1023zm-22.846-33.837c-1.8-1.8-3.2727-3.8098-3.2727-4.4663 0-0.65645 5.7714-6.2337 12.825-12.394 7.054-6.1602 14.242-12.511 15.974-14.113 1.732-1.602 5.259-4.522 7.8378-6.489 4.4343-3.3822 4.8644-3.4612 7.9244-1.4562 1.7796 1.166 3.6654 3.4741 4.1907 5.1291 0.76621 2.4141 0.0883 3.6732-3.4291 6.3688-2.4113 1.8479-9.5455 7.8703-15.854 13.383-16.083 14.054-20.152 17.31-21.633 17.31-0.7104 0-2.7644-1.4727-4.5644-3.2727zm-358.13-11.07c-4.1357-2.7277-31.808-30.599-31.808-32.037 0-1.4953 6.6004-8.2867 8.0536-8.2867 1.3616 0 10.76 9.1837 22.318 21.809 6.1455 6.7128 7.583 7.6353 11.333 7.273 3.6009-0.34789 4.3648-1.0237 4.7266-4.1812 0.36994-3.229-1.5798-5.8074-13.667-18.073-7.754-7.8687-14.098-15.176-14.098-16.238 0-2.9813 8.0224-10.044 9.2157-8.113 0.54025 0.87414 6.6006 7.5996 13.468 14.945 13.288 14.215 18.541 21.549 18.609 25.982 0.0567 3.7276-7.1027 13.183-12.514 16.527-5.4084 3.3426-10.953 3.4817-15.637 0.39237zm338.35-9.5729c-4.3115-4.2439-7.6115-8.3169-7.3333-9.0511 0.27817-0.73418 8.7686-9.9482 18.868-20.476l18.362-19.141 3.6382 2.1956c6.931 4.1828 5.6633 7.1706-9.6366 22.713-14.438 14.667-16.34 18.227-11.392 21.317 4.2843 2.6756 3.1599 7.9664-2 9.4111-1.9882 0.55662-4.6611-1.2166-10.506-6.9697zm-296.06-25.9c-3.354-3.9259-6.0982-7.7512-6.0982-8.5006s-2.7-4.8396-6-9.0893-6-8.2587-6-8.9088c0-0.65009-2.5965-0.7926-5.77-0.3167-5.2322 0.78462-5.9862 0.53532-8.0892-2.6742-2.8035-4.2787-2.3031-5.0177 8.1443-12.028 4.2432-2.8472 9.0001-6.3056 10.571-7.6853 2.8184-2.4755 2.9017-2.4592 6.3333 1.2416 4.1784 4.5062 4.2646 5.2623 0.81068 7.1107-3.6527 1.9549-3.3537 6.8237 0.70456 11.472 4.3949 5.0339 4.168 4.7295 13.142 17.626 7.5583 10.863 7.6706 11.156 5.2863 13.79-5.2273 5.7761-6.5329 5.572-13.034-2.038zm266.14 0.86254c-1.7028-0.32472-5.2365-2.043-7.8527-3.8184s-5.2519-3.228-5.8571-3.228-1.7426-1.2-2.5275-2.6667c-1.5591-2.9132 0.20056-7.7677 3.528-9.7329 0.99295-0.58644 1.8054-1.863 1.8054-2.8367 0-0.97376 0.96251-2.5693 2.1389-3.5456 1.1764-0.97633 2.675-2.9998 3.3302-4.4966 1.5765-3.6017 3.8757-7.2082 7.5309-11.813 1.65-2.0787 3.0162-4.4835 3.0359-5.3439 0.0197-0.8604 1.7166-3.5907 3.7708-6.0673 3.4048-4.1049 4.0203-4.3573 6.9641-2.8549 1.7761 0.90642 6.6792 5.2367 10.896 9.6229 7.596 7.9014 7.6667 8.0486 7.6667 15.978 0 5.9841-0.67272 8.8583-2.6667 11.393-1.4667 1.8646-2.6667 4.1104-2.6667 4.9906s-2.6785 4.3174-5.9522 7.638c-6.9249 7.0241-12.818 8.7509-23.144 6.7817zm10.429-12.847c6.9999-6.4045 9.6007-10.128 10.798-15.459 1.42-6.32-0.2024-10.741-3.9419-10.741-2.108 0-9.5233 9.2761-9.5233 11.913 0 0.55386-1.1966 2.09-2.6592 3.4136-2.7758 2.5121-5.7482 10.936-4.5455 12.882 1.3044 2.1106 6.5314 1.0469 9.8713-2.009zm-246.2-0.53259c-1.1939-3.5466-5.7673-13.892-7.9006-17.872-1.0433-1.9465-1.8969-4.423-1.8969-5.5034 0-1.0804-0.8957-2.7077-1.9904-3.6163-1.0948-0.90855-2.6568-4.1265-3.4712-7.151-0.81441-3.0245-2.6123-7.0883-3.9954-9.0306l-2.5146-3.5315 4.4702-3.4096c2.4586-1.8753 6.0276-3.8005 7.9311-4.2782 1.9035-0.47774 4.159-1.7098 5.0122-2.7378 2.5195-3.0358 6.4918-2.217 7.9584 1.6403 1.8387 4.8362 0.55497 7.9094-4.1113 9.8423-4.477 1.8544-4.9114 3.9502-1.8023 8.6952 2.5375 3.8727 4.0851 4.0872 7.4589 1.034 2.3523-2.1288 2.6721-2.0692 5.8254 1.0841 3.9117 3.9117 3.3592 6.3955-2.1462 9.6476-4.3028 2.5417-5.1187 6.2311-1.9582 8.8541 1.1 0.91292 2 2.6717 2 3.9084 0 1.2367 0.88092 3.4132 1.9576 4.8367 2.7403 3.623 2.6028 4.0243-2.4483 7.1461-5.4782 3.3857-7.3542 3.4847-8.3785 0.44208zm198.87-6.057c-5.0307-2.8422-5.3561-3.406-5.7348-9.9352-0.22084-3.8071 0.14476-9.9276 0.81244-13.601 1.1187-6.155 0.97672-6.8346-1.8095-8.6602-3.9943-2.6171-5.2046-1.0149-6.9898 9.2535-2.112 12.148-3.6667 15.333-7.4834 15.333-7.6622 0-8.9422-6.749-3.2838-17.314 1.3689-2.5558 2.4889-6.008 2.4889-7.6715s1.2-5.2635 2.6667-8 2.6667-6.2008 2.6667-7.6985c0-1.4977 0.84084-3.9235 1.8685-5.3908 1.0277-1.4672 2.0777-4.1507 2.3333-5.9633 0.66637-4.7248 6.0738-5.0333 10.798-0.61603 3.4756 3.2496 3.6698 4.0682 3.7268 15.708 0.0337 6.8795 0.81196 14.038 1.7698 16.279 1.6497 3.8598 1.7618 3.9029 3.1967 1.2306 0.81787-1.5232 1.8736-6.0232 2.346-10 1.7983-15.138 4.4632-18.748 11.785-15.964 4.4744 1.7012 4.5268 5.2827 0.20561 14.067-1.8037 3.6667-3.2982 8.0188-3.3211 9.6715-0.0229 1.6527-1.2417 5.2438-2.7084 7.9803-1.4667 2.7365-2.6667 5.9596-2.6667 7.1626 0 2.0127-6.1847 17.214-6.9832 17.164-0.19258-0.0121-2.7501-1.3778-5.6835-3.0351zm-164.58-10.113c-0.7813-1.4599-1.4469-4.9437-1.4791-7.742-0.0322-2.7982-0.96238-7.4877-2.0671-10.421-1.1047-2.9333-2.5658-9.4139-3.2468-14.401-0.681-4.9874-2.1508-10.371-3.2662-11.963-2.5382-3.6238-2.6044-7.1289-0.15241-8.0698 4.2323-1.6241 26.927-2.4355 30.388-1.0865 5.1548 2.009 7.7837 6.8227 8.1147 14.858 0.24547 5.9594-0.15818 7.2983-2.7116 8.9948-1.65 1.0962-3 2.5519-3 3.2349s3.3 5.3262 7.3333 10.318c9.1735 11.354 9.3899 13.448 1.3895 13.448-5.6935 0-6.0963-0.26669-9.5664-6.3333-3.2984-5.7665-9.209-12.166-11.347-12.285-2.0641-0.11544-2.2857 4.4524-0.39354 8.1115 1.1849 2.2913 1.8905 6.3715 1.6572 9.5822-0.39204 5.3951-0.57908 5.6061-5.3191 6.0003-3.7998 0.31606-5.2346-0.19269-6.3333-2.2457zm14.786-31.83c1.7356-3.0088 1.8385-4.4657 0.57362-8.1202-1.8636-5.3842-4.3983-6.9719-8.5934-5.3827-2.7704 1.0495-3.0388 1.765-2.2462 5.9897 2.1865 11.655 6.1876 14.583 10.266 7.5132zm89.793 27.762c-5.4362-1.3119-8.7506-3.2271-12.473-7.2074-3.0378-3.2481-3.1167-3.8913-2.4282-19.789 0.91798-21.195 3.3684-32.275 7.2651-32.849 1.5576-0.22938 4.1227 0.27373 5.7003 1.118 2.2281 1.1924 2.6886 2.3272 2.0631 5.0837-0.44288 1.9518-1.3604 10.671-2.0389 19.376-1.3996 17.956-0.49918 22.606 4.2471 21.932 4.9106-0.69745 7.5155-8.0893 8.3907-23.81 1.1257-20.219 1.028-19.949 7.2206-19.949 2.8761 0 5.6689 0.71132 6.2062 1.5807 1.2779 2.0677 0.67264 14.599-0.97089 20.101-0.70948 2.3751-1.7947 8.6261-2.4116 13.891-1.3084 11.167-4.6702 16.847-11.711 19.789-2.5951 1.0843-4.7951 1.9101-4.8889 1.835-0.0937-0.07507-1.9705-0.57088-4.1705-1.1018zm-57.158-5.5842c-1.4989-7.5476-3.0536-49.997-1.9129-52.228 1.0542-2.0621 2.7848-2.3323 12.811-2l11.593 0.38416v4.6667c0 4.3441-0.28984 4.6667-4.1934 4.6667-4.7804 0-9.8066 3.8814-9.8066 7.573 0 2.8197 4.8006 5.0937 10.753 5.0937 3.6765 0 3.9132 0.32258 3.9132 5.3333 0 5.0081-0.23809 5.3333-3.9048 5.3333-5.2968 0-8.321 3.2294-7.2698 7.7631 1.1344 4.8928 4.1922 7.1664 7.3588 5.4717 4.4975-2.407 10.597 3.5979 7.9712 7.8471-0.46809 0.75739-6.6631 1.8037-13.767 2.3251-12.871 0.94479-12.918 0.93708-13.547-2.2295z" fill="#1a1c19"/>
 </g>
 <g fill="none" stroke="#1a1c19" stroke-width="10">
  <ellipse transform="scale(-1,1)" cx="-316.85" cy="318.87" rx="206.9" ry="206.31"/>
  <ellipse transform="scale(-1,1)" cx="-318.51" cy="319.15" rx="312.1" ry="311.95"/>
 </g>
 <ellipse cx="518.01" cy="416.53" rx="4.99" ry="4.6271" fill="#acd684"/>
 <ellipse cx="525.23" cy="400.18" rx="4.99" ry="4.6271" fill="#acd684"/>
</svg>
