<?xml version="1.0" encoding="UTF-8" standalone="no"?>
<!-- Created with Inkscape (http://www.inkscape.org/) -->

<svg
   xmlns:dc="http://purl.org/dc/elements/1.1/"
   xmlns:cc="http://creativecommons.org/ns#"
   xmlns:rdf="http://www.w3.org/1999/02/22-rdf-syntax-ns#"
   xmlns:svg="http://www.w3.org/2000/svg"
   xmlns="http://www.w3.org/2000/svg"
   xmlns:sodipodi="http://sodipodi.sourceforge.net/DTD/sodipodi-0.dtd"
   xmlns:inkscape="http://www.inkscape.org/namespaces/inkscape"
   version="1.1"
   id="svg4485"
   width="640"
   height="640"
   viewBox="0 0 640 640"
   sodipodi:docname="skin_friendly_logo.svg"
   inkscape:version="0.92.1 r">
  <metadata
     id="metadata4491">
    <rdf:RDF>
      <cc:Work
         rdf:about="">
        <dc:format>image/svg+xml</dc:format>
        <dc:type
           rdf:resource="http://purl.org/dc/dcmitype/StillImage" />
        <dc:title></dc:title>
      </cc:Work>
    </rdf:RDF>
  </metadata>
  <defs
     id="defs4489" />
  <sodipodi:namedview
     pagecolor="#ffffff"
     bordercolor="#666666"
     borderopacity="1"
     objecttolerance="10"
     gridtolerance="10"
     guidetolerance="10"
     inkscape:pageopacity="0"
     inkscape:pageshadow="2"
     inkscape:window-width="1280"
     inkscape:window-height="1024"
     id="namedview4487"
     showgrid="false"
     inkscape:zoom="0.20356941"
     inkscape:cx="-84.00111"
     inkscape:cy="963.67877"
     inkscape:window-x="0"
     inkscape:window-y="0"
     inkscape:window-maximized="0"
     inkscape:current-layer="svg4485" />
  <path
     inkscape:connector-curvature="0"
     id="path4511"
     d="m 310.38796,584.33333 c -0.21337,-14.48333 0.0493,-27.68893 0.58376,-29.34576 0.91813,-2.84626 1.58005,-2.99336 12,-2.66666 L 334,552.66667 l 0.41809,5.83248 c 0.4106,5.72772 0.3539,5.81637 -3.15678,4.93525 -3.99703,-1.00319 -8.59464,2.10423 -8.59464,5.80891 0,4.14918 3.97497,8.09002 8.16008,8.09002 3.71261,0 3.978,0.3172 3.59106,4.29238 -0.36638,3.76396 -0.90445,4.2974 -4.37097,4.33333 -5.22419,0.0541 -7.66996,4.65972 -6.56221,12.35721 0.44717,3.10728 0.43462,7.15728 -0.0279,9 -0.74015,2.949 -1.55017,3.35042 -6.76087,3.35042 h -5.91998 z M 257.97757,600.42813 252,594.1896 v -11.18096 c 0,-12.76067 3.14427,-22.29648 9.56508,-29.00864 3.53136,-3.6916 4.53743,-3.99957 13.04889,-3.99444 8.37996,0.005 9.59543,0.36281 13.30428,3.91612 2.24496,2.15081 4.10302,5.14831 4.129,6.66111 0.026,1.5128 0.90472,4.25054 1.95275,6.08388 2.4912,4.35789 2.49457,10.74686 0.008,15.51425 -1.09548,2.10049 -1.99548,5.35873 -2,7.24053 -0.005,2.26547 -2.22385,5.75674 -6.56596,10.33334 -6.37855,6.723 -6.76173,6.91188 -14.02244,6.91188 -7.14872,0 -7.71769,-0.26407 -13.44224,-6.23854 z m 18.90654,-8.6584 c 0.85293,-0.68046 1.95913,-4.20637 2.45825,-7.83532 0.49911,-3.62896 1.45125,-6.93418 2.11588,-7.34494 0.66464,-0.41076 1.19856,-2.06144 1.18649,-3.66816 -0.0253,-3.37914 -5.27673,-13.15044 -7.45098,-13.86419 -0.81011,-0.26593 -3.21011,1.78743 -5.33334,4.56301 -3.41978,4.47052 -3.91521,6.32991 -4.34058,16.29039 -0.41211,9.65011 -0.13854,11.49365 1.93006,13.00625 2.38336,1.74276 6.42854,1.25094 9.43422,-1.14704 z m 78.52302,11.38294 c -0.50342,-2.00583 -1.37438,-9.08574 -1.93545,-15.73314 -0.56107,-6.64741 -1.67244,-13.30465 -2.46969,-14.79386 -0.79727,-1.48922 -1.87639,-7.03922 -2.39806,-12.33334 l -0.94849,-9.62566 h 5.45901 c 3.00247,0 8.23688,-0.94311 11.63204,-2.0958 3.39516,-1.15268 6.37222,-1.89662 6.61566,-1.65316 0.24344,0.24344 0.63656,2.83654 0.87357,5.76245 0.40797,5.03632 0.21776,5.34389 -3.56905,5.77116 -5.31751,0.59996 -7.33334,2.46329 -7.33334,6.7786 0,5.12707 2.3298,6.77008 9.6,6.77008 6.18354,0 6.4,0.13173 6.4,3.89405 0,3.22222 -0.67422,4.04215 -3.90786,4.75238 -5.96868,1.31094 -7.2279,3.69009 -6.18926,11.6938 1.87326,14.43509 2.15046,13.61313 -4.74165,14.05957 -5.75087,0.37252 -6.23457,0.15091 -7.08743,-3.24713 z m -143.8683,-13.31562 c -3.38954,-1.83673 -3.70131,-2.55288 -2.92138,-6.71034 0.48023,-2.5598 2.03551,-6.5605 3.45619,-8.89044 1.42068,-2.32995 2.60403,-5.43627 2.62965,-6.90294 0.0256,-1.46666 1.5248,-5.06666 3.3315,-8 3.98374,-6.46801 4.19793,-11.43942 0.63188,-14.66666 -3.32399,-3.00816 -3.40118,-6.25532 -0.21719,-9.13679 2.91217,-2.63548 9.87436,-1.74495 14.53892,1.85967 1.64363,1.27012 5.03333,2.69296 7.53269,3.16184 6.6331,1.24437 8.53995,4.05769 5.79511,8.54993 -1.64376,2.6902 -3.24533,3.56535 -6.52481,3.56535 -3.50818,0 -4.72138,0.77137 -6.29118,4 -1.06966,2.2 -2.74481,5.59257 -3.72253,7.53905 -0.97772,1.94648 -1.77768,4.59924 -1.77768,5.89501 0,1.29578 -0.95413,3.41026 -2.12029,4.69886 -1.16616,1.28858 -2.69232,4.88881 -3.39147,8.0005 -1.08655,4.83586 -4.15579,9.14254 -6.48824,9.10412 -0.36667,-0.007 -2.37419,-0.93626 -4.46117,-2.06716 z m 198.11532,1.2825 C 406.22076,590.38828 398.71327,581.88744 394.53503,574 c -1.86374,-3.51825 -3.0578,-8.79396 -3.50858,-15.50185 -0.617,-9.18134 -0.37829,-10.5811 2.45878,-14.41844 5.20226,-7.03643 10.96553,-9.83712 18.7113,-9.09286 4.3327,0.41632 7.66204,1.61246 9.44174,3.39215 l 2.74906,2.74907 -3.86033,3.46684 c -3.15348,2.83202 -4.76907,3.3373 -8.82316,2.75948 -7.05708,-1.00584 -9.5994,3.01481 -8.33011,13.17393 1.89792,15.19045 17.30223,27.62209 19.72004,15.91455 0.6596,-3.19395 -0.036,-4.49576 -4.51094,-8.44287 -2.90994,-2.56667 -5.2815,-5.06773 -5.27014,-5.55792 0.0383,-1.64911 8.6458,-6.21055 13.35398,-7.07668 4.46561,-0.82152 4.76718,-0.62489 7,4.56387 1.32925,3.089 2.33333,8.74454 2.33333,13.14261 0,7.16844 -0.35739,8.06757 -5,12.57945 -4.0622,3.9478 -6.2504,4.97648 -11.66667,5.48452 -3.66666,0.34394 -8.0223,0.3366 -9.67918,-0.0163 z M 172,571.33333 c -0.91292,-1.1 -2.3818,-2 -3.26417,-2 -2.08555,0 -7.4025,-5.66958 -7.4025,-7.89346 0,-0.94687 1.47571,-3.47538 3.27936,-5.61888 l 3.27936,-3.89731 2.00058,3.86869 c 2.23918,4.33011 6.62778,6.06986 10.32293,4.09227 3.19883,-1.71197 3.11607,-6.65364 -0.21556,-12.86973 -1.46667,-2.73648 -2.66667,-7.27536 -2.66667,-10.0864 0,-4.34016 0.93359,-6.00548 6.19026,-11.0421 8.06881,-7.73102 10.79198,-8.31929 18.25773,-3.94408 8.44096,4.94674 9.79833,6.83886 7.06936,9.85434 -1.2012,1.32732 -2.18401,3.41606 -2.18401,4.64165 0,3.08203 -1.16839,2.79572 -4.864,-1.19192 -2.22374,-2.39944 -4.25914,-3.29483 -6.81958,-3 -3.167,0.36468 -3.70465,1.08416 -4.06473,5.43951 -0.29084,3.51788 0.40712,6.06436 2.33333,8.51314 3.62343,4.60643 3.66451,12.5585 0.0816,15.80095 -1.46666,1.32732 -2.66666,3.19223 -2.66666,4.14425 0,1.87056 -10.85511,7.18908 -14.6729,7.18908 -1.28365,0 -3.08085,-0.9 -3.99377,-2 z m 286.38047,-5.81249 c -1.71238,-2.66979 -3.69851,-5.81923 -4.41362,-6.99873 -5.35992,-8.84075 -15.43194,-23.66044 -17.57234,-25.85544 -4.36055,-4.4718 -4.77644,-7.42159 -1.53312,-10.87395 1.61524,-1.71933 3.65873,-3.12605 4.5411,-3.12605 0.88238,0 2.34092,-0.88755 3.24122,-1.97234 3.04293,-3.66652 9.42101,-6.08685 12.16716,-4.61716 3.64714,1.9519 3.34393,8.26342 -0.47754,9.93999 -3.43893,1.50875 -4.75365,7.7332 -2.26641,10.73013 2.27759,2.74434 6.26547,2.36867 7.93308,-0.74729 1.80675,-3.37592 3.30592,-3.36075 6.73487,0.0683 3.12436,3.12436 2.45122,7.49438 -1.59282,10.34073 -2.94508,2.07287 -3.29181,8.58697 -0.57698,10.84008 1.48952,1.23619 3.05234,0.98681 7.2562,-1.15783 5.74089,-2.92878 8.81118,-2.55881 10.88244,1.31136 1.80012,3.36355 1.92985,3.14538 -4.37038,7.34916 -3.11666,2.07956 -6.86666,4.77835 -8.33333,5.99728 -5.2398,4.35478 -8.24224,4.03743 -11.61953,-1.22814 z M 124.33333,535.67352 c -4.58333,-3.75427 -8.32316,-7.76664 -8.31074,-8.91639 0.0124,-1.14976 2.85014,-5.09046 6.30603,-8.75713 3.4559,-3.66667 9.06982,-9.96667 12.47539,-14 9.1069,-10.78563 16.64086,-18.66667 17.84458,-18.66667 0.58201,0 4.57418,3.63812 8.87148,8.08471 l 7.81326,8.08469 v 9.7355 c 0,7.43928 -0.582,10.48546 -2.46756,12.91529 -1.35716,1.74889 -2.70716,3.86347 -3,4.69904 -0.29284,0.83557 -3.94197,4.28557 -8.10917,7.66667 -7.11977,5.77666 -8.04457,6.1424 -15.33333,6.06382 -7.30715,-0.0788 -8.23948,-0.47914 -16.08994,-6.90953 z m 22.11556,-8.36155 c 2.19276,-1.84508 6.22538,-6.7272 8.96136,-10.84914 l 4.97454,-7.49444 -3.1924,-2.45455 c -1.75582,-1.35 -3.81391,-2.46788 -4.57354,-2.48419 -1.11688,-0.024 -13.09868,13.3634 -18.54153,20.71663 -1.74347,2.3554 1.45817,5.92039 5.31697,5.92039 1.68728,0 4.86184,-1.50962 7.0546,-3.3547 z M 495.899,537 c -4.10859,-5.11995 -11.23603,-12.91668 -25.56567,-27.96636 -2.75,-2.88817 -5,-5.98457 -5,-6.88088 0,-0.89631 1.95,-3.41059 4.33334,-5.58731 12.53322,-11.44665 22.18729,-14.0481 30.10997,-8.11365 6.27864,4.703 10.89003,11.41839 10.89003,15.85876 0,2.6106 -1.66207,5.52219 -5.33334,9.34288 C 502.4,516.70617 500,519.86529 500,520.67371 c 0,0.80841 2.14924,3.53754 4.77611,6.06473 7.40492,7.12396 7.82573,8.59559 3.5829,12.52976 -5.05092,4.68348 -7.19469,4.29323 -12.46001,-2.2682 z m 1.20523,-29.49565 c 0.32821,-2.87212 -0.65346,-4.95463 -3.92823,-8.33334 -4.98279,-5.14093 -7.16216,-5.60057 -9.12909,-1.92533 -2.38768,4.46144 -1.52327,7.78067 2.95309,11.33949 5.59473,4.44795 9.52041,4.02803 10.10423,-1.08082 z M 286.18055,413.08749 c -41.17117,6.52887 -55.10639,-19.88845 -61.90725,-43.22358 -44.41899,3.75101 -72.8294,-40.29255 -41.44155,-88.87993 -17.68589,-47.25267 15.63194,-72.06237 59.02457,-71.00852 26.12853,-89.27232 127.86212,-78.51709 148.36661,2.26496 47.16997,-11.62445 76.5338,32.64636 57.82687,73.34261 34.48692,53.29018 -4.00875,83.8483 -44.91854,86.66306 -4.1693,35.95864 -34.04273,44.11609 -57.29664,41.52079 -0.77654,3.23409 -0.0362,53.63854 -0.0362,53.63854 l -59.13331,1.03825 z M 95.979807,507.68753 c -2.453542,-3.3186 -2.740228,-4.56454 -1.505284,-6.542 4.067857,-6.51368 -1.433272,-14.36525 -8.774008,-12.52284 C 81.897652,489.57715 76,485.16624 76,481.36759 76,478.56915 78.594328,476 81.420188,476 c 1.221104,0 3.745741,-1.2 5.610307,-2.66667 1.864564,-1.46666 4.713786,-2.66666 6.331605,-2.66666 3.005797,0 11.44935,-4.09251 17.15105,-8.31295 1.74889,-1.29455 4.82542,-2.35372 6.83674,-2.35372 2.01131,0 4.40386,-0.9 5.31678,-2 0.91292,-1.1 2.4141,-2 3.33597,-2 1.82731,0 11.33069,10.97327 11.33069,13.0832 0,0.7156 -3.2429,4.81461 -7.20646,9.10893 -3.96356,4.29434 -11.5484,13.20787 -16.8552,19.80787 -5.3068,6.6 -10.68651,12.40204 -11.95491,12.89343 -1.634945,0.63338 -3.188335,-0.29974 -5.336953,-3.2059 z m 12.083273,-21.02086 c 2.92221,0 11.93692,-11.01 11.93692,-14.57902 0,-1.79878 -4.89823,-1.87034 -6,-0.0876 -0.45323,0.73333 -1.75202,1.33333 -2.88621,1.33333 -2.1642,0 -9.7281,5.76344 -11.45543,8.72867 -1.306411,2.24265 2.73446,6.32839 5.28927,5.34801 1.06543,-0.40884 2.46738,-0.74334 3.11545,-0.74334 z m 430.61641,13.70145 c -1.09296,-0.44221 -3.70662,-2.52345 -5.80816,-4.625 -2.10154,-2.10153 -5.63696,-4.76005 -7.85648,-5.90781 -6.04706,-3.12706 -26.95486,-19.32363 -27.4215,-21.24252 -0.22366,-0.91971 0.71669,-2.47934 2.08966,-3.46583 1.37298,-0.98649 3.65596,-3.78431 5.07332,-6.21735 3.06212,-5.25649 13.07048,-12.24294 17.53847,-12.24294 6.57145,0 16.36219,7.87862 16.37849,13.17981 0.004,1.18444 1.36231,3.8476 3.01926,5.91815 2.60393,3.25389 4.18581,3.8564 11.66005,4.44109 11.90232,0.93109 12.41791,1.15271 10.597,4.55512 -4.46296,8.33912 -9.47519,10.49388 -13.40252,5.76175 -2.25524,-2.7174 -11.74489,-2.42718 -12.82683,0.39229 -0.54041,1.40829 0.005,2.77815 1.46055,3.66667 1.2778,0.78014 4.21296,3.08634 6.52259,5.12489 4.10518,3.62333 4.15024,3.78775 2.00996,7.33333 -2.2042,3.65148 -5.36083,4.81447 -9.03386,3.32835 z m -9.51896,-29.188 c 2.12888,-4.67239 1.00959,-7.25119 -4.73737,-10.91471 C 518.13837,456.25905 516,457.20489 516,463.99116 c 0,4.48357 0.54773,5.61643 3.20381,6.62627 1.7621,0.66994 3.59751,1.85509 4.0787,2.63366 1.53314,2.48068 4.23844,1.52754 5.87802,-2.07097 z M 59.507048,454.33333 c -1.824572,-6.80837 -1.02604,-8.23328 6.419893,-11.4558 9.494215,-4.109 12.150082,-6.99658 10.047898,-10.92454 -1.335319,-2.49507 -2.371202,-2.82819 -6.903996,-2.22022 -2.933127,0.39342 -6.662652,1.96448 -8.287835,3.49127 -5.851621,5.49731 -11.449675,2.81276 -11.449675,-5.49071 0,-4.07888 0.491127,-5.06666 2.519158,-5.06666 1.385536,0 7.379313,-2.4 13.319505,-5.33334 C 71.112189,414.4 76.797653,412 77.806361,412 c 1.008708,0 3.359568,-1.2 5.224134,-2.66667 1.864564,-1.46666 4.530801,-2.66666 5.924972,-2.66666 1.394169,0 3.699532,-0.88092 5.123026,-1.9576 3.284142,-2.484 5.921507,-2.5756 5.921507,-0.20566 0,1.0102 0.9,2.58367 2,3.49659 4.7949,3.97941 1.68675,7.09604 -11.333333,11.36423 -5.9252,1.94237 -6.789688,5.96332 -2.078779,9.66892 l 3.399699,2.67421 7.672873,-3.15537 c 9.37709,-3.85619 11.00621,-3.94955 11.00621,-0.63068 0,1.42338 0.6,2.9588 1.33333,3.41202 0.73333,0.45323 1.30794,1.53864 1.2769,2.41203 -0.0727,2.04583 -8.73231,7.58797 -11.85621,7.58797 -1.31692,0 -3.919953,1.2 -5.784518,2.66667 -1.864564,1.46667 -4.564564,2.66667 -6,2.66667 -1.435435,0 -4.135435,1.2 -6,2.66666 -1.864564,1.46667 -4.564564,2.66667 -6,2.66667 -1.435435,0 -4.135435,1.2 -6,2.66667 -4.748743,3.73536 -11.085425,3.56121 -12.129124,-0.33334 z M 555.33333,444 c -1.32732,-1.46667 -3.7716,-2.66667 -5.43174,-2.66667 -2.27515,0 -16.12476,-6.22444 -25.69,-11.54586 -0.91376,-0.50836 1.26493,-5.20255 3.85342,-8.30252 2.47831,-2.96804 2.81866,-3.0352 5.06752,-1 1.32592,1.19994 3.56354,2.18568 4.97246,2.1905 1.40892,0.005 4.36168,1.20088 6.56168,2.65788 2.2,1.457 4.96908,2.65306 6.15352,2.65788 1.18444,0.005 3.61634,1.15944 5.40424,2.5658 6.70529,5.27439 17.1089,4.79768 17.1089,-0.78393 0,-2.97829 -6.55908,-8.30799 -12.04094,-9.78411 -2.73996,-0.7378 -5.72511,-2.23713 -6.63367,-3.33188 -0.90855,-1.09473 -2.92844,-1.99438 -4.48864,-1.99921 -1.56021,-0.005 -4.63675,-1.20088 -6.83675,-2.65788 -2.2,-1.457 -5.05,-2.65305 -6.33333,-2.65788 -3.42945,-0.0133 -2.97024,-5.78631 0.80977,-10.18084 l 3.14312,-3.65408 3.70336,2.91307 c 2.03686,1.60218 4.87782,2.91306 6.31326,2.91306 1.43544,0 4.13544,1.2 6,2.66667 1.86456,1.46667 4.15382,2.66667 5.08725,2.66667 2.77057,0 15.65447,6.89549 19.60991,10.49528 3.14248,2.8599 3.66666,4.37482 3.66666,10.5968 0,7.72616 -3.36348,15.0932 -8.03152,17.59145 -1.3529,0.72405 -6.30629,1.31647 -11.0075,1.31647 -6.85435,0 -9.02576,-0.52828 -10.96098,-2.66667 z M 39.381733,402.74497 c -0.745574,-1.20636 -3.538301,-12.24973 -3.560221,-14.0783 -0.03943,-3.28907 4.07766,-11.83856 7.208791,-14.9697 5.72821,-5.72821 20.885469,-10.36732 29.951929,-9.16724 6.345904,0.83998 16.351101,6.54515 16.351101,9.32374 0,1.00101 0.884123,2.55377 1.964718,3.45058 1.080593,0.89682 2.35713,3.72231 2.836746,6.2789 1.027292,5.47593 -0.738977,7.71774 -7.134797,9.05573 -4.228764,0.88465 -4.333333,0.79519 -4.333333,-3.70783 0,-3.68958 -0.91742,-5.31409 -4.577704,-8.10593 -5.704211,-4.35081 -12.63595,-4.57003 -19.264918,-0.60923 -10.499798,6.2736 -13.166757,10.98567 -8.891498,15.70978 1.134884,1.25402 1.49056,2.85058 0.861717,3.86808 -1.239436,2.00544 -10.514699,4.40416 -11.412531,2.95142 z m 552.768937,-7.2301 c -0.83392,-1.0048 -5.23224,-2.13442 -9.82994,-2.5246 C 577.74433,392.60189 572.2,391.32391 570,390.15028 c -2.2,-1.17361 -6.1,-2.14089 -8.66667,-2.14951 -5.87341,-0.0197 -13.33804,-2.06069 -16.72825,-4.57388 -2.21825,-1.64438 -2.3576,-2.33649 -0.93841,-4.66093 0.91666,-1.50137 1.67485,-4.98792 1.68486,-7.74787 0.0272,-7.50278 1.24542,-10.68884 4.40254,-11.51445 3.33021,-0.87087 9.38382,4.07251 8.28522,6.76569 -0.38828,0.95187 -1.05301,2.586 -1.47718,3.63142 -1.233,3.0388 5.26562,6.64205 8.68181,4.81377 1.51584,-0.81125 2.75608,-2.28743 2.75608,-3.28039 0,-0.99296 1.14903,-3.22184 2.5534,-4.95309 l 2.5534,-3.14771 3.4466,3.23242 c 1.95785,1.83618 3.45541,4.71584 3.46701,6.66666 0.03,5.05368 1.35718,6.33698 7.63927,7.38699 3.11283,0.52028 5.99824,1.49376 6.41203,2.16328 0.41378,0.66953 1.88152,1.21732 3.26162,1.21732 3.94712,0 4.1868,1.91751 0.97826,7.82648 -3.25892,6.00176 -3.91502,6.39455 -6.16092,3.68839 z M 43.396732,353.43592 c -0.418355,-0.67692 -2.46944,-1.60607 -4.557967,-2.06479 -2.088526,-0.45872 -5.414074,-2.52156 -7.390106,-4.58409 -3.201731,-3.34188 -3.54866,-4.60468 -3.187388,-11.60188 L 28.666667,327.33333 35,326.92695 c 6.599519,-0.42347 7.534193,0.51969 4.820787,4.86454 -1.187916,1.90215 -1.011922,3.18602 0.820013,5.98191 3.471111,5.29759 6.586356,4.45849 11.478788,-3.09181 2.946993,-4.54799 6.181988,-7.55788 10.228508,-9.51676 5.632759,-2.72678 6.139245,-2.75967 10.497015,-0.68159 2.518282,1.20088 5.479661,2.18343 6.580841,2.18343 1.11416,0 3.187408,2.7651 4.674557,6.23448 2.375498,5.54181 2.481336,6.83801 0.952616,11.66666 -1.41503,4.46956 -2.389516,5.50888 -5.499089,5.86495 -2.078613,0.23803 -4.710284,0.0755 -5.848159,-0.36113 -1.815596,-0.69671 -1.772037,-1.12188 0.35582,-3.47314 1.934863,-2.138 2.159202,-3.4118 1.110514,-6.30553 -1.969868,-5.43561 -6.648739,-4.20076 -13.838878,3.65237 -7.622005,8.32483 -15.937726,12.72483 -17.936601,9.49059 z m 508.158828,-3.65815 c -0.48889,-0.48888 -0.88889,-7.42176 -0.88889,-15.40638 v -14.5175 l 6.25514,0.40639 c 5.76648,0.37464 6.33947,0.73381 7.33462,4.59756 0.59372,2.30515 1.90877,4.5094 2.92234,4.89836 1.01359,0.38895 10.31302,1.13712 20.66539,1.66263 l 18.82251,0.95545 v 6.60783 6.60784 l -14.33334,-0.9384 c -7.88333,-0.51612 -14.90333,-1.47387 -15.6,-2.12831 -0.69666,-0.65445 -3.75368,-1.18991 -6.79334,-1.18991 -5.5772,0 -8.60507,2.04544 -10.36215,7 -0.80909,2.28147 -6.21237,3.25435 -8.02228,1.44444 z"
     style="fill:#acd684;stroke-width:1.33333337"
     sodipodi:nodetypes="scccccssscscscsccsscscccccsccccccccssccscscsccccsssccscccccccscssscsscsccccsscccccscccccsccccsscccssscccsccsccssccccccscccccccscsccccccccsscscscccsccsccssscsscscscsscccscccccccccccccsssscscsssscscccscsccccccscccsccssccccccccscccsscccsscscscscscccsccssscscsssccccsccssccsccccssscscsscscssccsscccccccccccccccssccccccssccssscccscccsssccsssccscsccccccscscc" />
  <path
     inkscape:connector-curvature="0"
     id="path4509"
     d="m 349.75675,433.07457 c 2.69226,0 13.02434,-1.9715 14.23567,-3.06774 1.21135,-1.09626 4.97674,-2.37344 8.36752,-2.8382 4.95358,-0.67896 7.29258,-0.24498 11.90256,2.20844 5.00119,2.66161 7.70519,3.05966 21.0708,3.10184 13.34772,0.0421 16.02143,-0.3311 20.64692,-2.88194 7.54928,-4.16322 15.79003,-3.86544 25.26316,0.9129 8.7102,4.39352 12.93367,9.04824 9.93383,10.94816 -2.89425,1.83302 -6.11421,1.41453 -8.65335,-1.1247 -1.72745,-1.72752 -5.0855,-2.45856 -12.93368,-2.81565 -9.12769,-0.41529 -11.35636,-0.0575 -16.04152,2.57576 -4.57894,2.57351 -7.35108,3.05179 -17.4949,3.01843 -9.9485,-0.0328 -13.06048,-0.57319 -17.81758,-3.09434 -4.9988,-2.64926 -7.01048,-2.95016 -15.15717,-2.26717 -5.63116,0.47209 -10.30705,1.61435 -11.67455,2.85191 -1.25462,1.13542 -3.16389,2.0644 -4.24281,2.0644 -3.39263,0 -9.15295,4.23384 -9.15295,9.99816 0,7.52745 5.77716,7.445 13.99127,5.18684 3.66667,-1.00803 8.33053,-2.21479 10.36415,-2.68171 3.54468,-0.81387 13.40201,1.48591 23.63585,5.51437 5.14605,2.02571 12.17619,1.78452 21.33333,-0.7319 h 3e-5 c 3.3,-0.90686 8.921,-2.81436 12.49112,-4.23891 7.24776,-2.89199 11.82638,-1.51138 20.04028,2.39553 0.82838,2.91821 -1.26005,6.46334 -8.75826,6.25499 -9.24027,-0.25675 -11.61436,0.14439 -15.66282,2.64647 -4.19265,2.5912 -6.55192,2.93988 -19.44102,2.87322 -11.64228,-0.0603 -15.76983,-0.6063 -20.00263,-2.64646 -6.54995,-3.157 -18.71167,-3.24408 -23.41817,-0.16768 -8.52172,2.61029 -24.81624,0.59904 -24.81624,0.59904 l -0.64276,-35.36841 c 0,0 7.69683,0.74806 12.63392,0.77435 z m -56.89959,3.49214 c -1.77415,7.69786 1.73372,30.00223 -1.08706,31.66277 -4.0762,2.18151 -13.1041,1.83793 -19.66166,-1.50748 -7.6092,-3.88192 -26.23217,-3.91501 -31.13896,-0.0553 -2.81055,2.21077 -5.40904,2.66666 -15.19956,2.66666 -9.26208,0 -12.88267,-0.57521 -16.78485,-2.66666 -8.00825,-6.93995 -25.64315,-4.89632 -24.94215,-1.25637 l -4.56898,-6.6801 c 1.15778,-0.0229 0.19273,-0.28938 3.85939,-2.09307 7.78311,-3.82864 14.3965,-4.17968 20,-1.06159 2.87006,1.59707 8.35676,2.38568 19.42291,2.7917 13.76524,0.50505 15.98437,0.26494 20.64692,-2.23403 7.33731,-3.93256 23.08709,-4.01147 26.59684,-0.1332 2.36881,2.61751 11.61513,4.24953 12.79056,2.28071 10.8148,-19.18976 -16.95848,-20.89868 -26.12388,-20.9336 -11.06863,0.003 -14.01275,0.45376 -17.33333,2.65289 -5.22108,3.45779 -21.97592,3.74685 -28,0.48309 -2.22655,-1.20632 -8.51956,-2.45734 -14.19378,-2.82169 -8.78974,-0.56439 -11.04394,-0.22995 -16.36626,2.42815 -5.35543,2.67462 -6.41535,2.82861 -8.00715,1.16324 -3.08875,-3.23148 -0.22571,-7.3507 7.72245,-11.11079 9.20199,-4.35323 19.33648,-4.66219 26.52631,-0.80867 7.17928,3.84786 28.31165,3.85091 34.61953,0.005 6.41055,-3.90851 26.28286,-3.91196 28.7228,-0.005 8.73309,2.59057 12.75497,3.07294 22.49991,7.23334 z"
     style="fill:#45c5e2;fill-opacity:1;stroke-width:1.33333337"
     sodipodi:nodetypes="csccccsccccccccsscccccccsccsccccccscscccscsscccccccccsscc" />
  <path
     style="fill:#53b654;stroke-width:1.33333337"
     d="m 280.98462,470.18706 -0.10885,-49.52513 c -24.56498,3.74177 -56.12341,-6.13687 -59.40106,-43.66582 -48.3526,0.78051 -74.78824,-54.94581 -47.25244,-87.5458 -22.95037,-55.83148 16.1647,-92.4541 62.65349,-83.57778 21.93625,-98.44834 141.5133,-74.94245 156.32203,0.0501 49.72575,-8.54065 78.88619,30.57625 62.67929,72.15446 35.76805,38.29988 1.16287,96.61665 -43.47274,100.23544 -6.60957,20.16833 -37.20546,41.28116 -58.98502,41.28596 l -0.28581,50.55011 -15.15082,-0.0919 -0.93522,-63.63612 c 29.5182,0.9923 58.48793,-14.17313 64.26872,-42.01709 44.21554,-0.86703 75.23655,-47.54911 39.24641,-82.27997 19.68786,-38.98745 -13.59473,-73.7634 -58.12036,-58.82233 -24.83015,-92.00318 -123.33017,-82.64009 -136.11245,0.63564 -49.59508,-15.90468 -81.67416,25.42115 -55.8691,62.633 -29.25404,33.97552 -14.235,76.87026 40.66298,79.74284 5.63499,22.19031 9.84658,51.6805 62.92885,39.19779 l 0.31823,64.85357 z"
     id="path4505"
     inkscape:connector-curvature="0"
     sodipodi:nodetypes="ccccccccccccccccccccc" />
  <path
     inkscape:connector-curvature="0"
     id="path4501"
     d="m 537.51669,251.96285 c -3.92588,-5.31004 -2.0865,-8.96034 5.09364,-10.10849 10.86983,-1.73816 17.05642,-9.15139 11.49144,-13.76989 -2.20678,-1.83148 -10.40241,-0.007 -14.68994,3.27049 -4.04118,3.08903 -9.61416,2.55045 -10.57144,-1.02163 -1.8142,-6.76964 -1.03115,-8.73114 4.15961,-10.41965 2.75,-0.89455 6.18351,-2.44108 7.63001,-3.43673 1.4465,-0.99566 3.71578,-1.81028 5.04282,-1.81028 1.32705,0 4.64354,-0.98898 7.37,-2.19772 5.53081,-2.45203 16.37181,-6.61334 21.93681,-8.42042 3.16776,-1.02864 4.00907,-0.67458 6.41039,2.69775 3.76716,5.29051 1.95656,8.0594 -6.96024,10.64405 -11.83375,3.43018 -13.91786,13.27634 -2.81016,13.27634 2.6075,0 6.10584,-1.16371 8.01654,-2.66667 6.2248,-4.89643 11.1183,-2.536 11.49656,5.54549 0.17982,3.8416 -0.26134,4.38328 -4.25716,5.22716 -2.45177,0.5178 -6.35177,1.84184 -8.66666,2.94231 -2.31491,1.10048 -7.80891,3.30129 -12.20891,4.89071 -4.4,1.58942 -10.4,4.02189 -13.33333,5.40549 -9.36479,4.41721 -11.85434,4.40927 -15.14998,-0.0483 z M 84,249.15737 c -5.5,-2.766 -11.576533,-5.05796 -13.503407,-5.09324 -1.926874,-0.0353 -4.201485,-0.90526 -5.05469,-1.93332 -0.853207,-1.02804 -3.176674,-2.27242 -5.16326,-2.76528 C 54.673047,237.97483 44,232.81684 44,231.49852 c 0,-1.90443 5.442105,-10.16519 6.696723,-10.16519 0.630244,0 1.482422,0.54451 1.893729,1.21002 1.241687,2.00909 15.429764,5.97778 16.657035,4.6593 0.615702,-0.66145 1.518592,-2.52512 2.006417,-4.14146 0.733539,-2.43048 -0.09461,-3.55846 -4.787771,-6.52111 -3.1211,-1.97027 -7.202794,-4.00363 -9.07043,-4.51859 -2.791254,-0.76961 -3.322044,-1.6262 -2.981899,-4.81221 0.227592,-2.13177 1.565807,-5.04749 2.973811,-6.47939 2.538574,-2.58164 2.593262,-2.57885 6.532206,0.33334 2.18471,1.61522 4.89867,2.93677 6.031022,2.93677 1.132352,0 4.297762,1.2 7.034244,2.66667 2.736482,1.46666 5.607442,2.66666 6.379912,2.66666 0.772469,0 3.75822,1.2 6.635001,2.66667 2.876781,1.46667 6.071953,2.66667 7.100383,2.66667 2.305906,0 12.232947,5.4771 12.232947,6.74936 0,2.15385 -4.1322,10.58397 -5.18796,10.58397 -0.6337,0 -1.89912,-0.9 -2.81204,-2 -0.91292,-1.1 -3.012915,-2 -4.666663,-2 -1.653748,0 -3.778927,-0.93033 -4.722619,-2.06741 -1.11002,-1.3375 -3.40372,-1.92594 -6.496593,-1.66667 -4.468972,0.37461 -4.807604,0.72393 -5.19193,5.35581 -0.370494,4.46519 -0.04095,5.04566 3.333334,5.8713 2.059461,0.50392 5.835589,2.02413 8.391396,3.37826 2.555806,1.35412 5.405806,2.46204 6.333333,2.46204 3.557752,0 1.227385,10.95563 -2.609881,12.26971 C 94.766668,253.92393 89.5,251.92339 84,249.15737 Z m 17.24447,-50.12584 C 82.804297,180.19235 74.666667,170.90677 74.666667,168.70449 c 0,-1.06366 1.125553,-3.00732 2.501228,-4.31921 1.375676,-1.31191 2.916109,-3.73528 3.423184,-5.38528 1.146881,-3.73191 4.62473,-3.84529 10.376694,-0.33832 2.401059,1.46393 5.417735,2.66393 6.703726,2.66667 1.285992,0.003 4.577111,1.20498 7.313591,2.67165 2.73648,1.46667 5.73648,2.66667 6.66666,2.66667 0.93019,0 3.93019,1.2 6.66667,2.66666 C 121.0549,170.8 124.41015,172 125.77453,172 128.66914,172 136,176.06839 136,177.6748 c 0,0.60492 -1.24496,2.78375 -2.76659,4.84185 -2.09261,2.83042 -3.57423,3.58763 -6.08181,3.10828 -2.37646,-0.45429 -4.42473,0.42923 -7.23341,3.12011 -4.37299,4.1896 -5.02465,7.83659 -1.72976,9.68049 2.60046,1.4553 1.75961,6.38219 -1.83818,10.77074 -2.348,2.86405 -2.36247,2.85432 -15.10578,-10.16474 z m 10.7883,-13.07101 c 2.86095,-3.44724 -0.45033,-8.11584 -8.43563,-11.89349 -7.567643,-3.58007 -12.930473,-4.38632 -12.930473,-1.944 0,3.8285 13.168883,15.87697 17.353413,15.87697 1.27604,0 3.08175,-0.91777 4.01269,-2.03948 z m 404.75242,20.60384 c -5.28634,-6.28245 -5.18983,-19.04288 0.20382,-26.95015 6.94652,-10.18378 20.99999,-16.63854 33.22566,-15.26053 5.12788,0.57799 7.20344,1.76284 12.67789,7.23729 6.50127,6.50127 6.52903,6.56591 4.04808,9.42647 -1.37393,1.58416 -4.06065,3.47439 -5.97049,4.20051 -3.20042,1.2168 -3.58835,0.96893 -4.95244,-3.1643 -0.81402,-2.46648 -2.40007,-4.83757 -3.52459,-5.26908 -6.76629,-2.59648 -16.56688,1.49774 -23.60365,9.86048 -5.14802,6.11806 -5.13927,9.44535 0.0392,14.91794 l 3.37153,3.56297 -5.43033,2.77036 c -2.9867,1.52369 -5.70091,2.77035 -6.0316,2.77035 -0.3307,0 -2.15459,-1.84604 -4.05312,-4.10231 z M 493.9394,172.72727 c -1.8,-1.8 -3.27273,-3.80982 -3.27273,-4.46626 0,-0.65645 5.77144,-6.23372 12.82542,-12.39394 7.05399,-6.16022 14.2425,-12.5111 15.97447,-14.11307 1.73196,-1.60196 5.25896,-4.52199 7.83777,-6.48895 4.43427,-3.38217 4.86436,-3.46121 7.92442,-1.45618 1.77962,1.16605 3.66542,3.47413 4.19068,5.12908 0.76621,2.41408 0.0883,3.67325 -3.42908,6.36885 -2.41126,1.84792 -9.54551,7.87027 -15.8539,13.38299 C 504.05389,172.74388 499.98469,176 498.50376,176 c -0.7104,0 -2.76436,-1.47273 -4.56436,-3.27273 z M 135.80764,161.65704 C 131.67195,158.92932 104,131.05783 104,129.62003 c 0,-1.49527 6.60042,-8.2867 8.05364,-8.2867 1.36164,0 10.75981,9.18371 22.31796,21.80868 6.14553,6.71278 7.58304,7.63527 11.33333,7.27295 3.60088,-0.34789 4.36482,-1.02369 4.72658,-4.18125 0.36994,-3.22898 -1.5798,-5.80736 -13.66667,-18.07303 -7.75399,-7.8687 -14.09817,-15.17581 -14.09817,-16.23803 0,-2.98132 8.02239,-10.04379 9.21569,-8.11299 0.54025,0.87414 6.60064,7.5996 13.46752,14.94547 13.28829,14.21517 18.54112,21.54947 18.60851,25.9822 0.0567,3.72755 -7.10267,13.18298 -12.51395,16.52734 -5.40839,3.34256 -10.95285,3.48169 -15.6368,0.39237 z m 338.35325,-9.57287 c -4.31149,-4.24393 -7.61149,-8.31692 -7.33333,-9.0511 0.27817,-0.73418 8.76857,-9.94817 18.86756,-20.47553 l 18.36179,-19.14066 3.63821,2.19564 c 6.93095,4.18278 5.66331,7.17063 -9.63659,22.7134 -14.43793,14.66713 -16.34013,18.2266 -11.39186,21.31684 4.28433,2.67561 3.15994,7.96645 -2,9.41107 -1.98822,0.55662 -4.66107,-1.21658 -10.50578,-6.96966 z M 178.09825,126.18391 C 174.74421,122.25797 172,118.43271 172,117.68334 c 0,-0.74937 -2.7,-4.83955 -6,-9.0893 -3.3,-4.24975 -6,-8.25871 -6,-8.908792 0,-0.650087 -2.59652,-0.792603 -5.77005,-0.316703 -5.23216,0.784615 -5.98624,0.535318 -8.0892,-2.674201 -2.80352,-4.278713 -2.30312,-5.017741 8.14433,-12.028083 4.2432,-2.847232 9.00011,-6.305621 10.57091,-7.685312 2.81844,-2.475548 2.90169,-2.459224 6.33333,1.241638 4.17839,4.506197 4.26457,5.262276 0.81068,7.110746 -3.65273,1.954883 -3.35371,6.823674 0.70456,11.47197 4.39489,5.033857 4.16795,4.729457 13.14169,17.626417 7.55826,10.86261 7.67056,11.15556 5.28628,13.79016 -5.22729,5.77611 -6.53292,5.57196 -13.03428,-2.03797 z m 266.13911,0.86254 c -1.70279,-0.32472 -5.23651,-2.04302 -7.85273,-3.81843 C 433.76841,121.45261 431.13272,120 430.52752,120 c -0.6052,0 -1.74259,-1.2 -2.52752,-2.66667 -1.55909,-2.9132 0.20056,-7.76772 3.52797,-9.73292 0.99295,-0.58644 1.80536,-1.86297 1.80536,-2.83674 0,-0.97376 0.96251,-2.56929 2.13891,-3.54561 1.17639,-0.97633 2.67496,-2.999792 3.33015,-4.496597 1.57654,-3.601706 3.87568,-7.20817 7.53094,-11.813216 1.65,-2.078734 3.01615,-4.483479 3.03587,-5.34388 0.0197,-0.860402 1.71656,-3.59069 3.77075,-6.067306 3.40476,-4.104944 4.02029,-4.357277 6.96413,-2.854906 1.77609,0.906417 6.67925,5.23674 10.89592,9.622938 7.59604,7.901439 7.66667,8.048635 7.66667,15.977935 0,5.984102 -0.67272,8.858252 -2.66667,11.393142 -1.46667,1.86457 -2.66667,4.11035 -2.66667,4.99063 0,0.88028 -2.67848,4.31737 -5.95217,7.63797 -6.92492,7.02414 -12.81771,8.75086 -23.1438,6.78168 z m 10.42931,-12.84719 c 6.99992,-6.40452 9.6007,-10.12768 10.79849,-15.458611 C 466.88516,92.420653 465.26276,88 461.52327,88 459.41531,88 452,97.27608 452,99.913007 c 0,0.553863 -1.19663,2.089963 -2.65919,3.413553 -2.77584,2.5121 -5.74818,10.9356 -4.54546,12.88165 1.30444,2.11063 6.5314,1.04687 9.87132,-2.00895 z m -246.20251,-0.53259 c -1.19391,-3.54655 -5.76732,-13.892351 -7.90059,-17.872393 -1.04329,-1.946481 -1.8969,-4.423014 -1.8969,-5.503406 0,-1.080394 -0.8957,-2.707711 -1.99043,-3.616263 -1.09475,-0.908551 -2.65677,-4.126516 -3.4712,-7.151036 -0.81441,-3.024519 -2.61233,-7.088281 -3.99537,-9.030584 l -2.51463,-3.53146 4.47025,-3.409624 c 2.45863,-1.875293 6.02764,-3.800505 7.93112,-4.278248 1.90348,-0.477744 4.15895,-1.709756 5.01216,-2.737807 2.51946,-3.035766 6.49184,-2.21704 7.95839,1.64026 1.83872,4.836204 0.55497,7.909422 -4.11129,9.842256 -4.47695,1.85441 -4.91136,3.95022 -1.80232,8.695212 2.53749,3.872696 4.08512,4.087236 7.45892,1.033986 2.35226,-2.128764 2.67212,-2.069242 5.82545,1.084098 3.91172,3.911715 3.35917,6.395507 -2.1462,9.647611 -4.30277,2.541713 -5.11872,6.231051 -1.95819,8.854061 1.1,0.912919 2,2.671707 2,3.908417 0,1.23672 0.88092,3.41325 1.9576,4.83674 2.74032,3.62304 2.60284,4.02431 -2.4483,7.1461 -5.47823,3.38573 -7.35422,3.48471 -8.37847,0.44208 z m 198.86917,-6.057 c -5.03066,-2.84215 -5.35612,-3.40596 -5.73485,-9.935159 -0.22084,-3.807111 0.14476,-9.927626 0.81244,-13.601143 1.11871,-6.155025 0.97672,-6.834575 -1.80953,-8.660197 -3.99426,-2.617138 -5.20455,-1.014887 -6.98979,9.253496 C 391.49959,96.814488 389.94492,100 386.12824,100 c -7.66217,0 -8.94223,-6.748984 -3.2838,-17.313588 1.36889,-2.555807 2.48889,-6.007981 2.48889,-7.671499 0,-1.663518 1.2,-5.263518 2.66667,-8 1.46667,-2.736482 2.66667,-6.200804 2.66667,-7.698493 0,-1.497688 0.84084,-3.923529 1.86852,-5.390759 1.02769,-1.467229 2.07769,-4.150733 2.33333,-5.963341 0.66637,-4.724773 6.07377,-5.033263 10.79815,-0.616031 3.47557,3.249631 3.6698,4.068231 3.7268,15.70767 0.0337,6.879481 0.81196,14.038386 1.76978,16.279374 1.64972,3.85979 1.76176,3.902926 3.19668,1.230631 0.81787,-1.523153 1.87358,-6.023153 2.34602,-10 1.79832,-15.137731 4.46325,-18.747829 11.78461,-15.964253 4.4744,1.701162 4.52675,5.282678 0.20561,14.066956 -1.80369,3.666666 -3.29821,8.018841 -3.32114,9.671498 -0.0229,1.652659 -1.2417,5.243774 -2.70836,7.980255 C 421.2,89.054903 420,92.278069 420,93.481015 c 0,2.01266 -6.18467,17.213735 -6.98319,17.163715 -0.19258,-0.0121 -2.75014,-1.37784 -5.68348,-3.03506 z M 242.75387,97.496277 c -0.7813,-1.459865 -1.44687,-4.943745 -1.47906,-7.741956 -0.0322,-2.798209 -0.96238,-7.487654 -2.0671,-10.420988 -1.10472,-2.933333 -2.56578,-9.413898 -3.24679,-14.401256 -0.681,-4.987356 -2.1508,-10.37086 -3.26623,-11.963341 -2.5382,-3.623793 -2.6044,-7.128923 -0.15241,-8.069839 4.23233,-1.624101 26.92665,-2.435494 30.38799,-1.086468 5.15476,2.009027 7.78368,6.8227 8.11466,14.858307 0.24547,5.959373 -0.15818,7.298347 -2.7116,8.994753 -1.65,1.096207 -3,2.551927 -3,3.234935 0,0.683008 3.3,5.326179 7.33334,10.318156 9.17354,11.353928 9.38993,13.448087 1.38953,13.448087 -5.69351,0 -6.09633,-0.266687 -9.56644,-6.333334 -3.29841,-5.766468 -9.209,-12.165801 -11.34711,-12.285382 -2.06412,-0.11544 -2.28573,4.452374 -0.39354,8.111465 1.18486,2.291293 1.89054,6.371513 1.65722,9.582207 -0.39204,5.39509 -0.57908,5.606078 -5.31913,6.000332 -3.79983,0.316055 -5.2346,-0.192691 -6.33333,-2.245678 z m 14.78626,-31.82961 c 1.73563,-3.008848 1.83854,-4.465654 0.57362,-8.120202 -1.86362,-5.384214 -4.39828,-6.971877 -8.59338,-5.3827 -2.77045,1.049496 -3.03877,1.765012 -2.24621,5.989738 2.18652,11.655125 6.1876,14.583329 10.26597,7.513164 z m 89.7932,27.761716 c -5.43617,-1.311911 -8.75056,-3.227071 -12.47314,-7.207383 -3.03778,-3.248076 -3.1167,-3.891264 -2.42816,-19.789096 0.91798,-21.195408 3.36844,-32.275115 7.26509,-32.848959 1.5576,-0.22938 4.12273,0.273731 5.70031,1.118024 2.22809,1.192442 2.68858,2.327155 2.0631,5.083722 -0.44288,1.951753 -1.36036,10.670852 -2.03886,19.375773 -1.3996,17.956308 -0.49918,22.606111 4.24714,21.931989 4.91056,-0.69745 7.51548,-8.089294 8.39068,-23.809829 1.12567,-20.219277 1.02795,-19.949291 7.22056,-19.949291 2.87608,0 5.66886,0.711315 6.20616,1.580698 1.27791,2.067704 0.67264,14.598845 -0.97089,20.100912 -0.70948,2.375114 -1.79472,8.626132 -2.41164,13.891148 -1.30844,11.16658 -4.67023,16.847304 -11.71095,19.789106 -2.59512,1.084308 -4.79512,1.910052 -4.88889,1.834988 -0.0937,-0.07507 -1.97051,-0.570876 -4.17051,-1.101802 z m -57.15777,-5.584175 c -1.49889,-7.547599 -3.05361,-49.997071 -1.91288,-52.228371 1.05423,-2.0621 2.78485,-2.332268 12.81144,-2 L 312.66667,34 v 4.666667 c 0,4.344113 -0.28984,4.666666 -4.19335,4.666666 -4.78043,0 -9.80665,3.881396 -9.80665,7.572984 0,2.81974 4.8006,5.093683 10.75346,5.093683 3.67651,0 3.9132,0.322585 3.9132,5.333333 0,5.008131 -0.23809,5.333334 -3.90476,5.333334 -5.29682,0 -8.32102,3.22939 -7.26985,7.763104 1.13444,4.892806 4.19216,7.166388 7.3588,5.471656 4.49749,-2.406988 10.59737,3.597922 7.97121,7.847124 -0.46809,0.757393 -6.66306,1.803706 -13.76661,2.325138 -12.87091,0.944786 -12.91771,0.937083 -13.54656,-2.229481 z"
     style="fill:#1a1c19;stroke-width:1.33333337"
     sodipodi:nodetypes="cscccscscsccssccsssccccccssccsccsccscsssssssccsscsscsscsccsscsscccccscssscccsscsccccccsccssssccccssscssccssscscccccsccsccccsssssscssscccsssccsccsccssscsssccsscccccscccccscccsscssscccccsscscsssccccccsscccsccscscccsccscssccccsscscsscssccsssscccscsssscsssasscccss" />
  <g
     inkscape:groupmode="layer"
     id="layer1"
     inkscape:label="circles"
     style="display:inline">
    <ellipse
       style="fill:none;fill-opacity:1;fill-rule:nonzero;stroke:#1a1c19;stroke-width:10;stroke-miterlimit:4;stroke-dasharray:none;stroke-dashoffset:0;stroke-opacity:1"
       id="path4616-3"
       cx="-316.84521"
       cy="318.87012"
       rx="206.89809"
       ry="206.30861"
       transform="scale(-1,1)" />
    <ellipse
       style="fill:none;fill-opacity:1;fill-rule:nonzero;stroke:#1a1c19;stroke-width:10;stroke-miterlimit:4;stroke-dasharray:none;stroke-dashoffset:0;stroke-opacity:1"
       id="path4616"
       cx="-318.51312"
       cy="319.15369"
       rx="312.09631"
       ry="311.9537"
       transform="scale(-1,1)" />
  </g>
  <ellipse
     style="fill:#acd684;fill-opacity:1;fill-rule:nonzero;stroke:none;stroke-width:22.59013367;stroke-miterlimit:4;stroke-dasharray:none;stroke-dashoffset:0;stroke-opacity:1"
     id="path5360"
     cx="518.00592"
     cy="416.53262"
     rx="4.9900203"
     ry="4.6271281" />
  <ellipse
     style="fill:#acd684;fill-opacity:1;fill-rule:nonzero;stroke:none;stroke-width:22.59013367;stroke-miterlimit:4;stroke-dasharray:none;stroke-dashoffset:0;stroke-opacity:1"
     id="path5360-7"
     cx="525.23053"
     cy="400.17667"
     rx="4.9900203"
     ry="4.6271281" />
</svg>
